<?xml version="1.0" encoding="utf-8" standalone="no"?>
<!DOCTYPE svg PUBLIC "-//W3C//DTD SVG 1.1//EN"
  "http://www.w3.org/Graphics/SVG/1.1/DTD/svg11.dtd">
<svg xmlns:xlink="http://www.w3.org/1999/xlink" width="293.4pt" height="291.6pt" viewBox="0 0 293.4 291.6" xmlns="http://www.w3.org/2000/svg" version="1.1">
 <metadata>
  <rdf:RDF xmlns:dc="http://purl.org/dc/elements/1.1/" xmlns:cc="http://creativecommons.org/ns#" xmlns:rdf="http://www.w3.org/1999/02/22-rdf-syntax-ns#">
   <cc:Work>
    <dc:type rdf:resource="http://purl.org/dc/dcmitype/StillImage"/>
    <dc:date>2024-06-30T21:16:30.745855</dc:date>
    <dc:format>image/svg+xml</dc:format>
    <dc:creator>
     <cc:Agent>
      <dc:title>Matplotlib v3.9.0, https://matplotlib.org/</dc:title>
     </cc:Agent>
    </dc:creator>
   </cc:Work>
  </rdf:RDF>
 </metadata>
 <defs>
  <style type="text/css">*{stroke-linejoin: round; stroke-linecap: butt}</style>
 </defs>
 <g id="figure_1">
  <g id="patch_1">
   <path d="M 0 291.6 
L 293.4 291.6 
L 293.4 0 
L 0 0 
L 0 291.6 
z
" style="fill: none"/>
  </g>
  <g id="axes_1">
   <g id="patch_2">
    <path d="M 7.2 284.4 
L 286.2 284.4 
L 286.2 7.2 
L 7.2 7.2 
L 7.2 284.4 
z
" style="fill: none"/>
   </g>
   <g id="LineCollection_1">
    <path d="M 123.008729 251.00509 
L 120.813 235.88782 
" clip-path="url(#p4313cc051a)" style="fill: none; stroke: #a9a9a9"/>
    <path d="M 123.008729 251.00509 
L 137.018233 241.35478 
" clip-path="url(#p4313cc051a)" style="fill: none; stroke: #a9a9a9"/>
    <path d="M 123.008729 251.00509 
L 126.477317 239.138339 
" clip-path="url(#p4313cc051a)" style="fill: none; stroke: #a9a9a9"/>
    <path d="M 123.008729 251.00509 
L 132.286535 244.848338 
" clip-path="url(#p4313cc051a)" style="fill: none; stroke: #a9a9a9"/>
    <path d="M 123.008729 251.00509 
L 144.542102 224.610106 
" clip-path="url(#p4313cc051a)" style="fill: none; stroke: #a9a9a9"/>
    <path d="M 123.008729 251.00509 
L 130.159066 228.442108 
" clip-path="url(#p4313cc051a)" style="fill: none; stroke: #a9a9a9"/>
    <path d="M 123.008729 251.00509 
L 134.067258 260.345455 
" clip-path="url(#p4313cc051a)" style="fill: none; stroke: #a9a9a9"/>
    <path d="M 123.008729 251.00509 
L 142.895538 230.189687 
" clip-path="url(#p4313cc051a)" style="fill: none; stroke: #a9a9a9"/>
    <path d="M 123.008729 251.00509 
L 143.350121 203.725027 
" clip-path="url(#p4313cc051a)" style="fill: none; stroke: #a9a9a9"/>
    <path d="M 123.008729 251.00509 
L 139.060912 256.442532 
" clip-path="url(#p4313cc051a)" style="fill: none; stroke: #a9a9a9"/>
    <path d="M 123.008729 251.00509 
L 129.367144 258.458436 
" clip-path="url(#p4313cc051a)" style="fill: none; stroke: #a9a9a9"/>
    <path d="M 123.008729 251.00509 
L 131.999602 208.233222 
" clip-path="url(#p4313cc051a)" style="fill: none; stroke: #a9a9a9"/>
    <path d="M 120.813 235.88782 
L 137.018233 241.35478 
" clip-path="url(#p4313cc051a)" style="fill: none; stroke: #a9a9a9"/>
    <path d="M 120.813 235.88782 
L 126.477317 239.138339 
" clip-path="url(#p4313cc051a)" style="fill: none; stroke: #a9a9a9"/>
    <path d="M 120.813 235.88782 
L 132.286535 244.848338 
" clip-path="url(#p4313cc051a)" style="fill: none; stroke: #a9a9a9"/>
    <path d="M 120.813 235.88782 
L 144.542102 224.610106 
" clip-path="url(#p4313cc051a)" style="fill: none; stroke: #a9a9a9"/>
    <path d="M 120.813 235.88782 
L 130.159066 228.442108 
" clip-path="url(#p4313cc051a)" style="fill: none; stroke: #a9a9a9"/>
    <path d="M 120.813 235.88782 
L 134.067258 260.345455 
" clip-path="url(#p4313cc051a)" style="fill: none; stroke: #a9a9a9"/>
    <path d="M 120.813 235.88782 
L 142.895538 230.189687 
" clip-path="url(#p4313cc051a)" style="fill: none; stroke: #a9a9a9"/>
    <path d="M 120.813 235.88782 
L 143.350121 203.725027 
" clip-path="url(#p4313cc051a)" style="fill: none; stroke: #a9a9a9"/>
    <path d="M 120.813 235.88782 
L 139.060912 256.442532 
" clip-path="url(#p4313cc051a)" style="fill: none; stroke: #a9a9a9"/>
    <path d="M 120.813 235.88782 
L 129.367144 258.458436 
" clip-path="url(#p4313cc051a)" style="fill: none; stroke: #a9a9a9"/>
    <path d="M 120.813 235.88782 
L 131.999602 208.233222 
" clip-path="url(#p4313cc051a)" style="fill: none; stroke: #a9a9a9"/>
    <path d="M 137.018233 241.35478 
L 126.477317 239.138339 
" clip-path="url(#p4313cc051a)" style="fill: none; stroke: #a9a9a9"/>
    <path d="M 137.018233 241.35478 
L 132.286535 244.848338 
" clip-path="url(#p4313cc051a)" style="fill: none; stroke: #a9a9a9"/>
    <path d="M 137.018233 241.35478 
L 144.542102 224.610106 
" clip-path="url(#p4313cc051a)" style="fill: none; stroke: #a9a9a9"/>
    <path d="M 137.018233 241.35478 
L 145.384314 255.060123 
" clip-path="url(#p4313cc051a)" style="fill: none; stroke: #a9a9a9"/>
    <path d="M 137.018233 241.35478 
L 156.50266 233.279453 
" clip-path="url(#p4313cc051a)" style="fill: none; stroke: #a9a9a9"/>
    <path d="M 137.018233 241.35478 
L 130.159066 228.442108 
" clip-path="url(#p4313cc051a)" style="fill: none; stroke: #a9a9a9"/>
    <path d="M 137.018233 241.35478 
L 134.067258 260.345455 
" clip-path="url(#p4313cc051a)" style="fill: none; stroke: #a9a9a9"/>
    <path d="M 137.018233 241.35478 
L 142.895538 230.189687 
" clip-path="url(#p4313cc051a)" style="fill: none; stroke: #a9a9a9"/>
    <path d="M 137.018233 241.35478 
L 143.350121 203.725027 
" clip-path="url(#p4313cc051a)" style="fill: none; stroke: #a9a9a9"/>
    <path d="M 137.018233 241.35478 
L 139.060912 256.442532 
" clip-path="url(#p4313cc051a)" style="fill: none; stroke: #a9a9a9"/>
    <path d="M 137.018233 241.35478 
L 129.367144 258.458436 
" clip-path="url(#p4313cc051a)" style="fill: none; stroke: #a9a9a9"/>
    <path d="M 137.018233 241.35478 
L 131.999602 208.233222 
" clip-path="url(#p4313cc051a)" style="fill: none; stroke: #a9a9a9"/>
    <path d="M 126.477317 239.138339 
L 132.286535 244.848338 
" clip-path="url(#p4313cc051a)" style="fill: none; stroke: #a9a9a9"/>
    <path d="M 126.477317 239.138339 
L 144.542102 224.610106 
" clip-path="url(#p4313cc051a)" style="fill: none; stroke: #a9a9a9"/>
    <path d="M 126.477317 239.138339 
L 145.384314 255.060123 
" clip-path="url(#p4313cc051a)" style="fill: none; stroke: #a9a9a9"/>
    <path d="M 126.477317 239.138339 
L 156.50266 233.279453 
" clip-path="url(#p4313cc051a)" style="fill: none; stroke: #a9a9a9"/>
    <path d="M 126.477317 239.138339 
L 130.159066 228.442108 
" clip-path="url(#p4313cc051a)" style="fill: none; stroke: #a9a9a9"/>
    <path d="M 126.477317 239.138339 
L 134.067258 260.345455 
" clip-path="url(#p4313cc051a)" style="fill: none; stroke: #a9a9a9"/>
    <path d="M 126.477317 239.138339 
L 142.895538 230.189687 
" clip-path="url(#p4313cc051a)" style="fill: none; stroke: #a9a9a9"/>
    <path d="M 126.477317 239.138339 
L 129.367144 258.458436 
" clip-path="url(#p4313cc051a)" style="fill: none; stroke: #a9a9a9"/>
    <path d="M 126.477317 239.138339 
L 131.999602 208.233222 
" clip-path="url(#p4313cc051a)" style="fill: none; stroke: #a9a9a9"/>
    <path d="M 132.286535 244.848338 
L 144.542102 224.610106 
" clip-path="url(#p4313cc051a)" style="fill: none; stroke: #a9a9a9"/>
    <path d="M 132.286535 244.848338 
L 145.384314 255.060123 
" clip-path="url(#p4313cc051a)" style="fill: none; stroke: #a9a9a9"/>
    <path d="M 132.286535 244.848338 
L 156.50266 233.279453 
" clip-path="url(#p4313cc051a)" style="fill: none; stroke: #a9a9a9"/>
    <path d="M 132.286535 244.848338 
L 130.159066 228.442108 
" clip-path="url(#p4313cc051a)" style="fill: none; stroke: #a9a9a9"/>
    <path d="M 132.286535 244.848338 
L 134.067258 260.345455 
" clip-path="url(#p4313cc051a)" style="fill: none; stroke: #a9a9a9"/>
    <path d="M 132.286535 244.848338 
L 142.895538 230.189687 
" clip-path="url(#p4313cc051a)" style="fill: none; stroke: #a9a9a9"/>
    <path d="M 132.286535 244.848338 
L 143.350121 203.725027 
" clip-path="url(#p4313cc051a)" style="fill: none; stroke: #a9a9a9"/>
    <path d="M 132.286535 244.848338 
L 139.060912 256.442532 
" clip-path="url(#p4313cc051a)" style="fill: none; stroke: #a9a9a9"/>
    <path d="M 132.286535 244.848338 
L 131.999602 208.233222 
" clip-path="url(#p4313cc051a)" style="fill: none; stroke: #a9a9a9"/>
    <path d="M 144.542102 224.610106 
L 145.384314 255.060123 
" clip-path="url(#p4313cc051a)" style="fill: none; stroke: #a9a9a9"/>
    <path d="M 144.542102 224.610106 
L 156.50266 233.279453 
" clip-path="url(#p4313cc051a)" style="fill: none; stroke: #a9a9a9"/>
    <path d="M 144.542102 224.610106 
L 130.159066 228.442108 
" clip-path="url(#p4313cc051a)" style="fill: none; stroke: #a9a9a9"/>
    <path d="M 144.542102 224.610106 
L 134.067258 260.345455 
" clip-path="url(#p4313cc051a)" style="fill: none; stroke: #a9a9a9"/>
    <path d="M 144.542102 224.610106 
L 142.895538 230.189687 
" clip-path="url(#p4313cc051a)" style="fill: none; stroke: #a9a9a9"/>
    <path d="M 144.542102 224.610106 
L 143.350121 203.725027 
" clip-path="url(#p4313cc051a)" style="fill: none; stroke: #a9a9a9"/>
    <path d="M 144.542102 224.610106 
L 139.060912 256.442532 
" clip-path="url(#p4313cc051a)" style="fill: none; stroke: #a9a9a9"/>
    <path d="M 144.542102 224.610106 
L 129.367144 258.458436 
" clip-path="url(#p4313cc051a)" style="fill: none; stroke: #a9a9a9"/>
    <path d="M 144.542102 224.610106 
L 185.525405 173.58996 
" clip-path="url(#p4313cc051a)" style="fill: none; stroke: #a9a9a9"/>
    <path d="M 145.384314 255.060123 
L 156.50266 233.279453 
" clip-path="url(#p4313cc051a)" style="fill: none; stroke: #a9a9a9"/>
    <path d="M 145.384314 255.060123 
L 134.067258 260.345455 
" clip-path="url(#p4313cc051a)" style="fill: none; stroke: #a9a9a9"/>
    <path d="M 145.384314 255.060123 
L 142.895538 230.189687 
" clip-path="url(#p4313cc051a)" style="fill: none; stroke: #a9a9a9"/>
    <path d="M 145.384314 255.060123 
L 143.350121 203.725027 
" clip-path="url(#p4313cc051a)" style="fill: none; stroke: #a9a9a9"/>
    <path d="M 145.384314 255.060123 
L 139.060912 256.442532 
" clip-path="url(#p4313cc051a)" style="fill: none; stroke: #a9a9a9"/>
    <path d="M 145.384314 255.060123 
L 129.367144 258.458436 
" clip-path="url(#p4313cc051a)" style="fill: none; stroke: #a9a9a9"/>
    <path d="M 145.384314 255.060123 
L 131.999602 208.233222 
" clip-path="url(#p4313cc051a)" style="fill: none; stroke: #a9a9a9"/>
    <path d="M 156.50266 233.279453 
L 130.159066 228.442108 
" clip-path="url(#p4313cc051a)" style="fill: none; stroke: #a9a9a9"/>
    <path d="M 156.50266 233.279453 
L 134.067258 260.345455 
" clip-path="url(#p4313cc051a)" style="fill: none; stroke: #a9a9a9"/>
    <path d="M 156.50266 233.279453 
L 142.895538 230.189687 
" clip-path="url(#p4313cc051a)" style="fill: none; stroke: #a9a9a9"/>
    <path d="M 156.50266 233.279453 
L 143.350121 203.725027 
" clip-path="url(#p4313cc051a)" style="fill: none; stroke: #a9a9a9"/>
    <path d="M 156.50266 233.279453 
L 139.060912 256.442532 
" clip-path="url(#p4313cc051a)" style="fill: none; stroke: #a9a9a9"/>
    <path d="M 156.50266 233.279453 
L 129.367144 258.458436 
" clip-path="url(#p4313cc051a)" style="fill: none; stroke: #a9a9a9"/>
    <path d="M 156.50266 233.279453 
L 131.999602 208.233222 
" clip-path="url(#p4313cc051a)" style="fill: none; stroke: #a9a9a9"/>
    <path d="M 156.50266 233.279453 
L 218.536929 250.687409 
" clip-path="url(#p4313cc051a)" style="fill: none; stroke: #a9a9a9"/>
    <path d="M 156.50266 233.279453 
L 172.439678 139.320573 
" clip-path="url(#p4313cc051a)" style="fill: none; stroke: #a9a9a9"/>
    <path d="M 130.159066 228.442108 
L 134.067258 260.345455 
" clip-path="url(#p4313cc051a)" style="fill: none; stroke: #a9a9a9"/>
    <path d="M 130.159066 228.442108 
L 142.895538 230.189687 
" clip-path="url(#p4313cc051a)" style="fill: none; stroke: #a9a9a9"/>
    <path d="M 130.159066 228.442108 
L 143.350121 203.725027 
" clip-path="url(#p4313cc051a)" style="fill: none; stroke: #a9a9a9"/>
    <path d="M 130.159066 228.442108 
L 139.060912 256.442532 
" clip-path="url(#p4313cc051a)" style="fill: none; stroke: #a9a9a9"/>
    <path d="M 130.159066 228.442108 
L 129.367144 258.458436 
" clip-path="url(#p4313cc051a)" style="fill: none; stroke: #a9a9a9"/>
    <path d="M 130.159066 228.442108 
L 131.999602 208.233222 
" clip-path="url(#p4313cc051a)" style="fill: none; stroke: #a9a9a9"/>
    <path d="M 134.067258 260.345455 
L 142.895538 230.189687 
" clip-path="url(#p4313cc051a)" style="fill: none; stroke: #a9a9a9"/>
    <path d="M 134.067258 260.345455 
L 139.060912 256.442532 
" clip-path="url(#p4313cc051a)" style="fill: none; stroke: #a9a9a9"/>
    <path d="M 134.067258 260.345455 
L 129.367144 258.458436 
" clip-path="url(#p4313cc051a)" style="fill: none; stroke: #a9a9a9"/>
    <path d="M 134.067258 260.345455 
L 131.999602 208.233222 
" clip-path="url(#p4313cc051a)" style="fill: none; stroke: #a9a9a9"/>
    <path d="M 142.895538 230.189687 
L 143.350121 203.725027 
" clip-path="url(#p4313cc051a)" style="fill: none; stroke: #a9a9a9"/>
    <path d="M 142.895538 230.189687 
L 139.060912 256.442532 
" clip-path="url(#p4313cc051a)" style="fill: none; stroke: #a9a9a9"/>
    <path d="M 142.895538 230.189687 
L 131.999602 208.233222 
" clip-path="url(#p4313cc051a)" style="fill: none; stroke: #a9a9a9"/>
    <path d="M 142.895538 230.189687 
L 170.634518 151.977454 
" clip-path="url(#p4313cc051a)" style="fill: none; stroke: #a9a9a9"/>
    <path d="M 143.350121 203.725027 
L 139.060912 256.442532 
" clip-path="url(#p4313cc051a)" style="fill: none; stroke: #a9a9a9"/>
    <path d="M 143.350121 203.725027 
L 129.367144 258.458436 
" clip-path="url(#p4313cc051a)" style="fill: none; stroke: #a9a9a9"/>
    <path d="M 143.350121 203.725027 
L 131.999602 208.233222 
" clip-path="url(#p4313cc051a)" style="fill: none; stroke: #a9a9a9"/>
    <path d="M 143.350121 203.725027 
L 143.012591 87.117828 
" clip-path="url(#p4313cc051a)" style="fill: none; stroke: #a9a9a9"/>
    <path d="M 143.350121 203.725027 
L 190.220484 165.262481 
" clip-path="url(#p4313cc051a)" style="fill: none; stroke: #a9a9a9"/>
    <path d="M 139.060912 256.442532 
L 129.367144 258.458436 
" clip-path="url(#p4313cc051a)" style="fill: none; stroke: #a9a9a9"/>
    <path d="M 139.060912 256.442532 
L 131.999602 208.233222 
" clip-path="url(#p4313cc051a)" style="fill: none; stroke: #a9a9a9"/>
    <path d="M 129.367144 258.458436 
L 131.999602 208.233222 
" clip-path="url(#p4313cc051a)" style="fill: none; stroke: #a9a9a9"/>
    <path d="M 131.999602 208.233222 
L 136.282311 86.006403 
" clip-path="url(#p4313cc051a)" style="fill: none; stroke: #a9a9a9"/>
    <path d="M 143.012591 87.117828 
L 153.084387 65.847578 
" clip-path="url(#p4313cc051a)" style="fill: none; stroke: #a9a9a9"/>
    <path d="M 143.012591 87.117828 
L 157.221474 53.616585 
" clip-path="url(#p4313cc051a)" style="fill: none; stroke: #a9a9a9"/>
    <path d="M 143.012591 87.117828 
L 147.448428 69.957263 
" clip-path="url(#p4313cc051a)" style="fill: none; stroke: #a9a9a9"/>
    <path d="M 143.012591 87.117828 
L 136.020575 46.141057 
" clip-path="url(#p4313cc051a)" style="fill: none; stroke: #a9a9a9"/>
    <path d="M 143.012591 87.117828 
L 154.695663 43.779047 
" clip-path="url(#p4313cc051a)" style="fill: none; stroke: #a9a9a9"/>
    <path d="M 143.012591 87.117828 
L 140.116209 35.651379 
" clip-path="url(#p4313cc051a)" style="fill: none; stroke: #a9a9a9"/>
    <path d="M 143.012591 87.117828 
L 146.51089 31.254545 
" clip-path="url(#p4313cc051a)" style="fill: none; stroke: #a9a9a9"/>
    <path d="M 143.012591 87.117828 
L 136.282311 86.006403 
" clip-path="url(#p4313cc051a)" style="fill: none; stroke: #a9a9a9"/>
    <path d="M 153.084387 65.847578 
L 157.221474 53.616585 
" clip-path="url(#p4313cc051a)" style="fill: none; stroke: #a9a9a9"/>
    <path d="M 153.084387 65.847578 
L 147.448428 69.957263 
" clip-path="url(#p4313cc051a)" style="fill: none; stroke: #a9a9a9"/>
    <path d="M 153.084387 65.847578 
L 136.020575 46.141057 
" clip-path="url(#p4313cc051a)" style="fill: none; stroke: #a9a9a9"/>
    <path d="M 153.084387 65.847578 
L 154.695663 43.779047 
" clip-path="url(#p4313cc051a)" style="fill: none; stroke: #a9a9a9"/>
    <path d="M 153.084387 65.847578 
L 140.116209 35.651379 
" clip-path="url(#p4313cc051a)" style="fill: none; stroke: #a9a9a9"/>
    <path d="M 153.084387 65.847578 
L 146.51089 31.254545 
" clip-path="url(#p4313cc051a)" style="fill: none; stroke: #a9a9a9"/>
    <path d="M 153.084387 65.847578 
L 136.282311 86.006403 
" clip-path="url(#p4313cc051a)" style="fill: none; stroke: #a9a9a9"/>
    <path d="M 153.084387 65.847578 
L 172.439678 139.320573 
" clip-path="url(#p4313cc051a)" style="fill: none; stroke: #a9a9a9"/>
    <path d="M 157.221474 53.616585 
L 147.448428 69.957263 
" clip-path="url(#p4313cc051a)" style="fill: none; stroke: #a9a9a9"/>
    <path d="M 157.221474 53.616585 
L 136.020575 46.141057 
" clip-path="url(#p4313cc051a)" style="fill: none; stroke: #a9a9a9"/>
    <path d="M 157.221474 53.616585 
L 154.695663 43.779047 
" clip-path="url(#p4313cc051a)" style="fill: none; stroke: #a9a9a9"/>
    <path d="M 157.221474 53.616585 
L 140.116209 35.651379 
" clip-path="url(#p4313cc051a)" style="fill: none; stroke: #a9a9a9"/>
    <path d="M 157.221474 53.616585 
L 146.51089 31.254545 
" clip-path="url(#p4313cc051a)" style="fill: none; stroke: #a9a9a9"/>
    <path d="M 157.221474 53.616585 
L 136.282311 86.006403 
" clip-path="url(#p4313cc051a)" style="fill: none; stroke: #a9a9a9"/>
    <path d="M 157.221474 53.616585 
L 183.922895 106.32379 
" clip-path="url(#p4313cc051a)" style="fill: none; stroke: #a9a9a9"/>
    <path d="M 147.448428 69.957263 
L 136.020575 46.141057 
" clip-path="url(#p4313cc051a)" style="fill: none; stroke: #a9a9a9"/>
    <path d="M 147.448428 69.957263 
L 154.695663 43.779047 
" clip-path="url(#p4313cc051a)" style="fill: none; stroke: #a9a9a9"/>
    <path d="M 147.448428 69.957263 
L 140.116209 35.651379 
" clip-path="url(#p4313cc051a)" style="fill: none; stroke: #a9a9a9"/>
    <path d="M 147.448428 69.957263 
L 146.51089 31.254545 
" clip-path="url(#p4313cc051a)" style="fill: none; stroke: #a9a9a9"/>
    <path d="M 147.448428 69.957263 
L 136.282311 86.006403 
" clip-path="url(#p4313cc051a)" style="fill: none; stroke: #a9a9a9"/>
    <path d="M 147.448428 69.957263 
L 170.634518 151.977454 
" clip-path="url(#p4313cc051a)" style="fill: none; stroke: #a9a9a9"/>
    <path d="M 136.020575 46.141057 
L 154.695663 43.779047 
" clip-path="url(#p4313cc051a)" style="fill: none; stroke: #a9a9a9"/>
    <path d="M 136.020575 46.141057 
L 140.116209 35.651379 
" clip-path="url(#p4313cc051a)" style="fill: none; stroke: #a9a9a9"/>
    <path d="M 136.020575 46.141057 
L 136.282311 86.006403 
" clip-path="url(#p4313cc051a)" style="fill: none; stroke: #a9a9a9"/>
    <path d="M 154.695663 43.779047 
L 140.116209 35.651379 
" clip-path="url(#p4313cc051a)" style="fill: none; stroke: #a9a9a9"/>
    <path d="M 154.695663 43.779047 
L 146.51089 31.254545 
" clip-path="url(#p4313cc051a)" style="fill: none; stroke: #a9a9a9"/>
    <path d="M 154.695663 43.779047 
L 136.282311 86.006403 
" clip-path="url(#p4313cc051a)" style="fill: none; stroke: #a9a9a9"/>
    <path d="M 154.695663 43.779047 
L 178.346698 104.018415 
" clip-path="url(#p4313cc051a)" style="fill: none; stroke: #a9a9a9"/>
    <path d="M 140.116209 35.651379 
L 146.51089 31.254545 
" clip-path="url(#p4313cc051a)" style="fill: none; stroke: #a9a9a9"/>
    <path d="M 140.116209 35.651379 
L 136.282311 86.006403 
" clip-path="url(#p4313cc051a)" style="fill: none; stroke: #a9a9a9"/>
    <path d="M 146.51089 31.254545 
L 136.282311 86.006403 
" clip-path="url(#p4313cc051a)" style="fill: none; stroke: #a9a9a9"/>
    <path d="M 218.536929 250.687409 
L 230.945584 225.565426 
" clip-path="url(#p4313cc051a)" style="fill: none; stroke: #a9a9a9"/>
    <path d="M 218.536929 250.687409 
L 250.009901 248.345443 
" clip-path="url(#p4313cc051a)" style="fill: none; stroke: #a9a9a9"/>
    <path d="M 218.536929 250.687409 
L 253.221953 235.06452 
" clip-path="url(#p4313cc051a)" style="fill: none; stroke: #a9a9a9"/>
    <path d="M 218.536929 250.687409 
L 245.828791 257.261194 
" clip-path="url(#p4313cc051a)" style="fill: none; stroke: #a9a9a9"/>
    <path d="M 261.989256 233.342027 
L 230.945584 225.565426 
" clip-path="url(#p4313cc051a)" style="fill: none; stroke: #a9a9a9"/>
    <path d="M 261.989256 233.342027 
L 250.009901 248.345443 
" clip-path="url(#p4313cc051a)" style="fill: none; stroke: #a9a9a9"/>
    <path d="M 261.989256 233.342027 
L 253.221953 235.06452 
" clip-path="url(#p4313cc051a)" style="fill: none; stroke: #a9a9a9"/>
    <path d="M 261.989256 233.342027 
L 238.42318 211.605251 
" clip-path="url(#p4313cc051a)" style="fill: none; stroke: #a9a9a9"/>
    <path d="M 261.989256 233.342027 
L 245.828791 257.261194 
" clip-path="url(#p4313cc051a)" style="fill: none; stroke: #a9a9a9"/>
    <path d="M 230.945584 225.565426 
L 250.009901 248.345443 
" clip-path="url(#p4313cc051a)" style="fill: none; stroke: #a9a9a9"/>
    <path d="M 230.945584 225.565426 
L 238.42318 211.605251 
" clip-path="url(#p4313cc051a)" style="fill: none; stroke: #a9a9a9"/>
    <path d="M 230.945584 225.565426 
L 245.828791 257.261194 
" clip-path="url(#p4313cc051a)" style="fill: none; stroke: #a9a9a9"/>
    <path d="M 230.945584 225.565426 
L 185.525405 173.58996 
" clip-path="url(#p4313cc051a)" style="fill: none; stroke: #a9a9a9"/>
    <path d="M 250.009901 248.345443 
L 253.221953 235.06452 
" clip-path="url(#p4313cc051a)" style="fill: none; stroke: #a9a9a9"/>
    <path d="M 250.009901 248.345443 
L 238.42318 211.605251 
" clip-path="url(#p4313cc051a)" style="fill: none; stroke: #a9a9a9"/>
    <path d="M 250.009901 248.345443 
L 245.828791 257.261194 
" clip-path="url(#p4313cc051a)" style="fill: none; stroke: #a9a9a9"/>
    <path d="M 253.221953 235.06452 
L 238.42318 211.605251 
" clip-path="url(#p4313cc051a)" style="fill: none; stroke: #a9a9a9"/>
    <path d="M 253.221953 235.06452 
L 245.828791 257.261194 
" clip-path="url(#p4313cc051a)" style="fill: none; stroke: #a9a9a9"/>
    <path d="M 238.42318 211.605251 
L 245.828791 257.261194 
" clip-path="url(#p4313cc051a)" style="fill: none; stroke: #a9a9a9"/>
    <path d="M 238.42318 211.605251 
L 190.220484 165.262481 
" clip-path="url(#p4313cc051a)" style="fill: none; stroke: #a9a9a9"/>
    <path d="M 195.820244 140.403522 
L 181.934241 154.836512 
" clip-path="url(#p4313cc051a)" style="fill: none; stroke: #a9a9a9"/>
    <path d="M 195.820244 140.403522 
L 178.346698 104.018415 
" clip-path="url(#p4313cc051a)" style="fill: none; stroke: #a9a9a9"/>
    <path d="M 195.820244 140.403522 
L 193.506613 128.705585 
" clip-path="url(#p4313cc051a)" style="fill: none; stroke: #a9a9a9"/>
    <path d="M 195.820244 140.403522 
L 182.013031 138.006038 
" clip-path="url(#p4313cc051a)" style="fill: none; stroke: #a9a9a9"/>
    <path d="M 195.820244 140.403522 
L 170.634518 151.977454 
" clip-path="url(#p4313cc051a)" style="fill: none; stroke: #a9a9a9"/>
    <path d="M 195.820244 140.403522 
L 191.505439 149.182574 
" clip-path="url(#p4313cc051a)" style="fill: none; stroke: #a9a9a9"/>
    <path d="M 195.820244 140.403522 
L 164.754959 129.777307 
" clip-path="url(#p4313cc051a)" style="fill: none; stroke: #a9a9a9"/>
    <path d="M 195.820244 140.403522 
L 185.525405 173.58996 
" clip-path="url(#p4313cc051a)" style="fill: none; stroke: #a9a9a9"/>
    <path d="M 195.820244 140.403522 
L 182.948303 124.037303 
" clip-path="url(#p4313cc051a)" style="fill: none; stroke: #a9a9a9"/>
    <path d="M 195.820244 140.403522 
L 189.90326 121.751141 
" clip-path="url(#p4313cc051a)" style="fill: none; stroke: #a9a9a9"/>
    <path d="M 195.820244 140.403522 
L 187.496763 136.194541 
" clip-path="url(#p4313cc051a)" style="fill: none; stroke: #a9a9a9"/>
    <path d="M 195.820244 140.403522 
L 190.220484 165.262481 
" clip-path="url(#p4313cc051a)" style="fill: none; stroke: #a9a9a9"/>
    <path d="M 181.934241 154.836512 
L 172.439678 139.320573 
" clip-path="url(#p4313cc051a)" style="fill: none; stroke: #a9a9a9"/>
    <path d="M 181.934241 154.836512 
L 182.013031 138.006038 
" clip-path="url(#p4313cc051a)" style="fill: none; stroke: #a9a9a9"/>
    <path d="M 181.934241 154.836512 
L 170.634518 151.977454 
" clip-path="url(#p4313cc051a)" style="fill: none; stroke: #a9a9a9"/>
    <path d="M 181.934241 154.836512 
L 191.505439 149.182574 
" clip-path="url(#p4313cc051a)" style="fill: none; stroke: #a9a9a9"/>
    <path d="M 181.934241 154.836512 
L 164.754959 129.777307 
" clip-path="url(#p4313cc051a)" style="fill: none; stroke: #a9a9a9"/>
    <path d="M 181.934241 154.836512 
L 185.525405 173.58996 
" clip-path="url(#p4313cc051a)" style="fill: none; stroke: #a9a9a9"/>
    <path d="M 181.934241 154.836512 
L 182.948303 124.037303 
" clip-path="url(#p4313cc051a)" style="fill: none; stroke: #a9a9a9"/>
    <path d="M 181.934241 154.836512 
L 183.922895 106.32379 
" clip-path="url(#p4313cc051a)" style="fill: none; stroke: #a9a9a9"/>
    <path d="M 181.934241 154.836512 
L 187.496763 136.194541 
" clip-path="url(#p4313cc051a)" style="fill: none; stroke: #a9a9a9"/>
    <path d="M 181.934241 154.836512 
L 190.220484 165.262481 
" clip-path="url(#p4313cc051a)" style="fill: none; stroke: #a9a9a9"/>
    <path d="M 178.346698 104.018415 
L 172.439678 139.320573 
" clip-path="url(#p4313cc051a)" style="fill: none; stroke: #a9a9a9"/>
    <path d="M 178.346698 104.018415 
L 193.506613 128.705585 
" clip-path="url(#p4313cc051a)" style="fill: none; stroke: #a9a9a9"/>
    <path d="M 178.346698 104.018415 
L 182.013031 138.006038 
" clip-path="url(#p4313cc051a)" style="fill: none; stroke: #a9a9a9"/>
    <path d="M 178.346698 104.018415 
L 164.754959 129.777307 
" clip-path="url(#p4313cc051a)" style="fill: none; stroke: #a9a9a9"/>
    <path d="M 178.346698 104.018415 
L 185.525405 173.58996 
" clip-path="url(#p4313cc051a)" style="fill: none; stroke: #a9a9a9"/>
    <path d="M 178.346698 104.018415 
L 182.948303 124.037303 
" clip-path="url(#p4313cc051a)" style="fill: none; stroke: #a9a9a9"/>
    <path d="M 178.346698 104.018415 
L 189.90326 121.751141 
" clip-path="url(#p4313cc051a)" style="fill: none; stroke: #a9a9a9"/>
    <path d="M 178.346698 104.018415 
L 183.922895 106.32379 
" clip-path="url(#p4313cc051a)" style="fill: none; stroke: #a9a9a9"/>
    <path d="M 178.346698 104.018415 
L 187.496763 136.194541 
" clip-path="url(#p4313cc051a)" style="fill: none; stroke: #a9a9a9"/>
    <path d="M 172.439678 139.320573 
L 193.506613 128.705585 
" clip-path="url(#p4313cc051a)" style="fill: none; stroke: #a9a9a9"/>
    <path d="M 172.439678 139.320573 
L 182.013031 138.006038 
" clip-path="url(#p4313cc051a)" style="fill: none; stroke: #a9a9a9"/>
    <path d="M 172.439678 139.320573 
L 170.634518 151.977454 
" clip-path="url(#p4313cc051a)" style="fill: none; stroke: #a9a9a9"/>
    <path d="M 172.439678 139.320573 
L 164.754959 129.777307 
" clip-path="url(#p4313cc051a)" style="fill: none; stroke: #a9a9a9"/>
    <path d="M 172.439678 139.320573 
L 185.525405 173.58996 
" clip-path="url(#p4313cc051a)" style="fill: none; stroke: #a9a9a9"/>
    <path d="M 172.439678 139.320573 
L 182.948303 124.037303 
" clip-path="url(#p4313cc051a)" style="fill: none; stroke: #a9a9a9"/>
    <path d="M 172.439678 139.320573 
L 189.90326 121.751141 
" clip-path="url(#p4313cc051a)" style="fill: none; stroke: #a9a9a9"/>
    <path d="M 172.439678 139.320573 
L 183.922895 106.32379 
" clip-path="url(#p4313cc051a)" style="fill: none; stroke: #a9a9a9"/>
    <path d="M 172.439678 139.320573 
L 187.496763 136.194541 
" clip-path="url(#p4313cc051a)" style="fill: none; stroke: #a9a9a9"/>
    <path d="M 172.439678 139.320573 
L 190.220484 165.262481 
" clip-path="url(#p4313cc051a)" style="fill: none; stroke: #a9a9a9"/>
    <path d="M 193.506613 128.705585 
L 182.013031 138.006038 
" clip-path="url(#p4313cc051a)" style="fill: none; stroke: #a9a9a9"/>
    <path d="M 193.506613 128.705585 
L 170.634518 151.977454 
" clip-path="url(#p4313cc051a)" style="fill: none; stroke: #a9a9a9"/>
    <path d="M 193.506613 128.705585 
L 191.505439 149.182574 
" clip-path="url(#p4313cc051a)" style="fill: none; stroke: #a9a9a9"/>
    <path d="M 193.506613 128.705585 
L 164.754959 129.777307 
" clip-path="url(#p4313cc051a)" style="fill: none; stroke: #a9a9a9"/>
    <path d="M 193.506613 128.705585 
L 185.525405 173.58996 
" clip-path="url(#p4313cc051a)" style="fill: none; stroke: #a9a9a9"/>
    <path d="M 193.506613 128.705585 
L 182.948303 124.037303 
" clip-path="url(#p4313cc051a)" style="fill: none; stroke: #a9a9a9"/>
    <path d="M 193.506613 128.705585 
L 189.90326 121.751141 
" clip-path="url(#p4313cc051a)" style="fill: none; stroke: #a9a9a9"/>
    <path d="M 193.506613 128.705585 
L 183.922895 106.32379 
" clip-path="url(#p4313cc051a)" style="fill: none; stroke: #a9a9a9"/>
    <path d="M 193.506613 128.705585 
L 187.496763 136.194541 
" clip-path="url(#p4313cc051a)" style="fill: none; stroke: #a9a9a9"/>
    <path d="M 193.506613 128.705585 
L 190.220484 165.262481 
" clip-path="url(#p4313cc051a)" style="fill: none; stroke: #a9a9a9"/>
    <path d="M 182.013031 138.006038 
L 191.505439 149.182574 
" clip-path="url(#p4313cc051a)" style="fill: none; stroke: #a9a9a9"/>
    <path d="M 182.013031 138.006038 
L 164.754959 129.777307 
" clip-path="url(#p4313cc051a)" style="fill: none; stroke: #a9a9a9"/>
    <path d="M 182.013031 138.006038 
L 185.525405 173.58996 
" clip-path="url(#p4313cc051a)" style="fill: none; stroke: #a9a9a9"/>
    <path d="M 182.013031 138.006038 
L 182.948303 124.037303 
" clip-path="url(#p4313cc051a)" style="fill: none; stroke: #a9a9a9"/>
    <path d="M 182.013031 138.006038 
L 183.922895 106.32379 
" clip-path="url(#p4313cc051a)" style="fill: none; stroke: #a9a9a9"/>
    <path d="M 182.013031 138.006038 
L 187.496763 136.194541 
" clip-path="url(#p4313cc051a)" style="fill: none; stroke: #a9a9a9"/>
    <path d="M 182.013031 138.006038 
L 190.220484 165.262481 
" clip-path="url(#p4313cc051a)" style="fill: none; stroke: #a9a9a9"/>
    <path d="M 170.634518 151.977454 
L 191.505439 149.182574 
" clip-path="url(#p4313cc051a)" style="fill: none; stroke: #a9a9a9"/>
    <path d="M 170.634518 151.977454 
L 164.754959 129.777307 
" clip-path="url(#p4313cc051a)" style="fill: none; stroke: #a9a9a9"/>
    <path d="M 170.634518 151.977454 
L 185.525405 173.58996 
" clip-path="url(#p4313cc051a)" style="fill: none; stroke: #a9a9a9"/>
    <path d="M 170.634518 151.977454 
L 182.948303 124.037303 
" clip-path="url(#p4313cc051a)" style="fill: none; stroke: #a9a9a9"/>
    <path d="M 170.634518 151.977454 
L 189.90326 121.751141 
" clip-path="url(#p4313cc051a)" style="fill: none; stroke: #a9a9a9"/>
    <path d="M 170.634518 151.977454 
L 187.496763 136.194541 
" clip-path="url(#p4313cc051a)" style="fill: none; stroke: #a9a9a9"/>
    <path d="M 170.634518 151.977454 
L 190.220484 165.262481 
" clip-path="url(#p4313cc051a)" style="fill: none; stroke: #a9a9a9"/>
    <path d="M 191.505439 149.182574 
L 164.754959 129.777307 
" clip-path="url(#p4313cc051a)" style="fill: none; stroke: #a9a9a9"/>
    <path d="M 191.505439 149.182574 
L 185.525405 173.58996 
" clip-path="url(#p4313cc051a)" style="fill: none; stroke: #a9a9a9"/>
    <path d="M 191.505439 149.182574 
L 182.948303 124.037303 
" clip-path="url(#p4313cc051a)" style="fill: none; stroke: #a9a9a9"/>
    <path d="M 191.505439 149.182574 
L 189.90326 121.751141 
" clip-path="url(#p4313cc051a)" style="fill: none; stroke: #a9a9a9"/>
    <path d="M 191.505439 149.182574 
L 183.922895 106.32379 
" clip-path="url(#p4313cc051a)" style="fill: none; stroke: #a9a9a9"/>
    <path d="M 191.505439 149.182574 
L 187.496763 136.194541 
" clip-path="url(#p4313cc051a)" style="fill: none; stroke: #a9a9a9"/>
    <path d="M 191.505439 149.182574 
L 190.220484 165.262481 
" clip-path="url(#p4313cc051a)" style="fill: none; stroke: #a9a9a9"/>
    <path d="M 164.754959 129.777307 
L 185.525405 173.58996 
" clip-path="url(#p4313cc051a)" style="fill: none; stroke: #a9a9a9"/>
    <path d="M 164.754959 129.777307 
L 182.948303 124.037303 
" clip-path="url(#p4313cc051a)" style="fill: none; stroke: #a9a9a9"/>
    <path d="M 164.754959 129.777307 
L 189.90326 121.751141 
" clip-path="url(#p4313cc051a)" style="fill: none; stroke: #a9a9a9"/>
    <path d="M 164.754959 129.777307 
L 183.922895 106.32379 
" clip-path="url(#p4313cc051a)" style="fill: none; stroke: #a9a9a9"/>
    <path d="M 164.754959 129.777307 
L 187.496763 136.194541 
" clip-path="url(#p4313cc051a)" style="fill: none; stroke: #a9a9a9"/>
    <path d="M 164.754959 129.777307 
L 190.220484 165.262481 
" clip-path="url(#p4313cc051a)" style="fill: none; stroke: #a9a9a9"/>
    <path d="M 164.754959 129.777307 
L 90.522592 100.414715 
" clip-path="url(#p4313cc051a)" style="fill: none; stroke: #a9a9a9"/>
    <path d="M 185.525405 173.58996 
L 189.90326 121.751141 
" clip-path="url(#p4313cc051a)" style="fill: none; stroke: #a9a9a9"/>
    <path d="M 185.525405 173.58996 
L 187.496763 136.194541 
" clip-path="url(#p4313cc051a)" style="fill: none; stroke: #a9a9a9"/>
    <path d="M 185.525405 173.58996 
L 190.220484 165.262481 
" clip-path="url(#p4313cc051a)" style="fill: none; stroke: #a9a9a9"/>
    <path d="M 182.948303 124.037303 
L 189.90326 121.751141 
" clip-path="url(#p4313cc051a)" style="fill: none; stroke: #a9a9a9"/>
    <path d="M 182.948303 124.037303 
L 183.922895 106.32379 
" clip-path="url(#p4313cc051a)" style="fill: none; stroke: #a9a9a9"/>
    <path d="M 182.948303 124.037303 
L 187.496763 136.194541 
" clip-path="url(#p4313cc051a)" style="fill: none; stroke: #a9a9a9"/>
    <path d="M 182.948303 124.037303 
L 190.220484 165.262481 
" clip-path="url(#p4313cc051a)" style="fill: none; stroke: #a9a9a9"/>
    <path d="M 189.90326 121.751141 
L 183.922895 106.32379 
" clip-path="url(#p4313cc051a)" style="fill: none; stroke: #a9a9a9"/>
    <path d="M 189.90326 121.751141 
L 187.496763 136.194541 
" clip-path="url(#p4313cc051a)" style="fill: none; stroke: #a9a9a9"/>
    <path d="M 189.90326 121.751141 
L 190.220484 165.262481 
" clip-path="url(#p4313cc051a)" style="fill: none; stroke: #a9a9a9"/>
    <path d="M 183.922895 106.32379 
L 187.496763 136.194541 
" clip-path="url(#p4313cc051a)" style="fill: none; stroke: #a9a9a9"/>
    <path d="M 183.922895 106.32379 
L 190.220484 165.262481 
" clip-path="url(#p4313cc051a)" style="fill: none; stroke: #a9a9a9"/>
    <path d="M 187.496763 136.194541 
L 190.220484 165.262481 
" clip-path="url(#p4313cc051a)" style="fill: none; stroke: #a9a9a9"/>
    <path d="M 31.410744 76.355986 
L 54.842753 70.323467 
" clip-path="url(#p4313cc051a)" style="fill: none; stroke: #a9a9a9"/>
    <path d="M 31.410744 76.355986 
L 49.764027 84.598858 
" clip-path="url(#p4313cc051a)" style="fill: none; stroke: #a9a9a9"/>
    <path d="M 31.410744 76.355986 
L 52.939179 97.647414 
" clip-path="url(#p4313cc051a)" style="fill: none; stroke: #a9a9a9"/>
    <path d="M 90.522592 100.414715 
L 54.842753 70.323467 
" clip-path="url(#p4313cc051a)" style="fill: none; stroke: #a9a9a9"/>
    <path d="M 90.522592 100.414715 
L 49.764027 84.598858 
" clip-path="url(#p4313cc051a)" style="fill: none; stroke: #a9a9a9"/>
    <path d="M 90.522592 100.414715 
L 52.939179 97.647414 
" clip-path="url(#p4313cc051a)" style="fill: none; stroke: #a9a9a9"/>
    <path d="M 54.842753 70.323467 
L 49.764027 84.598858 
" clip-path="url(#p4313cc051a)" style="fill: none; stroke: #a9a9a9"/>
    <path d="M 54.842753 70.323467 
L 52.939179 97.647414 
" clip-path="url(#p4313cc051a)" style="fill: none; stroke: #a9a9a9"/>
    <path d="M 49.764027 84.598858 
L 52.939179 97.647414 
" clip-path="url(#p4313cc051a)" style="fill: none; stroke: #a9a9a9"/>
   </g>
   <g id="PathCollection_1">
    <defs>
     <path id="m99a458a3e5" d="M 0 5 
C 1.326016 5 2.597899 4.473168 3.535534 3.535534 
C 4.473168 2.597899 5 1.326016 5 0 
C 5 -1.326016 4.473168 -2.597899 3.535534 -3.535534 
C 2.597899 -4.473168 1.326016 -5 0 -5 
C -1.326016 -5 -2.597899 -4.473168 -3.535534 -3.535534 
C -4.473168 -2.597899 -5 -1.326016 -5 0 
C -5 1.326016 -4.473168 2.597899 -3.535534 3.535534 
C -2.597899 4.473168 -1.326016 5 0 5 
z
" style="stroke: #000000"/>
    </defs>
    <g clip-path="url(#p4313cc051a)">
     <use xlink:href="#m99a458a3e5" x="123.008729" y="251.00509" style="fill: #ffffff; stroke: #000000"/>
    </g>
   </g>
   <g id="PathCollection_2">
    <g clip-path="url(#p4313cc051a)">
     <use xlink:href="#m99a458a3e5" x="120.813" y="235.88782" style="fill: #ffffff; stroke: #000000"/>
    </g>
   </g>
   <g id="PathCollection_3">
    <g clip-path="url(#p4313cc051a)">
     <use xlink:href="#m99a458a3e5" x="137.018233" y="241.35478" style="fill: #ffffff; stroke: #000000"/>
    </g>
   </g>
   <g id="PathCollection_4">
    <g clip-path="url(#p4313cc051a)">
     <use xlink:href="#m99a458a3e5" x="126.477317" y="239.138339" style="fill: #ffffff; stroke: #000000"/>
    </g>
   </g>
   <g id="PathCollection_5">
    <g clip-path="url(#p4313cc051a)">
     <use xlink:href="#m99a458a3e5" x="132.286535" y="244.848338" style="fill: #ffffff; stroke: #000000"/>
    </g>
   </g>
   <g id="PathCollection_6">
    <g clip-path="url(#p4313cc051a)">
     <use xlink:href="#m99a458a3e5" x="144.542102" y="224.610106" style="fill: #ffffff; stroke: #000000"/>
    </g>
   </g>
   <g id="PathCollection_7">
    <g clip-path="url(#p4313cc051a)">
     <use xlink:href="#m99a458a3e5" x="145.384314" y="255.060123" style="fill: #ffffff; stroke: #000000"/>
    </g>
   </g>
   <g id="PathCollection_8">
    <g clip-path="url(#p4313cc051a)">
     <use xlink:href="#m99a458a3e5" x="156.50266" y="233.279453" style="fill: #ffffff; stroke: #000000"/>
    </g>
   </g>
   <g id="PathCollection_9">
    <g clip-path="url(#p4313cc051a)">
     <use xlink:href="#m99a458a3e5" x="130.159066" y="228.442108" style="fill: #ffffff; stroke: #000000"/>
    </g>
   </g>
   <g id="PathCollection_10">
    <g clip-path="url(#p4313cc051a)">
     <use xlink:href="#m99a458a3e5" x="134.067258" y="260.345455" style="fill: #ffffff; stroke: #000000"/>
    </g>
   </g>
   <g id="PathCollection_11">
    <g clip-path="url(#p4313cc051a)">
     <use xlink:href="#m99a458a3e5" x="142.895538" y="230.189687" style="fill: #ffffff; stroke: #000000"/>
    </g>
   </g>
   <g id="PathCollection_12">
    <g clip-path="url(#p4313cc051a)">
     <use xlink:href="#m99a458a3e5" x="143.350121" y="203.725027" style="fill: #ffffff; stroke: #000000"/>
    </g>
   </g>
   <g id="PathCollection_13">
    <g clip-path="url(#p4313cc051a)">
     <use xlink:href="#m99a458a3e5" x="139.060912" y="256.442532" style="fill: #ffffff; stroke: #000000"/>
    </g>
   </g>
   <g id="PathCollection_14">
    <g clip-path="url(#p4313cc051a)">
     <use xlink:href="#m99a458a3e5" x="129.367144" y="258.458436" style="fill: #ffffff; stroke: #000000"/>
    </g>
   </g>
   <g id="PathCollection_15">
    <g clip-path="url(#p4313cc051a)">
     <use xlink:href="#m99a458a3e5" x="131.999602" y="208.233222" style="fill: #ffffff; stroke: #000000"/>
    </g>
   </g>
   <g id="PathCollection_16">
    <g clip-path="url(#p4313cc051a)">
     <use xlink:href="#m99a458a3e5" x="143.012591" y="87.117828" style="fill: #ffffff; stroke: #000000"/>
    </g>
   </g>
   <g id="PathCollection_17">
    <g clip-path="url(#p4313cc051a)">
     <use xlink:href="#m99a458a3e5" x="153.084387" y="65.847578" style="fill: #ffffff; stroke: #000000"/>
    </g>
   </g>
   <g id="PathCollection_18">
    <g clip-path="url(#p4313cc051a)">
     <use xlink:href="#m99a458a3e5" x="157.221474" y="53.616585" style="fill: #ffffff; stroke: #000000"/>
    </g>
   </g>
   <g id="PathCollection_19">
    <g clip-path="url(#p4313cc051a)">
     <use xlink:href="#m99a458a3e5" x="147.448428" y="69.957263" style="fill: #ffffff; stroke: #000000"/>
    </g>
   </g>
   <g id="PathCollection_20">
    <g clip-path="url(#p4313cc051a)">
     <use xlink:href="#m99a458a3e5" x="136.020575" y="46.141057" style="fill: #ffffff; stroke: #000000"/>
    </g>
   </g>
   <g id="PathCollection_21">
    <g clip-path="url(#p4313cc051a)">
     <use xlink:href="#m99a458a3e5" x="154.695663" y="43.779047" style="fill: #ffffff; stroke: #000000"/>
    </g>
   </g>
   <g id="PathCollection_22">
    <g clip-path="url(#p4313cc051a)">
     <use xlink:href="#m99a458a3e5" x="140.116209" y="35.651379" style="fill: #ffffff; stroke: #000000"/>
    </g>
   </g>
   <g id="PathCollection_23">
    <g clip-path="url(#p4313cc051a)">
     <use xlink:href="#m99a458a3e5" x="146.51089" y="31.254545" style="fill: #ffffff; stroke: #000000"/>
    </g>
   </g>
   <g id="PathCollection_24">
    <g clip-path="url(#p4313cc051a)">
     <use xlink:href="#m99a458a3e5" x="136.282311" y="86.006403" style="fill: #ffffff; stroke: #000000"/>
    </g>
   </g>
   <g id="PathCollection_25">
    <g clip-path="url(#p4313cc051a)">
     <use xlink:href="#m99a458a3e5" x="218.536929" y="250.687409" style="fill: #ffffff; stroke: #000000"/>
    </g>
   </g>
   <g id="PathCollection_26">
    <g clip-path="url(#p4313cc051a)">
     <use xlink:href="#m99a458a3e5" x="261.989256" y="233.342027" style="fill: #ffffff; stroke: #000000"/>
    </g>
   </g>
   <g id="PathCollection_27">
    <g clip-path="url(#p4313cc051a)">
     <use xlink:href="#m99a458a3e5" x="230.945584" y="225.565426" style="fill: #ffffff; stroke: #000000"/>
    </g>
   </g>
   <g id="PathCollection_28">
    <g clip-path="url(#p4313cc051a)">
     <use xlink:href="#m99a458a3e5" x="250.009901" y="248.345443" style="fill: #ffffff; stroke: #000000"/>
    </g>
   </g>
   <g id="PathCollection_29">
    <g clip-path="url(#p4313cc051a)">
     <use xlink:href="#m99a458a3e5" x="253.221953" y="235.06452" style="fill: #ffffff; stroke: #000000"/>
    </g>
   </g>
   <g id="PathCollection_30">
    <g clip-path="url(#p4313cc051a)">
     <use xlink:href="#m99a458a3e5" x="238.42318" y="211.605251" style="fill: #ffffff; stroke: #000000"/>
    </g>
   </g>
   <g id="PathCollection_31">
    <g clip-path="url(#p4313cc051a)">
     <use xlink:href="#m99a458a3e5" x="245.828791" y="257.261194" style="fill: #ffffff; stroke: #000000"/>
    </g>
   </g>
   <g id="PathCollection_32">
    <g clip-path="url(#p4313cc051a)">
     <use xlink:href="#m99a458a3e5" x="195.820244" y="140.403522" style="fill: #ffffff; stroke: #000000"/>
    </g>
   </g>
   <g id="PathCollection_33">
    <g clip-path="url(#p4313cc051a)">
     <use xlink:href="#m99a458a3e5" x="181.934241" y="154.836512" style="fill: #ffffff; stroke: #000000"/>
    </g>
   </g>
   <g id="PathCollection_34">
    <g clip-path="url(#p4313cc051a)">
     <use xlink:href="#m99a458a3e5" x="178.346698" y="104.018415" style="fill: #ffffff; stroke: #000000"/>
    </g>
   </g>
   <g id="PathCollection_35">
    <g clip-path="url(#p4313cc051a)">
     <use xlink:href="#m99a458a3e5" x="172.439678" y="139.320573" style="fill: #ffffff; stroke: #000000"/>
    </g>
   </g>
   <g id="PathCollection_36">
    <g clip-path="url(#p4313cc051a)">
     <use xlink:href="#m99a458a3e5" x="193.506613" y="128.705585" style="fill: #ffffff; stroke: #000000"/>
    </g>
   </g>
   <g id="PathCollection_37">
    <g clip-path="url(#p4313cc051a)">
     <use xlink:href="#m99a458a3e5" x="182.013031" y="138.006038" style="fill: #ffffff; stroke: #000000"/>
    </g>
   </g>
   <g id="PathCollection_38">
    <g clip-path="url(#p4313cc051a)">
     <use xlink:href="#m99a458a3e5" x="170.634518" y="151.977454" style="fill: #ffffff; stroke: #000000"/>
    </g>
   </g>
   <g id="PathCollection_39">
    <g clip-path="url(#p4313cc051a)">
     <use xlink:href="#m99a458a3e5" x="191.505439" y="149.182574" style="fill: #ffffff; stroke: #000000"/>
    </g>
   </g>
   <g id="PathCollection_40">
    <g clip-path="url(#p4313cc051a)">
     <use xlink:href="#m99a458a3e5" x="164.754959" y="129.777307" style="fill: #ffffff; stroke: #000000"/>
    </g>
   </g>
   <g id="PathCollection_41">
    <g clip-path="url(#p4313cc051a)">
     <use xlink:href="#m99a458a3e5" x="185.525405" y="173.58996" style="fill: #ffffff; stroke: #000000"/>
    </g>
   </g>
   <g id="PathCollection_42">
    <g clip-path="url(#p4313cc051a)">
     <use xlink:href="#m99a458a3e5" x="182.948303" y="124.037303" style="fill: #ffffff; stroke: #000000"/>
    </g>
   </g>
   <g id="PathCollection_43">
    <g clip-path="url(#p4313cc051a)">
     <use xlink:href="#m99a458a3e5" x="189.90326" y="121.751141" style="fill: #ffffff; stroke: #000000"/>
    </g>
   </g>
   <g id="PathCollection_44">
    <g clip-path="url(#p4313cc051a)">
     <use xlink:href="#m99a458a3e5" x="183.922895" y="106.32379" style="fill: #ffffff; stroke: #000000"/>
    </g>
   </g>
   <g id="PathCollection_45">
    <g clip-path="url(#p4313cc051a)">
     <use xlink:href="#m99a458a3e5" x="187.496763" y="136.194541" style="fill: #ffffff; stroke: #000000"/>
    </g>
   </g>
   <g id="PathCollection_46">
    <g clip-path="url(#p4313cc051a)">
     <use xlink:href="#m99a458a3e5" x="190.220484" y="165.262481" style="fill: #ffffff; stroke: #000000"/>
    </g>
   </g>
   <g id="PathCollection_47">
    <g clip-path="url(#p4313cc051a)">
     <use xlink:href="#m99a458a3e5" x="31.410744" y="76.355986" style="fill: #ffffff; stroke: #000000"/>
    </g>
   </g>
   <g id="PathCollection_48">
    <g clip-path="url(#p4313cc051a)">
     <use xlink:href="#m99a458a3e5" x="90.522592" y="100.414715" style="fill: #ffffff; stroke: #000000"/>
    </g>
   </g>
   <g id="PathCollection_49">
    <g clip-path="url(#p4313cc051a)">
     <use xlink:href="#m99a458a3e5" x="54.842753" y="70.323467" style="fill: #ffffff; stroke: #000000"/>
    </g>
   </g>
   <g id="PathCollection_50">
    <g clip-path="url(#p4313cc051a)">
     <use xlink:href="#m99a458a3e5" x="49.764027" y="84.598858" style="fill: #ffffff; stroke: #000000"/>
    </g>
   </g>
   <g id="PathCollection_51">
    <g clip-path="url(#p4313cc051a)">
     <use xlink:href="#m99a458a3e5" x="52.939179" y="97.647414" style="fill: #ffffff; stroke: #000000"/>
    </g>
   </g>
   <g id="matplotlib.axis_1">
    <g id="xtick_1"/>
    <g id="xtick_2"/>
    <g id="xtick_3"/>
    <g id="xtick_4"/>
    <g id="xtick_5"/>
    <g id="xtick_6"/>
    <g id="xtick_7"/>
    <g id="xtick_8"/>
    <g id="xtick_9"/>
   </g>
   <g id="matplotlib.axis_2">
    <g id="ytick_1"/>
    <g id="ytick_2"/>
    <g id="ytick_3"/>
    <g id="ytick_4"/>
    <g id="ytick_5"/>
   </g>
   <g id="patch_3">
    <path d="M 7.2 284.4 
L 7.2 7.2 
" style="fill: none; stroke: #000000; stroke-width: 0.8; stroke-linejoin: miter; stroke-linecap: square"/>
   </g>
   <g id="patch_4">
    <path d="M 286.2 284.4 
L 286.2 7.2 
" style="fill: none; stroke: #000000; stroke-width: 0.8; stroke-linejoin: miter; stroke-linecap: square"/>
   </g>
   <g id="patch_5">
    <path d="M 7.2 284.4 
L 286.2 284.4 
" style="fill: none; stroke: #000000; stroke-width: 0.8; stroke-linejoin: miter; stroke-linecap: square"/>
   </g>
   <g id="patch_6">
    <path d="M 7.2 7.2 
L 286.2 7.2 
" style="fill: none; stroke: #000000; stroke-width: 0.8; stroke-linejoin: miter; stroke-linecap: square"/>
   </g>
  </g>
 </g>
 <defs>
  <clipPath id="p4313cc051a">
   <rect x="7.2" y="7.2" width="279" height="277.2"/>
  </clipPath>
 </defs>
</svg>
