<?xml version="1.0" encoding="utf-8" standalone="no"?>
<!DOCTYPE svg PUBLIC "-//W3C//DTD SVG 1.1//EN"
  "http://www.w3.org/Graphics/SVG/1.1/DTD/svg11.dtd">
<svg xmlns:xlink="http://www.w3.org/1999/xlink" width="293.4pt" height="291.6pt" viewBox="0 0 293.4 291.6" xmlns="http://www.w3.org/2000/svg" version="1.1">
 <metadata>
  <rdf:RDF xmlns:dc="http://purl.org/dc/elements/1.1/" xmlns:cc="http://creativecommons.org/ns#" xmlns:rdf="http://www.w3.org/1999/02/22-rdf-syntax-ns#">
   <cc:Work>
    <dc:type rdf:resource="http://purl.org/dc/dcmitype/StillImage"/>
    <dc:date>2024-06-30T21:18:40.468793</dc:date>
    <dc:format>image/svg+xml</dc:format>
    <dc:creator>
     <cc:Agent>
      <dc:title>Matplotlib v3.9.0, https://matplotlib.org/</dc:title>
     </cc:Agent>
    </dc:creator>
   </cc:Work>
  </rdf:RDF>
 </metadata>
 <defs>
  <style type="text/css">*{stroke-linejoin: round; stroke-linecap: butt}</style>
 </defs>
 <g id="figure_1">
  <g id="patch_1">
   <path d="M 0 291.6 
L 293.4 291.6 
L 293.4 0 
L 0 0 
L 0 291.6 
z
" style="fill: none"/>
  </g>
  <g id="axes_1">
   <g id="patch_2">
    <path d="M 7.2 284.4 
L 286.2 284.4 
L 286.2 7.2 
L 7.2 7.2 
L 7.2 284.4 
z
" style="fill: none"/>
   </g>
   <g id="LineCollection_1">
    <path d="M 227.173765 49.557724 
L 233.738876 85.988435 
" clip-path="url(#pba483656b5)" style="fill: none; stroke: #a9a9a9"/>
    <path d="M 227.173765 49.557724 
L 239.738696 31.254545 
" clip-path="url(#pba483656b5)" style="fill: none; stroke: #a9a9a9"/>
    <path d="M 227.173765 49.557724 
L 216.986365 40.696588 
" clip-path="url(#pba483656b5)" style="fill: none; stroke: #a9a9a9"/>
    <path d="M 227.173765 49.557724 
L 177.36455 91.077654 
" clip-path="url(#pba483656b5)" style="fill: none; stroke: #a9a9a9"/>
    <path d="M 227.173765 49.557724 
L 224.958264 86.855642 
" clip-path="url(#pba483656b5)" style="fill: none; stroke: #a9a9a9"/>
    <path d="M 227.173765 49.557724 
L 217.217053 56.048147 
" clip-path="url(#pba483656b5)" style="fill: none; stroke: #a9a9a9"/>
    <path d="M 227.173765 49.557724 
L 246.370153 45.801119 
" clip-path="url(#pba483656b5)" style="fill: none; stroke: #a9a9a9"/>
    <path d="M 233.738876 85.988435 
L 239.738696 31.254545 
" clip-path="url(#pba483656b5)" style="fill: none; stroke: #a9a9a9"/>
    <path d="M 233.738876 85.988435 
L 216.986365 40.696588 
" clip-path="url(#pba483656b5)" style="fill: none; stroke: #a9a9a9"/>
    <path d="M 233.738876 85.988435 
L 177.36455 91.077654 
" clip-path="url(#pba483656b5)" style="fill: none; stroke: #a9a9a9"/>
    <path d="M 233.738876 85.988435 
L 224.958264 86.855642 
" clip-path="url(#pba483656b5)" style="fill: none; stroke: #a9a9a9"/>
    <path d="M 233.738876 85.988435 
L 217.217053 56.048147 
" clip-path="url(#pba483656b5)" style="fill: none; stroke: #a9a9a9"/>
    <path d="M 233.738876 85.988435 
L 246.370153 45.801119 
" clip-path="url(#pba483656b5)" style="fill: none; stroke: #a9a9a9"/>
    <path d="M 233.738876 85.988435 
L 248.451009 188.675371 
" clip-path="url(#pba483656b5)" style="fill: none; stroke: #a9a9a9"/>
    <path d="M 239.738696 31.254545 
L 216.986365 40.696588 
" clip-path="url(#pba483656b5)" style="fill: none; stroke: #a9a9a9"/>
    <path d="M 239.738696 31.254545 
L 224.958264 86.855642 
" clip-path="url(#pba483656b5)" style="fill: none; stroke: #a9a9a9"/>
    <path d="M 239.738696 31.254545 
L 217.217053 56.048147 
" clip-path="url(#pba483656b5)" style="fill: none; stroke: #a9a9a9"/>
    <path d="M 239.738696 31.254545 
L 246.370153 45.801119 
" clip-path="url(#pba483656b5)" style="fill: none; stroke: #a9a9a9"/>
    <path d="M 216.986365 40.696588 
L 177.36455 91.077654 
" clip-path="url(#pba483656b5)" style="fill: none; stroke: #a9a9a9"/>
    <path d="M 216.986365 40.696588 
L 224.958264 86.855642 
" clip-path="url(#pba483656b5)" style="fill: none; stroke: #a9a9a9"/>
    <path d="M 216.986365 40.696588 
L 217.217053 56.048147 
" clip-path="url(#pba483656b5)" style="fill: none; stroke: #a9a9a9"/>
    <path d="M 216.986365 40.696588 
L 246.370153 45.801119 
" clip-path="url(#pba483656b5)" style="fill: none; stroke: #a9a9a9"/>
    <path d="M 177.36455 91.077654 
L 224.958264 86.855642 
" clip-path="url(#pba483656b5)" style="fill: none; stroke: #a9a9a9"/>
    <path d="M 177.36455 91.077654 
L 217.217053 56.048147 
" clip-path="url(#pba483656b5)" style="fill: none; stroke: #a9a9a9"/>
    <path d="M 177.36455 91.077654 
L 84.527284 92.922562 
" clip-path="url(#pba483656b5)" style="fill: none; stroke: #a9a9a9"/>
    <path d="M 177.36455 91.077654 
L 133.624871 197.48282 
" clip-path="url(#pba483656b5)" style="fill: none; stroke: #a9a9a9"/>
    <path d="M 224.958264 86.855642 
L 217.217053 56.048147 
" clip-path="url(#pba483656b5)" style="fill: none; stroke: #a9a9a9"/>
    <path d="M 224.958264 86.855642 
L 246.370153 45.801119 
" clip-path="url(#pba483656b5)" style="fill: none; stroke: #a9a9a9"/>
    <path d="M 224.958264 86.855642 
L 239.602085 190.853986 
" clip-path="url(#pba483656b5)" style="fill: none; stroke: #a9a9a9"/>
    <path d="M 217.217053 56.048147 
L 246.370153 45.801119 
" clip-path="url(#pba483656b5)" style="fill: none; stroke: #a9a9a9"/>
    <path d="M 57.532797 49.044367 
L 31.410744 71.402681 
" clip-path="url(#pba483656b5)" style="fill: none; stroke: #a9a9a9"/>
    <path d="M 57.532797 49.044367 
L 49.821799 52.92557 
" clip-path="url(#pba483656b5)" style="fill: none; stroke: #a9a9a9"/>
    <path d="M 57.532797 49.044367 
L 84.527284 92.922562 
" clip-path="url(#pba483656b5)" style="fill: none; stroke: #a9a9a9"/>
    <path d="M 57.532797 49.044367 
L 49.339841 81.536505 
" clip-path="url(#pba483656b5)" style="fill: none; stroke: #a9a9a9"/>
    <path d="M 57.532797 49.044367 
L 55.506237 72.403718 
" clip-path="url(#pba483656b5)" style="fill: none; stroke: #a9a9a9"/>
    <path d="M 57.532797 49.044367 
L 46.296599 69.551492 
" clip-path="url(#pba483656b5)" style="fill: none; stroke: #a9a9a9"/>
    <path d="M 57.532797 49.044367 
L 43.327745 59.130653 
" clip-path="url(#pba483656b5)" style="fill: none; stroke: #a9a9a9"/>
    <path d="M 57.532797 49.044367 
L 62.943058 77.930193 
" clip-path="url(#pba483656b5)" style="fill: none; stroke: #a9a9a9"/>
    <path d="M 57.532797 49.044367 
L 63.124735 60.18662 
" clip-path="url(#pba483656b5)" style="fill: none; stroke: #a9a9a9"/>
    <path d="M 57.532797 49.044367 
L 40.362305 86.87226 
" clip-path="url(#pba483656b5)" style="fill: none; stroke: #a9a9a9"/>
    <path d="M 57.532797 49.044367 
L 51.414518 92.170571 
" clip-path="url(#pba483656b5)" style="fill: none; stroke: #a9a9a9"/>
    <path d="M 57.532797 49.044367 
L 71.908858 60.450154 
" clip-path="url(#pba483656b5)" style="fill: none; stroke: #a9a9a9"/>
    <path d="M 31.410744 71.402681 
L 49.821799 52.92557 
" clip-path="url(#pba483656b5)" style="fill: none; stroke: #a9a9a9"/>
    <path d="M 31.410744 71.402681 
L 49.339841 81.536505 
" clip-path="url(#pba483656b5)" style="fill: none; stroke: #a9a9a9"/>
    <path d="M 31.410744 71.402681 
L 62.5416 107.842032 
" clip-path="url(#pba483656b5)" style="fill: none; stroke: #a9a9a9"/>
    <path d="M 31.410744 71.402681 
L 55.506237 72.403718 
" clip-path="url(#pba483656b5)" style="fill: none; stroke: #a9a9a9"/>
    <path d="M 31.410744 71.402681 
L 46.296599 69.551492 
" clip-path="url(#pba483656b5)" style="fill: none; stroke: #a9a9a9"/>
    <path d="M 31.410744 71.402681 
L 43.327745 59.130653 
" clip-path="url(#pba483656b5)" style="fill: none; stroke: #a9a9a9"/>
    <path d="M 31.410744 71.402681 
L 62.943058 77.930193 
" clip-path="url(#pba483656b5)" style="fill: none; stroke: #a9a9a9"/>
    <path d="M 31.410744 71.402681 
L 40.362305 86.87226 
" clip-path="url(#pba483656b5)" style="fill: none; stroke: #a9a9a9"/>
    <path d="M 31.410744 71.402681 
L 51.414518 92.170571 
" clip-path="url(#pba483656b5)" style="fill: none; stroke: #a9a9a9"/>
    <path d="M 49.821799 52.92557 
L 84.527284 92.922562 
" clip-path="url(#pba483656b5)" style="fill: none; stroke: #a9a9a9"/>
    <path d="M 49.821799 52.92557 
L 49.339841 81.536505 
" clip-path="url(#pba483656b5)" style="fill: none; stroke: #a9a9a9"/>
    <path d="M 49.821799 52.92557 
L 62.5416 107.842032 
" clip-path="url(#pba483656b5)" style="fill: none; stroke: #a9a9a9"/>
    <path d="M 49.821799 52.92557 
L 55.506237 72.403718 
" clip-path="url(#pba483656b5)" style="fill: none; stroke: #a9a9a9"/>
    <path d="M 49.821799 52.92557 
L 46.296599 69.551492 
" clip-path="url(#pba483656b5)" style="fill: none; stroke: #a9a9a9"/>
    <path d="M 49.821799 52.92557 
L 43.327745 59.130653 
" clip-path="url(#pba483656b5)" style="fill: none; stroke: #a9a9a9"/>
    <path d="M 49.821799 52.92557 
L 62.943058 77.930193 
" clip-path="url(#pba483656b5)" style="fill: none; stroke: #a9a9a9"/>
    <path d="M 49.821799 52.92557 
L 63.124735 60.18662 
" clip-path="url(#pba483656b5)" style="fill: none; stroke: #a9a9a9"/>
    <path d="M 49.821799 52.92557 
L 40.362305 86.87226 
" clip-path="url(#pba483656b5)" style="fill: none; stroke: #a9a9a9"/>
    <path d="M 49.821799 52.92557 
L 51.414518 92.170571 
" clip-path="url(#pba483656b5)" style="fill: none; stroke: #a9a9a9"/>
    <path d="M 49.821799 52.92557 
L 71.908858 60.450154 
" clip-path="url(#pba483656b5)" style="fill: none; stroke: #a9a9a9"/>
    <path d="M 84.527284 92.922562 
L 49.339841 81.536505 
" clip-path="url(#pba483656b5)" style="fill: none; stroke: #a9a9a9"/>
    <path d="M 84.527284 92.922562 
L 62.5416 107.842032 
" clip-path="url(#pba483656b5)" style="fill: none; stroke: #a9a9a9"/>
    <path d="M 84.527284 92.922562 
L 55.506237 72.403718 
" clip-path="url(#pba483656b5)" style="fill: none; stroke: #a9a9a9"/>
    <path d="M 84.527284 92.922562 
L 46.296599 69.551492 
" clip-path="url(#pba483656b5)" style="fill: none; stroke: #a9a9a9"/>
    <path d="M 84.527284 92.922562 
L 43.327745 59.130653 
" clip-path="url(#pba483656b5)" style="fill: none; stroke: #a9a9a9"/>
    <path d="M 84.527284 92.922562 
L 62.943058 77.930193 
" clip-path="url(#pba483656b5)" style="fill: none; stroke: #a9a9a9"/>
    <path d="M 84.527284 92.922562 
L 63.124735 60.18662 
" clip-path="url(#pba483656b5)" style="fill: none; stroke: #a9a9a9"/>
    <path d="M 84.527284 92.922562 
L 40.362305 86.87226 
" clip-path="url(#pba483656b5)" style="fill: none; stroke: #a9a9a9"/>
    <path d="M 84.527284 92.922562 
L 51.414518 92.170571 
" clip-path="url(#pba483656b5)" style="fill: none; stroke: #a9a9a9"/>
    <path d="M 84.527284 92.922562 
L 71.908858 60.450154 
" clip-path="url(#pba483656b5)" style="fill: none; stroke: #a9a9a9"/>
    <path d="M 84.527284 92.922562 
L 112.338212 203.852484 
" clip-path="url(#pba483656b5)" style="fill: none; stroke: #a9a9a9"/>
    <path d="M 49.339841 81.536505 
L 62.5416 107.842032 
" clip-path="url(#pba483656b5)" style="fill: none; stroke: #a9a9a9"/>
    <path d="M 49.339841 81.536505 
L 55.506237 72.403718 
" clip-path="url(#pba483656b5)" style="fill: none; stroke: #a9a9a9"/>
    <path d="M 49.339841 81.536505 
L 46.296599 69.551492 
" clip-path="url(#pba483656b5)" style="fill: none; stroke: #a9a9a9"/>
    <path d="M 49.339841 81.536505 
L 43.327745 59.130653 
" clip-path="url(#pba483656b5)" style="fill: none; stroke: #a9a9a9"/>
    <path d="M 49.339841 81.536505 
L 62.943058 77.930193 
" clip-path="url(#pba483656b5)" style="fill: none; stroke: #a9a9a9"/>
    <path d="M 49.339841 81.536505 
L 63.124735 60.18662 
" clip-path="url(#pba483656b5)" style="fill: none; stroke: #a9a9a9"/>
    <path d="M 49.339841 81.536505 
L 40.362305 86.87226 
" clip-path="url(#pba483656b5)" style="fill: none; stroke: #a9a9a9"/>
    <path d="M 49.339841 81.536505 
L 51.414518 92.170571 
" clip-path="url(#pba483656b5)" style="fill: none; stroke: #a9a9a9"/>
    <path d="M 49.339841 81.536505 
L 71.908858 60.450154 
" clip-path="url(#pba483656b5)" style="fill: none; stroke: #a9a9a9"/>
    <path d="M 62.5416 107.842032 
L 55.506237 72.403718 
" clip-path="url(#pba483656b5)" style="fill: none; stroke: #a9a9a9"/>
    <path d="M 62.5416 107.842032 
L 46.296599 69.551492 
" clip-path="url(#pba483656b5)" style="fill: none; stroke: #a9a9a9"/>
    <path d="M 62.5416 107.842032 
L 43.327745 59.130653 
" clip-path="url(#pba483656b5)" style="fill: none; stroke: #a9a9a9"/>
    <path d="M 62.5416 107.842032 
L 62.943058 77.930193 
" clip-path="url(#pba483656b5)" style="fill: none; stroke: #a9a9a9"/>
    <path d="M 62.5416 107.842032 
L 63.124735 60.18662 
" clip-path="url(#pba483656b5)" style="fill: none; stroke: #a9a9a9"/>
    <path d="M 62.5416 107.842032 
L 40.362305 86.87226 
" clip-path="url(#pba483656b5)" style="fill: none; stroke: #a9a9a9"/>
    <path d="M 62.5416 107.842032 
L 51.414518 92.170571 
" clip-path="url(#pba483656b5)" style="fill: none; stroke: #a9a9a9"/>
    <path d="M 62.5416 107.842032 
L 71.908858 60.450154 
" clip-path="url(#pba483656b5)" style="fill: none; stroke: #a9a9a9"/>
    <path d="M 62.5416 107.842032 
L 103.585615 212.311072 
" clip-path="url(#pba483656b5)" style="fill: none; stroke: #a9a9a9"/>
    <path d="M 55.506237 72.403718 
L 46.296599 69.551492 
" clip-path="url(#pba483656b5)" style="fill: none; stroke: #a9a9a9"/>
    <path d="M 55.506237 72.403718 
L 43.327745 59.130653 
" clip-path="url(#pba483656b5)" style="fill: none; stroke: #a9a9a9"/>
    <path d="M 55.506237 72.403718 
L 62.943058 77.930193 
" clip-path="url(#pba483656b5)" style="fill: none; stroke: #a9a9a9"/>
    <path d="M 55.506237 72.403718 
L 63.124735 60.18662 
" clip-path="url(#pba483656b5)" style="fill: none; stroke: #a9a9a9"/>
    <path d="M 55.506237 72.403718 
L 40.362305 86.87226 
" clip-path="url(#pba483656b5)" style="fill: none; stroke: #a9a9a9"/>
    <path d="M 55.506237 72.403718 
L 51.414518 92.170571 
" clip-path="url(#pba483656b5)" style="fill: none; stroke: #a9a9a9"/>
    <path d="M 46.296599 69.551492 
L 43.327745 59.130653 
" clip-path="url(#pba483656b5)" style="fill: none; stroke: #a9a9a9"/>
    <path d="M 46.296599 69.551492 
L 62.943058 77.930193 
" clip-path="url(#pba483656b5)" style="fill: none; stroke: #a9a9a9"/>
    <path d="M 46.296599 69.551492 
L 63.124735 60.18662 
" clip-path="url(#pba483656b5)" style="fill: none; stroke: #a9a9a9"/>
    <path d="M 46.296599 69.551492 
L 40.362305 86.87226 
" clip-path="url(#pba483656b5)" style="fill: none; stroke: #a9a9a9"/>
    <path d="M 46.296599 69.551492 
L 51.414518 92.170571 
" clip-path="url(#pba483656b5)" style="fill: none; stroke: #a9a9a9"/>
    <path d="M 46.296599 69.551492 
L 71.908858 60.450154 
" clip-path="url(#pba483656b5)" style="fill: none; stroke: #a9a9a9"/>
    <path d="M 43.327745 59.130653 
L 62.943058 77.930193 
" clip-path="url(#pba483656b5)" style="fill: none; stroke: #a9a9a9"/>
    <path d="M 43.327745 59.130653 
L 63.124735 60.18662 
" clip-path="url(#pba483656b5)" style="fill: none; stroke: #a9a9a9"/>
    <path d="M 43.327745 59.130653 
L 40.362305 86.87226 
" clip-path="url(#pba483656b5)" style="fill: none; stroke: #a9a9a9"/>
    <path d="M 43.327745 59.130653 
L 51.414518 92.170571 
" clip-path="url(#pba483656b5)" style="fill: none; stroke: #a9a9a9"/>
    <path d="M 43.327745 59.130653 
L 71.908858 60.450154 
" clip-path="url(#pba483656b5)" style="fill: none; stroke: #a9a9a9"/>
    <path d="M 62.943058 77.930193 
L 63.124735 60.18662 
" clip-path="url(#pba483656b5)" style="fill: none; stroke: #a9a9a9"/>
    <path d="M 62.943058 77.930193 
L 40.362305 86.87226 
" clip-path="url(#pba483656b5)" style="fill: none; stroke: #a9a9a9"/>
    <path d="M 62.943058 77.930193 
L 71.908858 60.450154 
" clip-path="url(#pba483656b5)" style="fill: none; stroke: #a9a9a9"/>
    <path d="M 63.124735 60.18662 
L 40.362305 86.87226 
" clip-path="url(#pba483656b5)" style="fill: none; stroke: #a9a9a9"/>
    <path d="M 63.124735 60.18662 
L 51.414518 92.170571 
" clip-path="url(#pba483656b5)" style="fill: none; stroke: #a9a9a9"/>
    <path d="M 63.124735 60.18662 
L 71.908858 60.450154 
" clip-path="url(#pba483656b5)" style="fill: none; stroke: #a9a9a9"/>
    <path d="M 40.362305 86.87226 
L 51.414518 92.170571 
" clip-path="url(#pba483656b5)" style="fill: none; stroke: #a9a9a9"/>
    <path d="M 51.414518 92.170571 
L 71.908858 60.450154 
" clip-path="url(#pba483656b5)" style="fill: none; stroke: #a9a9a9"/>
    <path d="M 248.451009 188.675371 
L 251.232298 246.022509 
" clip-path="url(#pba483656b5)" style="fill: none; stroke: #a9a9a9"/>
    <path d="M 248.451009 188.675371 
L 245.577177 232.569585 
" clip-path="url(#pba483656b5)" style="fill: none; stroke: #a9a9a9"/>
    <path d="M 248.451009 188.675371 
L 238.568998 207.801983 
" clip-path="url(#pba483656b5)" style="fill: none; stroke: #a9a9a9"/>
    <path d="M 248.451009 188.675371 
L 221.591431 220.782899 
" clip-path="url(#pba483656b5)" style="fill: none; stroke: #a9a9a9"/>
    <path d="M 248.451009 188.675371 
L 222.680565 234.075982 
" clip-path="url(#pba483656b5)" style="fill: none; stroke: #a9a9a9"/>
    <path d="M 248.451009 188.675371 
L 239.602085 190.853986 
" clip-path="url(#pba483656b5)" style="fill: none; stroke: #a9a9a9"/>
    <path d="M 248.451009 188.675371 
L 261.989256 215.205272 
" clip-path="url(#pba483656b5)" style="fill: none; stroke: #a9a9a9"/>
    <path d="M 248.451009 188.675371 
L 253.23597 223.202753 
" clip-path="url(#pba483656b5)" style="fill: none; stroke: #a9a9a9"/>
    <path d="M 248.451009 188.675371 
L 239.112512 244.31137 
" clip-path="url(#pba483656b5)" style="fill: none; stroke: #a9a9a9"/>
    <path d="M 248.451009 188.675371 
L 252.190462 210.247022 
" clip-path="url(#pba483656b5)" style="fill: none; stroke: #a9a9a9"/>
    <path d="M 248.451009 188.675371 
L 257.789843 233.593846 
" clip-path="url(#pba483656b5)" style="fill: none; stroke: #a9a9a9"/>
    <path d="M 248.451009 188.675371 
L 241.887026 218.609547 
" clip-path="url(#pba483656b5)" style="fill: none; stroke: #a9a9a9"/>
    <path d="M 251.232298 246.022509 
L 245.577177 232.569585 
" clip-path="url(#pba483656b5)" style="fill: none; stroke: #a9a9a9"/>
    <path d="M 251.232298 246.022509 
L 221.591431 220.782899 
" clip-path="url(#pba483656b5)" style="fill: none; stroke: #a9a9a9"/>
    <path d="M 251.232298 246.022509 
L 222.680565 234.075982 
" clip-path="url(#pba483656b5)" style="fill: none; stroke: #a9a9a9"/>
    <path d="M 251.232298 246.022509 
L 239.602085 190.853986 
" clip-path="url(#pba483656b5)" style="fill: none; stroke: #a9a9a9"/>
    <path d="M 251.232298 246.022509 
L 261.989256 215.205272 
" clip-path="url(#pba483656b5)" style="fill: none; stroke: #a9a9a9"/>
    <path d="M 251.232298 246.022509 
L 233.186766 231.005529 
" clip-path="url(#pba483656b5)" style="fill: none; stroke: #a9a9a9"/>
    <path d="M 251.232298 246.022509 
L 239.112512 244.31137 
" clip-path="url(#pba483656b5)" style="fill: none; stroke: #a9a9a9"/>
    <path d="M 251.232298 246.022509 
L 252.190462 210.247022 
" clip-path="url(#pba483656b5)" style="fill: none; stroke: #a9a9a9"/>
    <path d="M 251.232298 246.022509 
L 257.789843 233.593846 
" clip-path="url(#pba483656b5)" style="fill: none; stroke: #a9a9a9"/>
    <path d="M 251.232298 246.022509 
L 241.887026 218.609547 
" clip-path="url(#pba483656b5)" style="fill: none; stroke: #a9a9a9"/>
    <path d="M 245.577177 232.569585 
L 238.568998 207.801983 
" clip-path="url(#pba483656b5)" style="fill: none; stroke: #a9a9a9"/>
    <path d="M 245.577177 232.569585 
L 221.591431 220.782899 
" clip-path="url(#pba483656b5)" style="fill: none; stroke: #a9a9a9"/>
    <path d="M 245.577177 232.569585 
L 222.680565 234.075982 
" clip-path="url(#pba483656b5)" style="fill: none; stroke: #a9a9a9"/>
    <path d="M 245.577177 232.569585 
L 239.602085 190.853986 
" clip-path="url(#pba483656b5)" style="fill: none; stroke: #a9a9a9"/>
    <path d="M 245.577177 232.569585 
L 261.989256 215.205272 
" clip-path="url(#pba483656b5)" style="fill: none; stroke: #a9a9a9"/>
    <path d="M 245.577177 232.569585 
L 253.23597 223.202753 
" clip-path="url(#pba483656b5)" style="fill: none; stroke: #a9a9a9"/>
    <path d="M 245.577177 232.569585 
L 233.186766 231.005529 
" clip-path="url(#pba483656b5)" style="fill: none; stroke: #a9a9a9"/>
    <path d="M 245.577177 232.569585 
L 239.112512 244.31137 
" clip-path="url(#pba483656b5)" style="fill: none; stroke: #a9a9a9"/>
    <path d="M 245.577177 232.569585 
L 252.190462 210.247022 
" clip-path="url(#pba483656b5)" style="fill: none; stroke: #a9a9a9"/>
    <path d="M 245.577177 232.569585 
L 257.789843 233.593846 
" clip-path="url(#pba483656b5)" style="fill: none; stroke: #a9a9a9"/>
    <path d="M 245.577177 232.569585 
L 241.887026 218.609547 
" clip-path="url(#pba483656b5)" style="fill: none; stroke: #a9a9a9"/>
    <path d="M 238.568998 207.801983 
L 221.591431 220.782899 
" clip-path="url(#pba483656b5)" style="fill: none; stroke: #a9a9a9"/>
    <path d="M 238.568998 207.801983 
L 222.680565 234.075982 
" clip-path="url(#pba483656b5)" style="fill: none; stroke: #a9a9a9"/>
    <path d="M 238.568998 207.801983 
L 239.602085 190.853986 
" clip-path="url(#pba483656b5)" style="fill: none; stroke: #a9a9a9"/>
    <path d="M 238.568998 207.801983 
L 261.989256 215.205272 
" clip-path="url(#pba483656b5)" style="fill: none; stroke: #a9a9a9"/>
    <path d="M 238.568998 207.801983 
L 253.23597 223.202753 
" clip-path="url(#pba483656b5)" style="fill: none; stroke: #a9a9a9"/>
    <path d="M 238.568998 207.801983 
L 233.186766 231.005529 
" clip-path="url(#pba483656b5)" style="fill: none; stroke: #a9a9a9"/>
    <path d="M 238.568998 207.801983 
L 239.112512 244.31137 
" clip-path="url(#pba483656b5)" style="fill: none; stroke: #a9a9a9"/>
    <path d="M 238.568998 207.801983 
L 252.190462 210.247022 
" clip-path="url(#pba483656b5)" style="fill: none; stroke: #a9a9a9"/>
    <path d="M 238.568998 207.801983 
L 257.789843 233.593846 
" clip-path="url(#pba483656b5)" style="fill: none; stroke: #a9a9a9"/>
    <path d="M 238.568998 207.801983 
L 241.887026 218.609547 
" clip-path="url(#pba483656b5)" style="fill: none; stroke: #a9a9a9"/>
    <path d="M 221.591431 220.782899 
L 222.680565 234.075982 
" clip-path="url(#pba483656b5)" style="fill: none; stroke: #a9a9a9"/>
    <path d="M 221.591431 220.782899 
L 239.602085 190.853986 
" clip-path="url(#pba483656b5)" style="fill: none; stroke: #a9a9a9"/>
    <path d="M 221.591431 220.782899 
L 261.989256 215.205272 
" clip-path="url(#pba483656b5)" style="fill: none; stroke: #a9a9a9"/>
    <path d="M 221.591431 220.782899 
L 253.23597 223.202753 
" clip-path="url(#pba483656b5)" style="fill: none; stroke: #a9a9a9"/>
    <path d="M 221.591431 220.782899 
L 233.186766 231.005529 
" clip-path="url(#pba483656b5)" style="fill: none; stroke: #a9a9a9"/>
    <path d="M 221.591431 220.782899 
L 239.112512 244.31137 
" clip-path="url(#pba483656b5)" style="fill: none; stroke: #a9a9a9"/>
    <path d="M 221.591431 220.782899 
L 252.190462 210.247022 
" clip-path="url(#pba483656b5)" style="fill: none; stroke: #a9a9a9"/>
    <path d="M 221.591431 220.782899 
L 257.789843 233.593846 
" clip-path="url(#pba483656b5)" style="fill: none; stroke: #a9a9a9"/>
    <path d="M 221.591431 220.782899 
L 241.887026 218.609547 
" clip-path="url(#pba483656b5)" style="fill: none; stroke: #a9a9a9"/>
    <path d="M 221.591431 220.782899 
L 141.802885 232.405106 
" clip-path="url(#pba483656b5)" style="fill: none; stroke: #a9a9a9"/>
    <path d="M 222.680565 234.075982 
L 239.602085 190.853986 
" clip-path="url(#pba483656b5)" style="fill: none; stroke: #a9a9a9"/>
    <path d="M 222.680565 234.075982 
L 261.989256 215.205272 
" clip-path="url(#pba483656b5)" style="fill: none; stroke: #a9a9a9"/>
    <path d="M 222.680565 234.075982 
L 253.23597 223.202753 
" clip-path="url(#pba483656b5)" style="fill: none; stroke: #a9a9a9"/>
    <path d="M 222.680565 234.075982 
L 233.186766 231.005529 
" clip-path="url(#pba483656b5)" style="fill: none; stroke: #a9a9a9"/>
    <path d="M 222.680565 234.075982 
L 239.112512 244.31137 
" clip-path="url(#pba483656b5)" style="fill: none; stroke: #a9a9a9"/>
    <path d="M 222.680565 234.075982 
L 252.190462 210.247022 
" clip-path="url(#pba483656b5)" style="fill: none; stroke: #a9a9a9"/>
    <path d="M 222.680565 234.075982 
L 257.789843 233.593846 
" clip-path="url(#pba483656b5)" style="fill: none; stroke: #a9a9a9"/>
    <path d="M 222.680565 234.075982 
L 241.887026 218.609547 
" clip-path="url(#pba483656b5)" style="fill: none; stroke: #a9a9a9"/>
    <path d="M 222.680565 234.075982 
L 143.303027 247.919229 
" clip-path="url(#pba483656b5)" style="fill: none; stroke: #a9a9a9"/>
    <path d="M 239.602085 190.853986 
L 261.989256 215.205272 
" clip-path="url(#pba483656b5)" style="fill: none; stroke: #a9a9a9"/>
    <path d="M 239.602085 190.853986 
L 253.23597 223.202753 
" clip-path="url(#pba483656b5)" style="fill: none; stroke: #a9a9a9"/>
    <path d="M 239.602085 190.853986 
L 233.186766 231.005529 
" clip-path="url(#pba483656b5)" style="fill: none; stroke: #a9a9a9"/>
    <path d="M 239.602085 190.853986 
L 239.112512 244.31137 
" clip-path="url(#pba483656b5)" style="fill: none; stroke: #a9a9a9"/>
    <path d="M 239.602085 190.853986 
L 252.190462 210.247022 
" clip-path="url(#pba483656b5)" style="fill: none; stroke: #a9a9a9"/>
    <path d="M 239.602085 190.853986 
L 257.789843 233.593846 
" clip-path="url(#pba483656b5)" style="fill: none; stroke: #a9a9a9"/>
    <path d="M 239.602085 190.853986 
L 241.887026 218.609547 
" clip-path="url(#pba483656b5)" style="fill: none; stroke: #a9a9a9"/>
    <path d="M 261.989256 215.205272 
L 253.23597 223.202753 
" clip-path="url(#pba483656b5)" style="fill: none; stroke: #a9a9a9"/>
    <path d="M 261.989256 215.205272 
L 252.190462 210.247022 
" clip-path="url(#pba483656b5)" style="fill: none; stroke: #a9a9a9"/>
    <path d="M 261.989256 215.205272 
L 257.789843 233.593846 
" clip-path="url(#pba483656b5)" style="fill: none; stroke: #a9a9a9"/>
    <path d="M 261.989256 215.205272 
L 241.887026 218.609547 
" clip-path="url(#pba483656b5)" style="fill: none; stroke: #a9a9a9"/>
    <path d="M 253.23597 223.202753 
L 233.186766 231.005529 
" clip-path="url(#pba483656b5)" style="fill: none; stroke: #a9a9a9"/>
    <path d="M 253.23597 223.202753 
L 239.112512 244.31137 
" clip-path="url(#pba483656b5)" style="fill: none; stroke: #a9a9a9"/>
    <path d="M 253.23597 223.202753 
L 252.190462 210.247022 
" clip-path="url(#pba483656b5)" style="fill: none; stroke: #a9a9a9"/>
    <path d="M 253.23597 223.202753 
L 257.789843 233.593846 
" clip-path="url(#pba483656b5)" style="fill: none; stroke: #a9a9a9"/>
    <path d="M 253.23597 223.202753 
L 241.887026 218.609547 
" clip-path="url(#pba483656b5)" style="fill: none; stroke: #a9a9a9"/>
    <path d="M 233.186766 231.005529 
L 239.112512 244.31137 
" clip-path="url(#pba483656b5)" style="fill: none; stroke: #a9a9a9"/>
    <path d="M 233.186766 231.005529 
L 252.190462 210.247022 
" clip-path="url(#pba483656b5)" style="fill: none; stroke: #a9a9a9"/>
    <path d="M 233.186766 231.005529 
L 257.789843 233.593846 
" clip-path="url(#pba483656b5)" style="fill: none; stroke: #a9a9a9"/>
    <path d="M 233.186766 231.005529 
L 241.887026 218.609547 
" clip-path="url(#pba483656b5)" style="fill: none; stroke: #a9a9a9"/>
    <path d="M 239.112512 244.31137 
L 252.190462 210.247022 
" clip-path="url(#pba483656b5)" style="fill: none; stroke: #a9a9a9"/>
    <path d="M 239.112512 244.31137 
L 241.887026 218.609547 
" clip-path="url(#pba483656b5)" style="fill: none; stroke: #a9a9a9"/>
    <path d="M 252.190462 210.247022 
L 257.789843 233.593846 
" clip-path="url(#pba483656b5)" style="fill: none; stroke: #a9a9a9"/>
    <path d="M 252.190462 210.247022 
L 241.887026 218.609547 
" clip-path="url(#pba483656b5)" style="fill: none; stroke: #a9a9a9"/>
    <path d="M 257.789843 233.593846 
L 241.887026 218.609547 
" clip-path="url(#pba483656b5)" style="fill: none; stroke: #a9a9a9"/>
    <path d="M 143.303027 247.919229 
L 103.585615 212.311072 
" clip-path="url(#pba483656b5)" style="fill: none; stroke: #a9a9a9"/>
    <path d="M 143.303027 247.919229 
L 117.254533 244.833189 
" clip-path="url(#pba483656b5)" style="fill: none; stroke: #a9a9a9"/>
    <path d="M 143.303027 247.919229 
L 120.552914 234.096912 
" clip-path="url(#pba483656b5)" style="fill: none; stroke: #a9a9a9"/>
    <path d="M 143.303027 247.919229 
L 112.338212 203.852484 
" clip-path="url(#pba483656b5)" style="fill: none; stroke: #a9a9a9"/>
    <path d="M 143.303027 247.919229 
L 126.289188 252.696952 
" clip-path="url(#pba483656b5)" style="fill: none; stroke: #a9a9a9"/>
    <path d="M 143.303027 247.919229 
L 108.766056 238.442677 
" clip-path="url(#pba483656b5)" style="fill: none; stroke: #a9a9a9"/>
    <path d="M 143.303027 247.919229 
L 105.867047 260.345455 
" clip-path="url(#pba483656b5)" style="fill: none; stroke: #a9a9a9"/>
    <path d="M 143.303027 247.919229 
L 116.845668 257.663088 
" clip-path="url(#pba483656b5)" style="fill: none; stroke: #a9a9a9"/>
    <path d="M 103.585615 212.311072 
L 117.254533 244.833189 
" clip-path="url(#pba483656b5)" style="fill: none; stroke: #a9a9a9"/>
    <path d="M 103.585615 212.311072 
L 120.552914 234.096912 
" clip-path="url(#pba483656b5)" style="fill: none; stroke: #a9a9a9"/>
    <path d="M 103.585615 212.311072 
L 112.338212 203.852484 
" clip-path="url(#pba483656b5)" style="fill: none; stroke: #a9a9a9"/>
    <path d="M 103.585615 212.311072 
L 141.802885 232.405106 
" clip-path="url(#pba483656b5)" style="fill: none; stroke: #a9a9a9"/>
    <path d="M 103.585615 212.311072 
L 126.289188 252.696952 
" clip-path="url(#pba483656b5)" style="fill: none; stroke: #a9a9a9"/>
    <path d="M 103.585615 212.311072 
L 108.766056 238.442677 
" clip-path="url(#pba483656b5)" style="fill: none; stroke: #a9a9a9"/>
    <path d="M 103.585615 212.311072 
L 105.867047 260.345455 
" clip-path="url(#pba483656b5)" style="fill: none; stroke: #a9a9a9"/>
    <path d="M 103.585615 212.311072 
L 116.845668 257.663088 
" clip-path="url(#pba483656b5)" style="fill: none; stroke: #a9a9a9"/>
    <path d="M 103.585615 212.311072 
L 133.624871 197.48282 
" clip-path="url(#pba483656b5)" style="fill: none; stroke: #a9a9a9"/>
    <path d="M 117.254533 244.833189 
L 120.552914 234.096912 
" clip-path="url(#pba483656b5)" style="fill: none; stroke: #a9a9a9"/>
    <path d="M 117.254533 244.833189 
L 112.338212 203.852484 
" clip-path="url(#pba483656b5)" style="fill: none; stroke: #a9a9a9"/>
    <path d="M 117.254533 244.833189 
L 141.802885 232.405106 
" clip-path="url(#pba483656b5)" style="fill: none; stroke: #a9a9a9"/>
    <path d="M 117.254533 244.833189 
L 126.289188 252.696952 
" clip-path="url(#pba483656b5)" style="fill: none; stroke: #a9a9a9"/>
    <path d="M 117.254533 244.833189 
L 108.766056 238.442677 
" clip-path="url(#pba483656b5)" style="fill: none; stroke: #a9a9a9"/>
    <path d="M 117.254533 244.833189 
L 105.867047 260.345455 
" clip-path="url(#pba483656b5)" style="fill: none; stroke: #a9a9a9"/>
    <path d="M 117.254533 244.833189 
L 116.845668 257.663088 
" clip-path="url(#pba483656b5)" style="fill: none; stroke: #a9a9a9"/>
    <path d="M 117.254533 244.833189 
L 133.624871 197.48282 
" clip-path="url(#pba483656b5)" style="fill: none; stroke: #a9a9a9"/>
    <path d="M 120.552914 234.096912 
L 141.802885 232.405106 
" clip-path="url(#pba483656b5)" style="fill: none; stroke: #a9a9a9"/>
    <path d="M 120.552914 234.096912 
L 126.289188 252.696952 
" clip-path="url(#pba483656b5)" style="fill: none; stroke: #a9a9a9"/>
    <path d="M 120.552914 234.096912 
L 108.766056 238.442677 
" clip-path="url(#pba483656b5)" style="fill: none; stroke: #a9a9a9"/>
    <path d="M 120.552914 234.096912 
L 105.867047 260.345455 
" clip-path="url(#pba483656b5)" style="fill: none; stroke: #a9a9a9"/>
    <path d="M 120.552914 234.096912 
L 116.845668 257.663088 
" clip-path="url(#pba483656b5)" style="fill: none; stroke: #a9a9a9"/>
    <path d="M 120.552914 234.096912 
L 133.624871 197.48282 
" clip-path="url(#pba483656b5)" style="fill: none; stroke: #a9a9a9"/>
    <path d="M 112.338212 203.852484 
L 141.802885 232.405106 
" clip-path="url(#pba483656b5)" style="fill: none; stroke: #a9a9a9"/>
    <path d="M 112.338212 203.852484 
L 126.289188 252.696952 
" clip-path="url(#pba483656b5)" style="fill: none; stroke: #a9a9a9"/>
    <path d="M 112.338212 203.852484 
L 108.766056 238.442677 
" clip-path="url(#pba483656b5)" style="fill: none; stroke: #a9a9a9"/>
    <path d="M 112.338212 203.852484 
L 105.867047 260.345455 
" clip-path="url(#pba483656b5)" style="fill: none; stroke: #a9a9a9"/>
    <path d="M 112.338212 203.852484 
L 116.845668 257.663088 
" clip-path="url(#pba483656b5)" style="fill: none; stroke: #a9a9a9"/>
    <path d="M 112.338212 203.852484 
L 133.624871 197.48282 
" clip-path="url(#pba483656b5)" style="fill: none; stroke: #a9a9a9"/>
    <path d="M 141.802885 232.405106 
L 126.289188 252.696952 
" clip-path="url(#pba483656b5)" style="fill: none; stroke: #a9a9a9"/>
    <path d="M 141.802885 232.405106 
L 108.766056 238.442677 
" clip-path="url(#pba483656b5)" style="fill: none; stroke: #a9a9a9"/>
    <path d="M 141.802885 232.405106 
L 105.867047 260.345455 
" clip-path="url(#pba483656b5)" style="fill: none; stroke: #a9a9a9"/>
    <path d="M 141.802885 232.405106 
L 116.845668 257.663088 
" clip-path="url(#pba483656b5)" style="fill: none; stroke: #a9a9a9"/>
    <path d="M 141.802885 232.405106 
L 133.624871 197.48282 
" clip-path="url(#pba483656b5)" style="fill: none; stroke: #a9a9a9"/>
    <path d="M 126.289188 252.696952 
L 108.766056 238.442677 
" clip-path="url(#pba483656b5)" style="fill: none; stroke: #a9a9a9"/>
    <path d="M 126.289188 252.696952 
L 116.845668 257.663088 
" clip-path="url(#pba483656b5)" style="fill: none; stroke: #a9a9a9"/>
    <path d="M 126.289188 252.696952 
L 133.624871 197.48282 
" clip-path="url(#pba483656b5)" style="fill: none; stroke: #a9a9a9"/>
    <path d="M 108.766056 238.442677 
L 105.867047 260.345455 
" clip-path="url(#pba483656b5)" style="fill: none; stroke: #a9a9a9"/>
    <path d="M 108.766056 238.442677 
L 116.845668 257.663088 
" clip-path="url(#pba483656b5)" style="fill: none; stroke: #a9a9a9"/>
    <path d="M 108.766056 238.442677 
L 133.624871 197.48282 
" clip-path="url(#pba483656b5)" style="fill: none; stroke: #a9a9a9"/>
    <path d="M 105.867047 260.345455 
L 116.845668 257.663088 
" clip-path="url(#pba483656b5)" style="fill: none; stroke: #a9a9a9"/>
    <path d="M 116.845668 257.663088 
L 133.624871 197.48282 
" clip-path="url(#pba483656b5)" style="fill: none; stroke: #a9a9a9"/>
   </g>
   <g id="PathCollection_1">
    <defs>
     <path id="m59f9f90cc9" d="M 0 5 
C 1.326016 5 2.597899 4.473168 3.535534 3.535534 
C 4.473168 2.597899 5 1.326016 5 0 
C 5 -1.326016 4.473168 -2.597899 3.535534 -3.535534 
C 2.597899 -4.473168 1.326016 -5 0 -5 
C -1.326016 -5 -2.597899 -4.473168 -3.535534 -3.535534 
C -4.473168 -2.597899 -5 -1.326016 -5 0 
C -5 1.326016 -4.473168 2.597899 -3.535534 3.535534 
C -2.597899 4.473168 -1.326016 5 0 5 
z
" style="stroke: #000000"/>
    </defs>
    <g clip-path="url(#pba483656b5)">
     <use xlink:href="#m59f9f90cc9" x="227.173765" y="49.557724" style="fill: #ffffff; stroke: #000000"/>
    </g>
   </g>
   <g id="PathCollection_2">
    <g clip-path="url(#pba483656b5)">
     <use xlink:href="#m59f9f90cc9" x="233.738876" y="85.988435" style="fill: #ffffff; stroke: #000000"/>
    </g>
   </g>
   <g id="PathCollection_3">
    <g clip-path="url(#pba483656b5)">
     <use xlink:href="#m59f9f90cc9" x="239.738696" y="31.254545" style="fill: #ffffff; stroke: #000000"/>
    </g>
   </g>
   <g id="PathCollection_4">
    <g clip-path="url(#pba483656b5)">
     <use xlink:href="#m59f9f90cc9" x="216.986365" y="40.696588" style="fill: #ffffff; stroke: #000000"/>
    </g>
   </g>
   <g id="PathCollection_5">
    <g clip-path="url(#pba483656b5)">
     <use xlink:href="#m59f9f90cc9" x="177.36455" y="91.077654" style="fill: #ffffff; stroke: #000000"/>
    </g>
   </g>
   <g id="PathCollection_6">
    <g clip-path="url(#pba483656b5)">
     <use xlink:href="#m59f9f90cc9" x="224.958264" y="86.855642" style="fill: #ffffff; stroke: #000000"/>
    </g>
   </g>
   <g id="PathCollection_7">
    <g clip-path="url(#pba483656b5)">
     <use xlink:href="#m59f9f90cc9" x="217.217053" y="56.048147" style="fill: #ffffff; stroke: #000000"/>
    </g>
   </g>
   <g id="PathCollection_8">
    <g clip-path="url(#pba483656b5)">
     <use xlink:href="#m59f9f90cc9" x="246.370153" y="45.801119" style="fill: #ffffff; stroke: #000000"/>
    </g>
   </g>
   <g id="PathCollection_9">
    <g clip-path="url(#pba483656b5)">
     <use xlink:href="#m59f9f90cc9" x="57.532797" y="49.044367" style="fill: #ffffff; stroke: #000000"/>
    </g>
   </g>
   <g id="PathCollection_10">
    <g clip-path="url(#pba483656b5)">
     <use xlink:href="#m59f9f90cc9" x="31.410744" y="71.402681" style="fill: #ffffff; stroke: #000000"/>
    </g>
   </g>
   <g id="PathCollection_11">
    <g clip-path="url(#pba483656b5)">
     <use xlink:href="#m59f9f90cc9" x="49.821799" y="52.92557" style="fill: #ffffff; stroke: #000000"/>
    </g>
   </g>
   <g id="PathCollection_12">
    <g clip-path="url(#pba483656b5)">
     <use xlink:href="#m59f9f90cc9" x="84.527284" y="92.922562" style="fill: #ffffff; stroke: #000000"/>
    </g>
   </g>
   <g id="PathCollection_13">
    <g clip-path="url(#pba483656b5)">
     <use xlink:href="#m59f9f90cc9" x="49.339841" y="81.536505" style="fill: #ffffff; stroke: #000000"/>
    </g>
   </g>
   <g id="PathCollection_14">
    <g clip-path="url(#pba483656b5)">
     <use xlink:href="#m59f9f90cc9" x="62.5416" y="107.842032" style="fill: #ffffff; stroke: #000000"/>
    </g>
   </g>
   <g id="PathCollection_15">
    <g clip-path="url(#pba483656b5)">
     <use xlink:href="#m59f9f90cc9" x="55.506237" y="72.403718" style="fill: #ffffff; stroke: #000000"/>
    </g>
   </g>
   <g id="PathCollection_16">
    <g clip-path="url(#pba483656b5)">
     <use xlink:href="#m59f9f90cc9" x="46.296599" y="69.551492" style="fill: #ffffff; stroke: #000000"/>
    </g>
   </g>
   <g id="PathCollection_17">
    <g clip-path="url(#pba483656b5)">
     <use xlink:href="#m59f9f90cc9" x="43.327745" y="59.130653" style="fill: #ffffff; stroke: #000000"/>
    </g>
   </g>
   <g id="PathCollection_18">
    <g clip-path="url(#pba483656b5)">
     <use xlink:href="#m59f9f90cc9" x="62.943058" y="77.930193" style="fill: #ffffff; stroke: #000000"/>
    </g>
   </g>
   <g id="PathCollection_19">
    <g clip-path="url(#pba483656b5)">
     <use xlink:href="#m59f9f90cc9" x="63.124735" y="60.18662" style="fill: #ffffff; stroke: #000000"/>
    </g>
   </g>
   <g id="PathCollection_20">
    <g clip-path="url(#pba483656b5)">
     <use xlink:href="#m59f9f90cc9" x="40.362305" y="86.87226" style="fill: #ffffff; stroke: #000000"/>
    </g>
   </g>
   <g id="PathCollection_21">
    <g clip-path="url(#pba483656b5)">
     <use xlink:href="#m59f9f90cc9" x="51.414518" y="92.170571" style="fill: #ffffff; stroke: #000000"/>
    </g>
   </g>
   <g id="PathCollection_22">
    <g clip-path="url(#pba483656b5)">
     <use xlink:href="#m59f9f90cc9" x="71.908858" y="60.450154" style="fill: #ffffff; stroke: #000000"/>
    </g>
   </g>
   <g id="PathCollection_23">
    <g clip-path="url(#pba483656b5)">
     <use xlink:href="#m59f9f90cc9" x="248.451009" y="188.675371" style="fill: #ffffff; stroke: #000000"/>
    </g>
   </g>
   <g id="PathCollection_24">
    <g clip-path="url(#pba483656b5)">
     <use xlink:href="#m59f9f90cc9" x="251.232298" y="246.022509" style="fill: #ffffff; stroke: #000000"/>
    </g>
   </g>
   <g id="PathCollection_25">
    <g clip-path="url(#pba483656b5)">
     <use xlink:href="#m59f9f90cc9" x="245.577177" y="232.569585" style="fill: #ffffff; stroke: #000000"/>
    </g>
   </g>
   <g id="PathCollection_26">
    <g clip-path="url(#pba483656b5)">
     <use xlink:href="#m59f9f90cc9" x="238.568998" y="207.801983" style="fill: #ffffff; stroke: #000000"/>
    </g>
   </g>
   <g id="PathCollection_27">
    <g clip-path="url(#pba483656b5)">
     <use xlink:href="#m59f9f90cc9" x="221.591431" y="220.782899" style="fill: #ffffff; stroke: #000000"/>
    </g>
   </g>
   <g id="PathCollection_28">
    <g clip-path="url(#pba483656b5)">
     <use xlink:href="#m59f9f90cc9" x="222.680565" y="234.075982" style="fill: #ffffff; stroke: #000000"/>
    </g>
   </g>
   <g id="PathCollection_29">
    <g clip-path="url(#pba483656b5)">
     <use xlink:href="#m59f9f90cc9" x="239.602085" y="190.853986" style="fill: #ffffff; stroke: #000000"/>
    </g>
   </g>
   <g id="PathCollection_30">
    <g clip-path="url(#pba483656b5)">
     <use xlink:href="#m59f9f90cc9" x="261.989256" y="215.205272" style="fill: #ffffff; stroke: #000000"/>
    </g>
   </g>
   <g id="PathCollection_31">
    <g clip-path="url(#pba483656b5)">
     <use xlink:href="#m59f9f90cc9" x="253.23597" y="223.202753" style="fill: #ffffff; stroke: #000000"/>
    </g>
   </g>
   <g id="PathCollection_32">
    <g clip-path="url(#pba483656b5)">
     <use xlink:href="#m59f9f90cc9" x="233.186766" y="231.005529" style="fill: #ffffff; stroke: #000000"/>
    </g>
   </g>
   <g id="PathCollection_33">
    <g clip-path="url(#pba483656b5)">
     <use xlink:href="#m59f9f90cc9" x="239.112512" y="244.31137" style="fill: #ffffff; stroke: #000000"/>
    </g>
   </g>
   <g id="PathCollection_34">
    <g clip-path="url(#pba483656b5)">
     <use xlink:href="#m59f9f90cc9" x="252.190462" y="210.247022" style="fill: #ffffff; stroke: #000000"/>
    </g>
   </g>
   <g id="PathCollection_35">
    <g clip-path="url(#pba483656b5)">
     <use xlink:href="#m59f9f90cc9" x="257.789843" y="233.593846" style="fill: #ffffff; stroke: #000000"/>
    </g>
   </g>
   <g id="PathCollection_36">
    <g clip-path="url(#pba483656b5)">
     <use xlink:href="#m59f9f90cc9" x="241.887026" y="218.609547" style="fill: #ffffff; stroke: #000000"/>
    </g>
   </g>
   <g id="PathCollection_37">
    <g clip-path="url(#pba483656b5)">
     <use xlink:href="#m59f9f90cc9" x="143.303027" y="247.919229" style="fill: #ffffff; stroke: #000000"/>
    </g>
   </g>
   <g id="PathCollection_38">
    <g clip-path="url(#pba483656b5)">
     <use xlink:href="#m59f9f90cc9" x="103.585615" y="212.311072" style="fill: #ffffff; stroke: #000000"/>
    </g>
   </g>
   <g id="PathCollection_39">
    <g clip-path="url(#pba483656b5)">
     <use xlink:href="#m59f9f90cc9" x="117.254533" y="244.833189" style="fill: #ffffff; stroke: #000000"/>
    </g>
   </g>
   <g id="PathCollection_40">
    <g clip-path="url(#pba483656b5)">
     <use xlink:href="#m59f9f90cc9" x="120.552914" y="234.096912" style="fill: #ffffff; stroke: #000000"/>
    </g>
   </g>
   <g id="PathCollection_41">
    <g clip-path="url(#pba483656b5)">
     <use xlink:href="#m59f9f90cc9" x="112.338212" y="203.852484" style="fill: #ffffff; stroke: #000000"/>
    </g>
   </g>
   <g id="PathCollection_42">
    <g clip-path="url(#pba483656b5)">
     <use xlink:href="#m59f9f90cc9" x="141.802885" y="232.405106" style="fill: #ffffff; stroke: #000000"/>
    </g>
   </g>
   <g id="PathCollection_43">
    <g clip-path="url(#pba483656b5)">
     <use xlink:href="#m59f9f90cc9" x="126.289188" y="252.696952" style="fill: #ffffff; stroke: #000000"/>
    </g>
   </g>
   <g id="PathCollection_44">
    <g clip-path="url(#pba483656b5)">
     <use xlink:href="#m59f9f90cc9" x="108.766056" y="238.442677" style="fill: #ffffff; stroke: #000000"/>
    </g>
   </g>
   <g id="PathCollection_45">
    <g clip-path="url(#pba483656b5)">
     <use xlink:href="#m59f9f90cc9" x="105.867047" y="260.345455" style="fill: #ffffff; stroke: #000000"/>
    </g>
   </g>
   <g id="PathCollection_46">
    <g clip-path="url(#pba483656b5)">
     <use xlink:href="#m59f9f90cc9" x="116.845668" y="257.663088" style="fill: #ffffff; stroke: #000000"/>
    </g>
   </g>
   <g id="PathCollection_47">
    <g clip-path="url(#pba483656b5)">
     <use xlink:href="#m59f9f90cc9" x="133.624871" y="197.48282" style="fill: #ffffff; stroke: #000000"/>
    </g>
   </g>
   <g id="matplotlib.axis_1">
    <g id="xtick_1"/>
    <g id="xtick_2"/>
    <g id="xtick_3"/>
    <g id="xtick_4"/>
    <g id="xtick_5"/>
   </g>
   <g id="matplotlib.axis_2">
    <g id="ytick_1"/>
    <g id="ytick_2"/>
    <g id="ytick_3"/>
    <g id="ytick_4"/>
    <g id="ytick_5"/>
    <g id="ytick_6"/>
    <g id="ytick_7"/>
   </g>
   <g id="patch_3">
    <path d="M 7.2 284.4 
L 7.2 7.2 
" style="fill: none; stroke: #000000; stroke-width: 0.8; stroke-linejoin: miter; stroke-linecap: square"/>
   </g>
   <g id="patch_4">
    <path d="M 286.2 284.4 
L 286.2 7.2 
" style="fill: none; stroke: #000000; stroke-width: 0.8; stroke-linejoin: miter; stroke-linecap: square"/>
   </g>
   <g id="patch_5">
    <path d="M 7.2 284.4 
L 286.2 284.4 
" style="fill: none; stroke: #000000; stroke-width: 0.8; stroke-linejoin: miter; stroke-linecap: square"/>
   </g>
   <g id="patch_6">
    <path d="M 7.2 7.2 
L 286.2 7.2 
" style="fill: none; stroke: #000000; stroke-width: 0.8; stroke-linejoin: miter; stroke-linecap: square"/>
   </g>
  </g>
 </g>
 <defs>
  <clipPath id="pba483656b5">
   <rect x="7.2" y="7.2" width="279" height="277.2"/>
  </clipPath>
 </defs>
</svg>
