<?xml version="1.0" encoding="utf-8" standalone="no"?>
<!DOCTYPE svg PUBLIC "-//W3C//DTD SVG 1.1//EN"
  "http://www.w3.org/Graphics/SVG/1.1/DTD/svg11.dtd">
<svg xmlns:xlink="http://www.w3.org/1999/xlink" width="684pt" height="457.92pt" viewBox="0 0 684 457.92" xmlns="http://www.w3.org/2000/svg" version="1.1">
 <metadata>
  <rdf:RDF xmlns:dc="http://purl.org/dc/elements/1.1/" xmlns:cc="http://creativecommons.org/ns#" xmlns:rdf="http://www.w3.org/1999/02/22-rdf-syntax-ns#">
   <cc:Work>
    <dc:type rdf:resource="http://purl.org/dc/dcmitype/StillImage"/>
    <dc:date>2024-07-01T21:49:25.712935</dc:date>
    <dc:format>image/svg+xml</dc:format>
    <dc:creator>
     <cc:Agent>
      <dc:title>Matplotlib v3.9.0, https://matplotlib.org/</dc:title>
     </cc:Agent>
    </dc:creator>
   </cc:Work>
  </rdf:RDF>
 </metadata>
 <defs>
  <style type="text/css">*{stroke-linejoin: round; stroke-linecap: butt}</style>
 </defs>
 <g id="figure_1">
  <g id="patch_1">
   <path d="M 0 457.92 
L 684 457.92 
L 684 0 
L 0 0 
L 0 457.92 
z
" style="fill: none"/>
  </g>
  <g id="axes_1">
   <g id="line2d_1">
    <path d="M 192.911252 64.532393 
L 248.062516 99.936859 
" clip-path="url(#pe9c6b83685)" style="fill: none; stroke: #000000; stroke-width: 2.092504; stroke-linecap: square"/>
   </g>
   <g id="line2d_2">
    <path d="M 248.062516 99.936859 
L 332.983275 95.99252 
" clip-path="url(#pe9c6b83685)" style="fill: none; stroke: #000000; stroke-width: 2.62005; stroke-linecap: square"/>
   </g>
   <g id="line2d_3">
    <path d="M 248.062516 99.936859 
L 163.537314 97.042766 
" clip-path="url(#pe9c6b83685)" style="fill: none; stroke: #000000; stroke-width: 2.383111; stroke-linecap: square"/>
   </g>
   <g id="line2d_4">
    <path d="M 319.086267 384.915628 
L 268.350996 412.232727 
" clip-path="url(#pe9c6b83685)" style="fill: none; stroke: #000000; stroke-width: 2.821647; stroke-linecap: square"/>
   </g>
   <g id="line2d_5">
    <path d="M 462.648536 345.690414 
L 404.825612 354.049816 
" clip-path="url(#pe9c6b83685)" style="fill: none; stroke: #000000; stroke-width: 2.280288; stroke-linecap: square"/>
   </g>
   <g id="line2d_6">
    <path d="M 404.825612 354.049816 
L 394.221129 410.180071 
" clip-path="url(#pe9c6b83685)" style="fill: none; stroke: #000000; stroke-width: 4.410213; stroke-linecap: square"/>
   </g>
   <g id="line2d_7">
    <path d="M 446.918963 134.419571 
L 467.45862 217.459233 
" clip-path="url(#pe9c6b83685)" style="fill: none; stroke: #000000; stroke-width: 2.38719; stroke-linecap: square"/>
   </g>
   <g id="line2d_8">
    <path d="M 446.918963 134.419571 
L 404.848035 63.540789 
" clip-path="url(#pe9c6b83685)" style="fill: none; stroke: #000000; stroke-width: 3.075761; stroke-linecap: square"/>
   </g>
   <g id="line2d_9">
    <path d="M 467.45862 217.459233 
L 505.968103 277.568264 
" clip-path="url(#pe9c6b83685)" style="fill: none; stroke: #000000; stroke-width: 6.164799; stroke-linecap: square"/>
   </g>
   <g id="line2d_10">
    <path d="M 404.848035 63.540789 
L 313.920395 45.687273 
" clip-path="url(#pe9c6b83685)" style="fill: none; stroke: #000000; stroke-width: 3.71361; stroke-linecap: square"/>
   </g>
   <g id="line2d_11">
    <path d="M 567.268294 274.785566 
L 618.694215 300.31073 
" clip-path="url(#pe9c6b83685)" style="fill: none; stroke: #000000; stroke-width: 2.28985; stroke-linecap: square"/>
   </g>
   <g id="line2d_12">
    <path d="M 618.694215 300.31073 
L 586.132491 233.97775 
" clip-path="url(#pe9c6b83685)" style="fill: none; stroke: #000000; stroke-width: 2.211982; stroke-linecap: square"/>
   </g>
   <g id="line2d_13">
    <path d="M 618.694215 300.31073 
L 570.445774 356.920024 
" clip-path="url(#pe9c6b83685)" style="fill: none; stroke: #000000; stroke-width: 2.10878; stroke-linecap: square"/>
   </g>
   <g id="line2d_14">
    <path d="M 596.382024 151.276036 
L 562.758791 119.60913 
" clip-path="url(#pe9c6b83685)" style="fill: none; stroke: #000000; stroke-width: 7.404057; stroke-linecap: square"/>
   </g>
   <g id="line2d_15">
    <path d="M 119.039011 269.401807 
L 137.79332 224.440507 
" clip-path="url(#pe9c6b83685)" style="fill: none; stroke: #000000; stroke-width: 3.724148; stroke-linecap: square"/>
   </g>
   <g id="line2d_16">
    <path d="M 137.79332 224.440507 
L 65.305785 219.199428 
" clip-path="url(#pe9c6b83685)" style="fill: none; stroke: #000000; stroke-width: 2.524501; stroke-linecap: square"/>
   </g>
   <g id="line2d_17">
    <path d="M 216.832169 207.663024 
L 190.522379 265.233843 
" clip-path="url(#pe9c6b83685)" style="fill: none; stroke: #000000; stroke-width: 2.365371; stroke-linecap: square"/>
   </g>
   <g id="line2d_18">
    <path d="M 190.522379 265.233843 
L 188.622452 313.177698 
" clip-path="url(#pe9c6b83685)" style="fill: none; stroke: #000000; stroke-width: 2.003395; stroke-linecap: square"/>
   </g>
   <g id="LineCollection_1">
    <path d="M 192.911252 64.532393 
L 248.062516 99.936859 
" clip-path="url(#pe9c6b83685)" style="fill: none"/>
    <path d="M 248.062516 99.936859 
L 332.983275 95.99252 
" clip-path="url(#pe9c6b83685)" style="fill: none"/>
    <path d="M 248.062516 99.936859 
L 163.537314 97.042766 
" clip-path="url(#pe9c6b83685)" style="fill: none"/>
    <path d="M 319.086267 384.915628 
L 268.350996 412.232727 
" clip-path="url(#pe9c6b83685)" style="fill: none"/>
    <path d="M 462.648536 345.690414 
L 404.825612 354.049816 
" clip-path="url(#pe9c6b83685)" style="fill: none"/>
    <path d="M 404.825612 354.049816 
L 394.221129 410.180071 
" clip-path="url(#pe9c6b83685)" style="fill: none"/>
    <path d="M 446.918963 134.419571 
L 467.45862 217.459233 
" clip-path="url(#pe9c6b83685)" style="fill: none"/>
    <path d="M 446.918963 134.419571 
L 404.848035 63.540789 
" clip-path="url(#pe9c6b83685)" style="fill: none"/>
    <path d="M 467.45862 217.459233 
L 505.968103 277.568264 
" clip-path="url(#pe9c6b83685)" style="fill: none"/>
    <path d="M 404.848035 63.540789 
L 313.920395 45.687273 
" clip-path="url(#pe9c6b83685)" style="fill: none"/>
    <path d="M 567.268294 274.785566 
L 618.694215 300.31073 
" clip-path="url(#pe9c6b83685)" style="fill: none"/>
    <path d="M 618.694215 300.31073 
L 586.132491 233.97775 
" clip-path="url(#pe9c6b83685)" style="fill: none"/>
    <path d="M 618.694215 300.31073 
L 570.445774 356.920024 
" clip-path="url(#pe9c6b83685)" style="fill: none"/>
    <path d="M 596.382024 151.276036 
L 562.758791 119.60913 
" clip-path="url(#pe9c6b83685)" style="fill: none"/>
    <path d="M 119.039011 269.401807 
L 137.79332 224.440507 
" clip-path="url(#pe9c6b83685)" style="fill: none"/>
    <path d="M 137.79332 224.440507 
L 65.305785 219.199428 
" clip-path="url(#pe9c6b83685)" style="fill: none"/>
    <path d="M 216.832169 207.663024 
L 190.522379 265.233843 
" clip-path="url(#pe9c6b83685)" style="fill: none"/>
    <path d="M 190.522379 265.233843 
L 188.622452 313.177698 
" clip-path="url(#pe9c6b83685)" style="fill: none"/>
   </g>
   <g id="text_1">
    <g id="patch_2">
     <path d="M 180.087659 79.907643 
L 205.734846 79.907643 
Q 211.234846 79.907643 211.234846 74.407643 
L 211.234846 54.657143 
Q 211.234846 49.157143 205.734846 49.157143 
L 180.087659 49.157143 
Q 174.587659 49.157143 174.587659 54.657143 
L 174.587659 74.407643 
Q 174.587659 79.907643 180.087659 79.907643 
z
" style="fill: #ffffff; stroke: #000000; stroke-linejoin: miter"/>
    </g>
    <text style="font: 11px 'Aptos'" transform="translate(182.558362 61.886206)">Civil</text>
    <text style="font: 11px 'Aptos'" transform="translate(180.087659 72.484362)">Code</text>
   </g>
   <g id="text_2">
    <g id="patch_3">
     <path d="M 224.468375 115.312109 
L 271.656657 115.312109 
Q 277.156657 115.312109 277.156657 109.812109 
L 277.156657 90.061609 
Q 277.156657 84.561609 271.656657 84.561609 
L 224.468375 84.561609 
Q 218.968375 84.561609 218.968375 90.061609 
L 218.968375 109.812109 
Q 218.968375 115.312109 224.468375 115.312109 
z
" style="fill: #ffffff; stroke: #000000; stroke-linejoin: miter"/>
    </g>
    <text style="font: 11px 'Aptos'" transform="translate(230.219313 97.290672)">Judicial</text>
    <text style="font: 11px 'Aptos'" transform="translate(224.468375 107.888828)">Decisions</text>
   </g>
   <g id="text_3">
    <g id="patch_4">
     <path d="M 300.719705 394.9918 
L 337.45283 394.9918 
Q 342.95283 394.9918 342.95283 389.4918 
L 342.95283 380.339457 
Q 342.95283 374.839457 337.45283 374.839457 
L 300.719705 374.839457 
Q 295.219705 374.839457 295.219705 380.339457 
L 295.219705 389.4918 
Q 295.219705 394.9918 300.719705 394.9918 
z
" style="fill: #ffffff; stroke: #000000; stroke-linejoin: miter"/>
    </g>
    <text style="font: 11px 'Aptos'; text-anchor: middle" x="319.086267" y="387.568519" transform="rotate(-0 319.086267 387.568519)">Permits</text>
   </g>
   <g id="text_4">
    <g id="patch_5">
     <path d="M 254.721308 427.607977 
L 281.980683 427.607977 
Q 287.480683 427.607977 287.480683 422.107977 
L 287.480683 402.357477 
Q 287.480683 396.857477 281.980683 396.857477 
L 254.721308 396.857477 
Q 249.221308 396.857477 249.221308 402.357477 
L 249.221308 422.107977 
Q 249.221308 427.607977 254.721308 427.607977 
z
" style="fill: #ffffff; stroke: #000000; stroke-linejoin: miter"/>
    </g>
    <text style="font: 11px 'Aptos'" transform="translate(254.721308 409.58654)">Labor</text>
    <text style="font: 11px 'Aptos'" transform="translate(256.816464 420.184696)">Time</text>
   </g>
   <g id="text_5">
    <g id="patch_6">
     <path d="M 438.119396 366.364742 
L 487.177677 366.364742 
Q 492.677677 366.364742 492.677677 360.864742 
L 492.677677 330.516086 
Q 492.677677 325.016086 487.177677 325.016086 
L 438.119396 325.016086 
Q 432.619396 325.016086 432.619396 330.516086 
L 432.619396 360.864742 
Q 432.619396 366.364742 438.119396 366.364742 
z
" style="fill: #ffffff; stroke: #000000; stroke-linejoin: miter"/>
    </g>
    <text style="font: 11px 'Aptos'" transform="translate(438.468302 337.745148)">Education</text>
    <text style="font: 11px 'Aptos'" transform="translate(453.291661 348.343304)">And</text>
    <text style="font: 11px 'Aptos'" transform="translate(438.119396 358.941461)">Formation</text>
   </g>
   <g id="text_6">
    <g id="patch_7">
     <path d="M 379.529908 369.47405 
L 430.121315 369.47405 
Q 435.621315 369.47405 435.621315 363.97405 
L 435.621315 344.125581 
Q 435.621315 338.625581 430.121315 338.625581 
L 379.529908 338.625581 
Q 374.029908 338.625581 374.029908 344.125581 
L 374.029908 363.97405 
Q 374.029908 369.47405 379.529908 369.47405 
z
" style="fill: #ffffff; stroke: #000000; stroke-linejoin: miter"/>
    </g>
    <text style="font: 11px 'Aptos'" transform="translate(379.529908 351.452612)">Secondary</text>
    <text style="font: 11px 'Aptos'" transform="translate(380.645377 362.050769)">Education</text>
   </g>
   <g id="text_7">
    <g id="patch_8">
     <path d="M 416.474744 149.794821 
L 477.363182 149.794821 
Q 482.863182 149.794821 482.863182 144.294821 
L 482.863182 124.544321 
Q 482.863182 119.044321 477.363182 119.044321 
L 416.474744 119.044321 
Q 410.974744 119.044321 410.974744 124.544321 
L 410.974744 144.294821 
Q 410.974744 149.794821 416.474744 149.794821 
z
" style="fill: #ffffff; stroke: #000000; stroke-linejoin: miter"/>
    </g>
    <text style="font: 11px 'Aptos'" transform="translate(416.474744 131.773384)">International</text>
    <text style="font: 11px 'Aptos'" transform="translate(427.978338 142.37154)">Conflict</text>
   </g>
   <g id="text_8">
    <g id="patch_9">
     <path d="M 433.200495 232.834483 
L 501.716745 232.834483 
Q 507.216745 232.834483 507.216745 227.334483 
L 507.216745 207.583983 
Q 507.216745 202.083983 501.716745 202.083983 
L 433.200495 202.083983 
Q 427.700495 202.083983 427.700495 207.583983 
L 427.700495 227.334483 
Q 427.700495 232.834483 433.200495 232.834483 
z
" style="fill: #ffffff; stroke: #000000; stroke-linejoin: miter"/>
    </g>
    <text style="font: 11px 'Aptos'" transform="translate(441.008776 214.813046)">Indonesian</text>
    <text style="font: 11px 'Aptos'" transform="translate(433.200495 225.411202)">Independence</text>
   </g>
   <g id="text_9">
    <g id="patch_10">
     <path d="M 385.020535 73.61696 
L 424.675535 73.61696 
Q 430.175535 73.61696 430.175535 68.11696 
L 430.175535 58.964617 
Q 430.175535 53.464617 424.675535 53.464617 
L 385.020535 53.464617 
Q 379.520535 53.464617 379.520535 58.964617 
L 379.520535 68.11696 
Q 379.520535 73.61696 385.020535 73.61696 
z
" style="fill: #ffffff; stroke: #000000; stroke-linejoin: miter"/>
    </g>
    <text style="font: 11px 'Aptos'; text-anchor: middle" x="404.848035" y="66.193679" transform="rotate(-0 404.848035 66.193679)">Defense</text>
   </g>
   <g id="text_10">
    <g id="patch_11">
     <path d="M 471.96951 292.943514 
L 539.966697 292.943514 
Q 545.466697 292.943514 545.466697 287.443514 
L 545.466697 267.693014 
Q 545.466697 262.193014 539.966697 262.193014 
L 471.96951 262.193014 
Q 466.46951 262.193014 466.46951 267.693014 
L 466.46951 287.443514 
Q 466.46951 292.943514 471.96951 292.943514 
z
" style="fill: #ffffff; stroke: #000000; stroke-linejoin: miter"/>
    </g>
    <text style="font: 11px 'Aptos'" transform="translate(471.96951 274.922077)">Constitutional</text>
    <text style="font: 11px 'Aptos'" transform="translate(488.515057 285.520233)">Reform</text>
   </g>
   <g id="text_11">
    <g id="patch_12">
     <path d="M 539.725325 295.459894 
L 594.811263 295.459894 
Q 600.311263 295.459894 600.311263 289.959894 
L 600.311263 259.611238 
Q 600.311263 254.111238 594.811263 254.111238 
L 539.725325 254.111238 
Q 534.225325 254.111238 534.225325 259.611238 
L 534.225325 289.959894 
Q 534.225325 295.459894 539.725325 295.459894 
z
" style="fill: #ffffff; stroke: #000000; stroke-linejoin: miter"/>
    </g>
    <text style="font: 11px 'Aptos'" transform="translate(547.201888 266.8403)">Taxation</text>
    <text style="font: 11px 'Aptos'" transform="translate(557.911419 277.438456)">And</text>
    <text style="font: 11px 'Aptos'" transform="translate(539.725325 288.036613)">Deductions</text>
   </g>
   <g id="text_12">
    <g id="patch_13">
     <path d="M 601.876246 310.437605 
L 635.512184 310.437605 
Q 641.012184 310.437605 641.012184 304.937605 
L 641.012184 295.683855 
Q 641.012184 290.183855 635.512184 290.183855 
L 601.876246 290.183855 
Q 596.376246 290.183855 596.376246 295.683855 
L 596.376246 304.937605 
Q 596.376246 310.437605 601.876246 310.437605 
z
" style="fill: #ffffff; stroke: #000000; stroke-linejoin: miter"/>
    </g>
    <text style="font: 11px 'Aptos'; text-anchor: middle" x="618.694215" y="302.912918" transform="rotate(-0 618.694215 302.912918)">Budget</text>
   </g>
   <g id="text_13">
    <g id="patch_14">
     <path d="M 576.705774 166.718489 
L 616.058274 166.718489 
Q 621.558274 166.718489 621.558274 161.218489 
L 621.558274 141.434989 
Q 621.558274 135.934989 616.058274 135.934989 
L 576.705774 135.934989 
Q 571.205774 135.934989 571.205774 141.434989 
L 571.205774 161.218489 
Q 571.205774 166.718489 576.705774 166.718489 
z
" style="fill: #ffffff; stroke: #000000; stroke-linejoin: miter"/>
    </g>
    <text style="font: 11px 'Aptos'" transform="translate(581.417727 148.562645)">Public</text>
    <text style="font: 11px 'Aptos'" transform="translate(576.705774 159.193801)">Housing</text>
   </g>
   <g id="text_14">
    <g id="patch_15">
     <path d="M 549.046604 129.685302 
L 576.470979 129.685302 
Q 581.970979 129.685302 581.970979 124.185302 
L 581.970979 115.032958 
Q 581.970979 109.532958 576.470979 109.532958 
L 549.046604 109.532958 
Q 543.546604 109.532958 543.546604 115.032958 
L 543.546604 124.185302 
Q 543.546604 129.685302 549.046604 129.685302 
z
" style="fill: #ffffff; stroke: #000000; stroke-linejoin: miter"/>
    </g>
    <text style="font: 11px 'Aptos'; text-anchor: middle" x="562.758791" y="122.26202" transform="rotate(-0 562.758791 122.26202)">Rents</text>
   </g>
   <g id="text_15">
    <g id="patch_16">
     <path d="M 283.091176 55.812429 
L 344.749614 55.812429 
Q 350.249614 55.812429 350.249614 50.312429 
L 350.249614 41.062116 
Q 350.249614 35.562116 344.749614 35.562116 
L 283.091176 35.562116 
Q 277.591176 35.562116 277.591176 41.062116 
L 277.591176 50.312429 
Q 277.591176 55.812429 283.091176 55.812429 
z
" style="fill: #ffffff; stroke: #000000; stroke-linejoin: miter"/>
    </g>
    <text style="font: 11px 'Aptos'; text-anchor: middle" x="313.920395" y="48.389148" transform="rotate(-0 313.920395 48.389148)">Conscription</text>
   </g>
   <g id="text_16">
    <g id="patch_17">
     <path d="M 370.040894 425.604305 
L 418.401363 425.604305 
Q 423.901363 425.604305 423.901363 420.104305 
L 423.901363 400.255837 
Q 423.901363 394.755837 418.401363 394.755837 
L 370.040894 394.755837 
Q 364.540894 394.755837 364.540894 400.255837 
L 364.540894 420.104305 
Q 364.540894 425.604305 370.040894 425.604305 
z
" style="fill: #ffffff; stroke: #000000; stroke-linejoin: miter"/>
    </g>
    <text style="font: 11px 'Aptos'" transform="translate(376.571285 407.582868)">Special</text>
    <text style="font: 11px 'Aptos'" transform="translate(370.040894 418.181024)">Education</text>
   </g>
   <g id="text_17">
    <g id="patch_18">
     <path d="M 315.109135 111.36777 
L 350.857416 111.36777 
Q 356.357416 111.36777 356.357416 105.86777 
L 356.357416 86.11727 
Q 356.357416 80.61727 350.857416 80.61727 
L 315.109135 80.61727 
Q 309.609135 80.61727 309.609135 86.11727 
L 309.609135 105.86777 
Q 309.609135 111.36777 315.109135 111.36777 
z
" style="fill: #ffffff; stroke: #000000; stroke-linejoin: miter"/>
    </g>
    <text style="font: 11px 'Aptos'" transform="translate(323.315306 93.346333)">War</text>
    <text style="font: 11px 'Aptos'" transform="translate(315.109135 103.944489)">Victims</text>
   </g>
   <g id="text_18">
    <g id="patch_19">
     <path d="M 562.730851 249.36675 
L 609.534132 249.36675 
Q 615.034132 249.36675 615.034132 243.86675 
L 615.034132 224.08875 
Q 615.034132 218.58875 609.534132 218.58875 
L 562.730851 218.58875 
Q 557.230851 218.58875 557.230851 224.08875 
L 557.230851 243.86675 
Q 557.230851 249.36675 562.730851 249.36675 
z
" style="fill: #ffffff; stroke: #000000; stroke-linejoin: miter"/>
    </g>
    <text style="font: 11px 'Aptos'" transform="translate(562.730851 231.345312)">Municipal</text>
    <text style="font: 11px 'Aptos'" transform="translate(567.165226 241.943468)">Finance</text>
   </g>
   <g id="text_19">
    <g id="patch_20">
     <path d="M 552.118743 372.295274 
L 588.772805 372.295274 
Q 594.272805 372.295274 594.272805 366.795274 
L 594.272805 347.044774 
Q 594.272805 341.544774 588.772805 341.544774 
L 552.118743 341.544774 
Q 546.618743 341.544774 546.618743 347.044774 
L 546.618743 366.795274 
Q 546.618743 372.295274 552.118743 372.295274 
z
" style="fill: #ffffff; stroke: #000000; stroke-linejoin: miter"/>
    </g>
    <text style="font: 11px 'Aptos'" transform="translate(552.118743 354.273837)">Interest</text>
    <text style="font: 11px 'Aptos'" transform="translate(556.843586 364.871993)">Rates</text>
   </g>
   <g id="text_20">
    <g id="patch_21">
     <path d="M 90.206121 295.375214 
L 147.871902 295.375214 
Q 153.371902 295.375214 153.371902 289.875214 
L 153.371902 248.928401 
Q 153.371902 243.428401 147.871902 243.428401 
L 90.206121 243.428401 
Q 84.706121 243.428401 84.706121 248.928401 
L 84.706121 289.875214 
Q 84.706121 295.375214 90.206121 295.375214 
z
" style="fill: #ffffff; stroke: #000000; stroke-linejoin: miter"/>
    </g>
    <text style="font: 11px 'Aptos'" transform="translate(97.721355 256.157464)">Farmers,</text>
    <text style="font: 11px 'Aptos'" transform="translate(90.206121 266.75562)">Horticulture</text>
    <text style="font: 11px 'Aptos'" transform="translate(109.682136 277.353776)">And</text>
    <text style="font: 11px 'Aptos'" transform="translate(97.517683 287.951932)">Fisheries</text>
   </g>
   <g id="text_21">
    <g id="patch_22">
     <path d="M 110.19707 250.478366 
L 165.38957 250.478366 
Q 170.88957 250.478366 170.88957 244.978366 
L 170.88957 203.801241 
Q 170.88957 198.301241 165.38957 198.301241 
L 110.19707 198.301241 
Q 104.69707 198.301241 104.69707 203.801241 
L 104.69707 244.978366 
Q 104.69707 250.478366 110.19707 250.478366 
z
" style="fill: #ffffff; stroke: #000000; stroke-linejoin: miter"/>
    </g>
    <text style="font: 11px 'Aptos'" transform="translate(110.19707 211.15921)">Agricultural</text>
    <text style="font: 11px 'Aptos'" transform="translate(123.009492 221.858773)">Prices</text>
    <text style="font: 11px 'Aptos'" transform="translate(128.436445 232.456929)">And</text>
    <text style="font: 11px 'Aptos'" transform="translate(119.89168 243.055085)">Exports</text>
   </g>
   <g id="text_22">
    <g id="patch_23">
     <path d="M 189.113028 217.739196 
L 244.55131 217.739196 
Q 250.05131 217.739196 250.05131 212.239196 
L 250.05131 203.086852 
Q 250.05131 197.586852 244.55131 197.586852 
L 189.113028 197.586852 
Q 183.613028 197.586852 183.613028 203.086852 
L 183.613028 212.239196 
Q 183.613028 217.739196 189.113028 217.739196 
z
" style="fill: #ffffff; stroke: #000000; stroke-linejoin: miter"/>
    </g>
    <text style="font: 11px 'Aptos'; text-anchor: middle" x="216.832169" y="210.315914" transform="rotate(-0 216.832169 210.315914)">Consumers</text>
   </g>
   <g id="text_23">
    <g id="patch_24">
     <path d="M 155.781285 275.359 
L 225.263473 275.359 
Q 230.763473 275.359 230.763473 269.859 
L 230.763473 260.608687 
Q 230.763473 255.108687 225.263473 255.108687 
L 155.781285 255.108687 
Q 150.281285 255.108687 150.281285 260.608687 
L 150.281285 269.859 
Q 150.281285 275.359 155.781285 275.359 
z
" style="fill: #ffffff; stroke: #000000; stroke-linejoin: miter"/>
    </g>
    <text style="font: 11px 'Aptos'; text-anchor: middle" x="190.522379" y="267.935718" transform="rotate(-0 190.522379 267.935718)">Self-Employed</text>
   </g>
   <g id="text_24">
    <g id="patch_25">
     <path d="M 42.054535 234.574678 
L 88.557035 234.574678 
Q 94.057035 234.574678 94.057035 229.074678 
L 94.057035 209.324178 
Q 94.057035 203.824178 88.557035 203.824178 
L 42.054535 203.824178 
Q 36.554535 203.824178 36.554535 209.324178 
L 36.554535 229.074678 
Q 36.554535 234.574678 42.054535 234.574678 
z
" style="fill: #ffffff; stroke: #000000; stroke-linejoin: miter"/>
    </g>
    <text style="font: 11px 'Aptos'" transform="translate(53.284848 216.55324)">Tariff</text>
    <text style="font: 11px 'Aptos'" transform="translate(42.054535 227.151397)">Increases</text>
   </g>
   <g id="text_25">
    <g id="patch_26">
     <path d="M 134.864267 117.767797 
L 192.210361 117.767797 
Q 197.710361 117.767797 197.710361 112.267797 
L 197.710361 81.716328 
Q 197.710361 76.216328 192.210361 76.216328 
L 134.864267 76.216328 
Q 129.364267 76.216328 129.364267 81.716328 
L 129.364267 112.267797 
Q 129.364267 117.767797 134.864267 117.767797 
z
" style="fill: #ffffff; stroke: #000000; stroke-linejoin: miter"/>
    </g>
    <text style="font: 11px 'Aptos'" transform="translate(143.666845 89.046797)">Damage</text>
    <text style="font: 11px 'Aptos'" transform="translate(154.180439 99.74636)">And</text>
    <text style="font: 11px 'Aptos'" transform="translate(134.864267 110.344516)">Restitutions</text>
   </g>
   <g id="text_26">
    <g id="patch_27">
     <path d="M 171.230421 333.852026 
L 206.014483 333.852026 
Q 211.514483 333.852026 211.514483 328.352026 
L 211.514483 298.00337 
Q 211.514483 292.50337 206.014483 292.50337 
L 171.230421 292.50337 
Q 165.730421 292.50337 165.730421 298.00337 
L 165.730421 328.352026 
Q 165.730421 333.852026 171.230421 333.852026 
z
" style="fill: #ffffff; stroke: #000000; stroke-linejoin: miter"/>
    </g>
    <text style="font: 11px 'Aptos'" transform="translate(173.996749 305.232432)">Banks</text>
    <text style="font: 11px 'Aptos'" transform="translate(179.265577 315.830588)">And</text>
    <text style="font: 11px 'Aptos'" transform="translate(171.230421 326.428745)">Credits</text>
   </g>
  </g>
 </g>
 <defs>
  <clipPath id="pe9c6b83685">
   <rect x="7.2" y="7.2" width="669.6" height="443.52"/>
  </clipPath>
 </defs>
</svg>
