<?xml version="1.0" encoding="utf-8" standalone="no"?>
<!DOCTYPE svg PUBLIC "-//W3C//DTD SVG 1.1//EN"
  "http://www.w3.org/Graphics/SVG/1.1/DTD/svg11.dtd">
<svg xmlns:xlink="http://www.w3.org/1999/xlink" width="293.4pt" height="291.6pt" viewBox="0 0 293.4 291.6" xmlns="http://www.w3.org/2000/svg" version="1.1">
 <metadata>
  <rdf:RDF xmlns:dc="http://purl.org/dc/elements/1.1/" xmlns:cc="http://creativecommons.org/ns#" xmlns:rdf="http://www.w3.org/1999/02/22-rdf-syntax-ns#">
   <cc:Work>
    <dc:type rdf:resource="http://purl.org/dc/dcmitype/StillImage"/>
    <dc:date>2024-06-30T21:18:57.300439</dc:date>
    <dc:format>image/svg+xml</dc:format>
    <dc:creator>
     <cc:Agent>
      <dc:title>Matplotlib v3.9.0, https://matplotlib.org/</dc:title>
     </cc:Agent>
    </dc:creator>
   </cc:Work>
  </rdf:RDF>
 </metadata>
 <defs>
  <style type="text/css">*{stroke-linejoin: round; stroke-linecap: butt}</style>
 </defs>
 <g id="figure_1">
  <g id="patch_1">
   <path d="M 0 291.6 
L 293.4 291.6 
L 293.4 0 
L 0 0 
L 0 291.6 
z
" style="fill: none"/>
  </g>
  <g id="axes_1">
   <g id="patch_2">
    <path d="M 7.2 284.4 
L 286.2 284.4 
L 286.2 7.2 
L 7.2 7.2 
L 7.2 284.4 
z
" style="fill: none"/>
   </g>
   <g id="LineCollection_1">
    <path d="M 31.410744 64.115061 
L 40.564995 54.376747 
" clip-path="url(#pc8a91cea03)" style="fill: none; stroke: #a9a9a9"/>
    <path d="M 31.410744 64.115061 
L 50.865338 58.412836 
" clip-path="url(#pc8a91cea03)" style="fill: none; stroke: #a9a9a9"/>
    <path d="M 31.410744 64.115061 
L 38.065914 76.143467 
" clip-path="url(#pc8a91cea03)" style="fill: none; stroke: #a9a9a9"/>
    <path d="M 31.410744 64.115061 
L 51.131476 73.328093 
" clip-path="url(#pc8a91cea03)" style="fill: none; stroke: #a9a9a9"/>
    <path d="M 31.410744 64.115061 
L 44.097104 86.060561 
" clip-path="url(#pc8a91cea03)" style="fill: none; stroke: #a9a9a9"/>
    <path d="M 31.410744 64.115061 
L 48.516681 45.630254 
" clip-path="url(#pc8a91cea03)" style="fill: none; stroke: #a9a9a9"/>
    <path d="M 31.410744 64.115061 
L 71.578461 101.053467 
" clip-path="url(#pc8a91cea03)" style="fill: none; stroke: #a9a9a9"/>
    <path d="M 31.410744 64.115061 
L 64.930918 58.198179 
" clip-path="url(#pc8a91cea03)" style="fill: none; stroke: #a9a9a9"/>
    <path d="M 31.410744 64.115061 
L 42.979108 67.18057 
" clip-path="url(#pc8a91cea03)" style="fill: none; stroke: #a9a9a9"/>
    <path d="M 40.564995 54.376747 
L 50.865338 58.412836 
" clip-path="url(#pc8a91cea03)" style="fill: none; stroke: #a9a9a9"/>
    <path d="M 40.564995 54.376747 
L 70.884015 67.710908 
" clip-path="url(#pc8a91cea03)" style="fill: none; stroke: #a9a9a9"/>
    <path d="M 40.564995 54.376747 
L 38.065914 76.143467 
" clip-path="url(#pc8a91cea03)" style="fill: none; stroke: #a9a9a9"/>
    <path d="M 40.564995 54.376747 
L 51.131476 73.328093 
" clip-path="url(#pc8a91cea03)" style="fill: none; stroke: #a9a9a9"/>
    <path d="M 40.564995 54.376747 
L 44.097104 86.060561 
" clip-path="url(#pc8a91cea03)" style="fill: none; stroke: #a9a9a9"/>
    <path d="M 40.564995 54.376747 
L 48.516681 45.630254 
" clip-path="url(#pc8a91cea03)" style="fill: none; stroke: #a9a9a9"/>
    <path d="M 40.564995 54.376747 
L 71.578461 101.053467 
" clip-path="url(#pc8a91cea03)" style="fill: none; stroke: #a9a9a9"/>
    <path d="M 40.564995 54.376747 
L 64.930918 58.198179 
" clip-path="url(#pc8a91cea03)" style="fill: none; stroke: #a9a9a9"/>
    <path d="M 40.564995 54.376747 
L 42.979108 67.18057 
" clip-path="url(#pc8a91cea03)" style="fill: none; stroke: #a9a9a9"/>
    <path d="M 50.865338 58.412836 
L 70.884015 67.710908 
" clip-path="url(#pc8a91cea03)" style="fill: none; stroke: #a9a9a9"/>
    <path d="M 50.865338 58.412836 
L 38.065914 76.143467 
" clip-path="url(#pc8a91cea03)" style="fill: none; stroke: #a9a9a9"/>
    <path d="M 50.865338 58.412836 
L 51.131476 73.328093 
" clip-path="url(#pc8a91cea03)" style="fill: none; stroke: #a9a9a9"/>
    <path d="M 50.865338 58.412836 
L 44.097104 86.060561 
" clip-path="url(#pc8a91cea03)" style="fill: none; stroke: #a9a9a9"/>
    <path d="M 50.865338 58.412836 
L 48.516681 45.630254 
" clip-path="url(#pc8a91cea03)" style="fill: none; stroke: #a9a9a9"/>
    <path d="M 50.865338 58.412836 
L 71.578461 101.053467 
" clip-path="url(#pc8a91cea03)" style="fill: none; stroke: #a9a9a9"/>
    <path d="M 50.865338 58.412836 
L 64.930918 58.198179 
" clip-path="url(#pc8a91cea03)" style="fill: none; stroke: #a9a9a9"/>
    <path d="M 50.865338 58.412836 
L 42.979108 67.18057 
" clip-path="url(#pc8a91cea03)" style="fill: none; stroke: #a9a9a9"/>
    <path d="M 70.884015 67.710908 
L 38.065914 76.143467 
" clip-path="url(#pc8a91cea03)" style="fill: none; stroke: #a9a9a9"/>
    <path d="M 70.884015 67.710908 
L 51.131476 73.328093 
" clip-path="url(#pc8a91cea03)" style="fill: none; stroke: #a9a9a9"/>
    <path d="M 70.884015 67.710908 
L 44.097104 86.060561 
" clip-path="url(#pc8a91cea03)" style="fill: none; stroke: #a9a9a9"/>
    <path d="M 70.884015 67.710908 
L 48.516681 45.630254 
" clip-path="url(#pc8a91cea03)" style="fill: none; stroke: #a9a9a9"/>
    <path d="M 70.884015 67.710908 
L 71.578461 101.053467 
" clip-path="url(#pc8a91cea03)" style="fill: none; stroke: #a9a9a9"/>
    <path d="M 70.884015 67.710908 
L 64.930918 58.198179 
" clip-path="url(#pc8a91cea03)" style="fill: none; stroke: #a9a9a9"/>
    <path d="M 70.884015 67.710908 
L 42.979108 67.18057 
" clip-path="url(#pc8a91cea03)" style="fill: none; stroke: #a9a9a9"/>
    <path d="M 70.884015 67.710908 
L 136.795007 72.980182 
" clip-path="url(#pc8a91cea03)" style="fill: none; stroke: #a9a9a9"/>
    <path d="M 38.065914 76.143467 
L 51.131476 73.328093 
" clip-path="url(#pc8a91cea03)" style="fill: none; stroke: #a9a9a9"/>
    <path d="M 38.065914 76.143467 
L 44.097104 86.060561 
" clip-path="url(#pc8a91cea03)" style="fill: none; stroke: #a9a9a9"/>
    <path d="M 38.065914 76.143467 
L 48.516681 45.630254 
" clip-path="url(#pc8a91cea03)" style="fill: none; stroke: #a9a9a9"/>
    <path d="M 38.065914 76.143467 
L 71.578461 101.053467 
" clip-path="url(#pc8a91cea03)" style="fill: none; stroke: #a9a9a9"/>
    <path d="M 38.065914 76.143467 
L 64.930918 58.198179 
" clip-path="url(#pc8a91cea03)" style="fill: none; stroke: #a9a9a9"/>
    <path d="M 38.065914 76.143467 
L 42.979108 67.18057 
" clip-path="url(#pc8a91cea03)" style="fill: none; stroke: #a9a9a9"/>
    <path d="M 51.131476 73.328093 
L 44.097104 86.060561 
" clip-path="url(#pc8a91cea03)" style="fill: none; stroke: #a9a9a9"/>
    <path d="M 51.131476 73.328093 
L 48.516681 45.630254 
" clip-path="url(#pc8a91cea03)" style="fill: none; stroke: #a9a9a9"/>
    <path d="M 51.131476 73.328093 
L 71.578461 101.053467 
" clip-path="url(#pc8a91cea03)" style="fill: none; stroke: #a9a9a9"/>
    <path d="M 51.131476 73.328093 
L 64.930918 58.198179 
" clip-path="url(#pc8a91cea03)" style="fill: none; stroke: #a9a9a9"/>
    <path d="M 51.131476 73.328093 
L 42.979108 67.18057 
" clip-path="url(#pc8a91cea03)" style="fill: none; stroke: #a9a9a9"/>
    <path d="M 44.097104 86.060561 
L 71.578461 101.053467 
" clip-path="url(#pc8a91cea03)" style="fill: none; stroke: #a9a9a9"/>
    <path d="M 44.097104 86.060561 
L 64.930918 58.198179 
" clip-path="url(#pc8a91cea03)" style="fill: none; stroke: #a9a9a9"/>
    <path d="M 44.097104 86.060561 
L 42.979108 67.18057 
" clip-path="url(#pc8a91cea03)" style="fill: none; stroke: #a9a9a9"/>
    <path d="M 48.516681 45.630254 
L 71.578461 101.053467 
" clip-path="url(#pc8a91cea03)" style="fill: none; stroke: #a9a9a9"/>
    <path d="M 48.516681 45.630254 
L 64.930918 58.198179 
" clip-path="url(#pc8a91cea03)" style="fill: none; stroke: #a9a9a9"/>
    <path d="M 48.516681 45.630254 
L 42.979108 67.18057 
" clip-path="url(#pc8a91cea03)" style="fill: none; stroke: #a9a9a9"/>
    <path d="M 71.578461 101.053467 
L 64.930918 58.198179 
" clip-path="url(#pc8a91cea03)" style="fill: none; stroke: #a9a9a9"/>
    <path d="M 71.578461 101.053467 
L 42.979108 67.18057 
" clip-path="url(#pc8a91cea03)" style="fill: none; stroke: #a9a9a9"/>
    <path d="M 71.578461 101.053467 
L 157.136801 210.721928 
" clip-path="url(#pc8a91cea03)" style="fill: none; stroke: #a9a9a9"/>
    <path d="M 64.930918 58.198179 
L 42.979108 67.18057 
" clip-path="url(#pc8a91cea03)" style="fill: none; stroke: #a9a9a9"/>
    <path d="M 64.930918 58.198179 
L 128.983168 59.212764 
" clip-path="url(#pc8a91cea03)" style="fill: none; stroke: #a9a9a9"/>
    <path d="M 196.264181 232.881766 
L 190.871164 252.439753 
" clip-path="url(#pc8a91cea03)" style="fill: none; stroke: #a9a9a9"/>
    <path d="M 196.264181 232.881766 
L 166.150849 259.946058 
" clip-path="url(#pc8a91cea03)" style="fill: none; stroke: #a9a9a9"/>
    <path d="M 196.264181 232.881766 
L 194.770062 223.403505 
" clip-path="url(#pc8a91cea03)" style="fill: none; stroke: #a9a9a9"/>
    <path d="M 196.264181 232.881766 
L 181.821145 240.274815 
" clip-path="url(#pc8a91cea03)" style="fill: none; stroke: #a9a9a9"/>
    <path d="M 196.264181 232.881766 
L 184.234951 229.755622 
" clip-path="url(#pc8a91cea03)" style="fill: none; stroke: #a9a9a9"/>
    <path d="M 196.264181 232.881766 
L 181.872187 208.019389 
" clip-path="url(#pc8a91cea03)" style="fill: none; stroke: #a9a9a9"/>
    <path d="M 196.264181 232.881766 
L 179.621325 250.435059 
" clip-path="url(#pc8a91cea03)" style="fill: none; stroke: #a9a9a9"/>
    <path d="M 196.264181 232.881766 
L 172.466516 237.186757 
" clip-path="url(#pc8a91cea03)" style="fill: none; stroke: #a9a9a9"/>
    <path d="M 196.264181 232.881766 
L 191.165044 241.917059 
" clip-path="url(#pc8a91cea03)" style="fill: none; stroke: #a9a9a9"/>
    <path d="M 196.264181 232.881766 
L 157.136801 210.721928 
" clip-path="url(#pc8a91cea03)" style="fill: none; stroke: #a9a9a9"/>
    <path d="M 190.871164 252.439753 
L 166.150849 259.946058 
" clip-path="url(#pc8a91cea03)" style="fill: none; stroke: #a9a9a9"/>
    <path d="M 190.871164 252.439753 
L 194.770062 223.403505 
" clip-path="url(#pc8a91cea03)" style="fill: none; stroke: #a9a9a9"/>
    <path d="M 190.871164 252.439753 
L 181.821145 240.274815 
" clip-path="url(#pc8a91cea03)" style="fill: none; stroke: #a9a9a9"/>
    <path d="M 190.871164 252.439753 
L 184.234951 229.755622 
" clip-path="url(#pc8a91cea03)" style="fill: none; stroke: #a9a9a9"/>
    <path d="M 190.871164 252.439753 
L 181.872187 208.019389 
" clip-path="url(#pc8a91cea03)" style="fill: none; stroke: #a9a9a9"/>
    <path d="M 190.871164 252.439753 
L 183.761159 260.345455 
" clip-path="url(#pc8a91cea03)" style="fill: none; stroke: #a9a9a9"/>
    <path d="M 190.871164 252.439753 
L 179.621325 250.435059 
" clip-path="url(#pc8a91cea03)" style="fill: none; stroke: #a9a9a9"/>
    <path d="M 190.871164 252.439753 
L 191.165044 241.917059 
" clip-path="url(#pc8a91cea03)" style="fill: none; stroke: #a9a9a9"/>
    <path d="M 190.871164 252.439753 
L 202.117973 245.171183 
" clip-path="url(#pc8a91cea03)" style="fill: none; stroke: #a9a9a9"/>
    <path d="M 190.871164 252.439753 
L 157.136801 210.721928 
" clip-path="url(#pc8a91cea03)" style="fill: none; stroke: #a9a9a9"/>
    <path d="M 166.150849 259.946058 
L 181.821145 240.274815 
" clip-path="url(#pc8a91cea03)" style="fill: none; stroke: #a9a9a9"/>
    <path d="M 166.150849 259.946058 
L 184.234951 229.755622 
" clip-path="url(#pc8a91cea03)" style="fill: none; stroke: #a9a9a9"/>
    <path d="M 166.150849 259.946058 
L 183.761159 260.345455 
" clip-path="url(#pc8a91cea03)" style="fill: none; stroke: #a9a9a9"/>
    <path d="M 166.150849 259.946058 
L 179.621325 250.435059 
" clip-path="url(#pc8a91cea03)" style="fill: none; stroke: #a9a9a9"/>
    <path d="M 166.150849 259.946058 
L 172.466516 237.186757 
" clip-path="url(#pc8a91cea03)" style="fill: none; stroke: #a9a9a9"/>
    <path d="M 166.150849 259.946058 
L 191.165044 241.917059 
" clip-path="url(#pc8a91cea03)" style="fill: none; stroke: #a9a9a9"/>
    <path d="M 166.150849 259.946058 
L 115.275916 238.300221 
" clip-path="url(#pc8a91cea03)" style="fill: none; stroke: #a9a9a9"/>
    <path d="M 194.770062 223.403505 
L 181.821145 240.274815 
" clip-path="url(#pc8a91cea03)" style="fill: none; stroke: #a9a9a9"/>
    <path d="M 194.770062 223.403505 
L 184.234951 229.755622 
" clip-path="url(#pc8a91cea03)" style="fill: none; stroke: #a9a9a9"/>
    <path d="M 194.770062 223.403505 
L 181.872187 208.019389 
" clip-path="url(#pc8a91cea03)" style="fill: none; stroke: #a9a9a9"/>
    <path d="M 194.770062 223.403505 
L 183.761159 260.345455 
" clip-path="url(#pc8a91cea03)" style="fill: none; stroke: #a9a9a9"/>
    <path d="M 194.770062 223.403505 
L 179.621325 250.435059 
" clip-path="url(#pc8a91cea03)" style="fill: none; stroke: #a9a9a9"/>
    <path d="M 194.770062 223.403505 
L 172.466516 237.186757 
" clip-path="url(#pc8a91cea03)" style="fill: none; stroke: #a9a9a9"/>
    <path d="M 194.770062 223.403505 
L 191.165044 241.917059 
" clip-path="url(#pc8a91cea03)" style="fill: none; stroke: #a9a9a9"/>
    <path d="M 194.770062 223.403505 
L 202.117973 245.171183 
" clip-path="url(#pc8a91cea03)" style="fill: none; stroke: #a9a9a9"/>
    <path d="M 194.770062 223.403505 
L 157.136801 210.721928 
" clip-path="url(#pc8a91cea03)" style="fill: none; stroke: #a9a9a9"/>
    <path d="M 181.821145 240.274815 
L 184.234951 229.755622 
" clip-path="url(#pc8a91cea03)" style="fill: none; stroke: #a9a9a9"/>
    <path d="M 181.821145 240.274815 
L 181.872187 208.019389 
" clip-path="url(#pc8a91cea03)" style="fill: none; stroke: #a9a9a9"/>
    <path d="M 181.821145 240.274815 
L 183.761159 260.345455 
" clip-path="url(#pc8a91cea03)" style="fill: none; stroke: #a9a9a9"/>
    <path d="M 181.821145 240.274815 
L 179.621325 250.435059 
" clip-path="url(#pc8a91cea03)" style="fill: none; stroke: #a9a9a9"/>
    <path d="M 181.821145 240.274815 
L 172.466516 237.186757 
" clip-path="url(#pc8a91cea03)" style="fill: none; stroke: #a9a9a9"/>
    <path d="M 181.821145 240.274815 
L 191.165044 241.917059 
" clip-path="url(#pc8a91cea03)" style="fill: none; stroke: #a9a9a9"/>
    <path d="M 181.821145 240.274815 
L 202.117973 245.171183 
" clip-path="url(#pc8a91cea03)" style="fill: none; stroke: #a9a9a9"/>
    <path d="M 181.821145 240.274815 
L 157.136801 210.721928 
" clip-path="url(#pc8a91cea03)" style="fill: none; stroke: #a9a9a9"/>
    <path d="M 184.234951 229.755622 
L 181.872187 208.019389 
" clip-path="url(#pc8a91cea03)" style="fill: none; stroke: #a9a9a9"/>
    <path d="M 184.234951 229.755622 
L 183.761159 260.345455 
" clip-path="url(#pc8a91cea03)" style="fill: none; stroke: #a9a9a9"/>
    <path d="M 184.234951 229.755622 
L 179.621325 250.435059 
" clip-path="url(#pc8a91cea03)" style="fill: none; stroke: #a9a9a9"/>
    <path d="M 184.234951 229.755622 
L 172.466516 237.186757 
" clip-path="url(#pc8a91cea03)" style="fill: none; stroke: #a9a9a9"/>
    <path d="M 184.234951 229.755622 
L 191.165044 241.917059 
" clip-path="url(#pc8a91cea03)" style="fill: none; stroke: #a9a9a9"/>
    <path d="M 184.234951 229.755622 
L 202.117973 245.171183 
" clip-path="url(#pc8a91cea03)" style="fill: none; stroke: #a9a9a9"/>
    <path d="M 184.234951 229.755622 
L 157.136801 210.721928 
" clip-path="url(#pc8a91cea03)" style="fill: none; stroke: #a9a9a9"/>
    <path d="M 181.872187 208.019389 
L 183.761159 260.345455 
" clip-path="url(#pc8a91cea03)" style="fill: none; stroke: #a9a9a9"/>
    <path d="M 181.872187 208.019389 
L 179.621325 250.435059 
" clip-path="url(#pc8a91cea03)" style="fill: none; stroke: #a9a9a9"/>
    <path d="M 181.872187 208.019389 
L 172.466516 237.186757 
" clip-path="url(#pc8a91cea03)" style="fill: none; stroke: #a9a9a9"/>
    <path d="M 181.872187 208.019389 
L 191.165044 241.917059 
" clip-path="url(#pc8a91cea03)" style="fill: none; stroke: #a9a9a9"/>
    <path d="M 181.872187 208.019389 
L 202.117973 245.171183 
" clip-path="url(#pc8a91cea03)" style="fill: none; stroke: #a9a9a9"/>
    <path d="M 181.872187 208.019389 
L 146.022704 117.599556 
" clip-path="url(#pc8a91cea03)" style="fill: none; stroke: #a9a9a9"/>
    <path d="M 183.761159 260.345455 
L 179.621325 250.435059 
" clip-path="url(#pc8a91cea03)" style="fill: none; stroke: #a9a9a9"/>
    <path d="M 183.761159 260.345455 
L 172.466516 237.186757 
" clip-path="url(#pc8a91cea03)" style="fill: none; stroke: #a9a9a9"/>
    <path d="M 183.761159 260.345455 
L 191.165044 241.917059 
" clip-path="url(#pc8a91cea03)" style="fill: none; stroke: #a9a9a9"/>
    <path d="M 183.761159 260.345455 
L 202.117973 245.171183 
" clip-path="url(#pc8a91cea03)" style="fill: none; stroke: #a9a9a9"/>
    <path d="M 183.761159 260.345455 
L 157.136801 210.721928 
" clip-path="url(#pc8a91cea03)" style="fill: none; stroke: #a9a9a9"/>
    <path d="M 179.621325 250.435059 
L 172.466516 237.186757 
" clip-path="url(#pc8a91cea03)" style="fill: none; stroke: #a9a9a9"/>
    <path d="M 179.621325 250.435059 
L 191.165044 241.917059 
" clip-path="url(#pc8a91cea03)" style="fill: none; stroke: #a9a9a9"/>
    <path d="M 179.621325 250.435059 
L 202.117973 245.171183 
" clip-path="url(#pc8a91cea03)" style="fill: none; stroke: #a9a9a9"/>
    <path d="M 179.621325 250.435059 
L 157.136801 210.721928 
" clip-path="url(#pc8a91cea03)" style="fill: none; stroke: #a9a9a9"/>
    <path d="M 172.466516 237.186757 
L 191.165044 241.917059 
" clip-path="url(#pc8a91cea03)" style="fill: none; stroke: #a9a9a9"/>
    <path d="M 172.466516 237.186757 
L 157.136801 210.721928 
" clip-path="url(#pc8a91cea03)" style="fill: none; stroke: #a9a9a9"/>
    <path d="M 191.165044 241.917059 
L 157.136801 210.721928 
" clip-path="url(#pc8a91cea03)" style="fill: none; stroke: #a9a9a9"/>
    <path d="M 202.117973 245.171183 
L 157.136801 210.721928 
" clip-path="url(#pc8a91cea03)" style="fill: none; stroke: #a9a9a9"/>
    <path d="M 157.136801 210.721928 
L 109.844784 224.723084 
" clip-path="url(#pc8a91cea03)" style="fill: none; stroke: #a9a9a9"/>
    <path d="M 256.74605 53.466256 
L 220.453813 72.355054 
" clip-path="url(#pc8a91cea03)" style="fill: none; stroke: #a9a9a9"/>
    <path d="M 256.74605 53.466256 
L 235.334524 86.730425 
" clip-path="url(#pc8a91cea03)" style="fill: none; stroke: #a9a9a9"/>
    <path d="M 256.74605 53.466256 
L 261.989256 70.994367 
" clip-path="url(#pc8a91cea03)" style="fill: none; stroke: #a9a9a9"/>
    <path d="M 220.453813 72.355054 
L 235.334524 86.730425 
" clip-path="url(#pc8a91cea03)" style="fill: none; stroke: #a9a9a9"/>
    <path d="M 220.453813 72.355054 
L 179.846872 119.121681 
" clip-path="url(#pc8a91cea03)" style="fill: none; stroke: #a9a9a9"/>
    <path d="M 220.453813 72.355054 
L 261.989256 70.994367 
" clip-path="url(#pc8a91cea03)" style="fill: none; stroke: #a9a9a9"/>
    <path d="M 220.453813 72.355054 
L 166.325287 65.650306 
" clip-path="url(#pc8a91cea03)" style="fill: none; stroke: #a9a9a9"/>
    <path d="M 235.334524 86.730425 
L 179.846872 119.121681 
" clip-path="url(#pc8a91cea03)" style="fill: none; stroke: #a9a9a9"/>
    <path d="M 235.334524 86.730425 
L 261.989256 70.994367 
" clip-path="url(#pc8a91cea03)" style="fill: none; stroke: #a9a9a9"/>
    <path d="M 179.846872 119.121681 
L 121.109367 201.754384 
" clip-path="url(#pc8a91cea03)" style="fill: none; stroke: #a9a9a9"/>
    <path d="M 179.846872 119.121681 
L 136.795007 72.980182 
" clip-path="url(#pc8a91cea03)" style="fill: none; stroke: #a9a9a9"/>
    <path d="M 109.844784 224.723084 
L 98.950649 232.357593 
" clip-path="url(#pc8a91cea03)" style="fill: none; stroke: #a9a9a9"/>
    <path d="M 109.844784 224.723084 
L 92.585469 223.700721 
" clip-path="url(#pc8a91cea03)" style="fill: none; stroke: #a9a9a9"/>
    <path d="M 109.844784 224.723084 
L 115.275916 238.300221 
" clip-path="url(#pc8a91cea03)" style="fill: none; stroke: #a9a9a9"/>
    <path d="M 109.844784 224.723084 
L 121.109367 201.754384 
" clip-path="url(#pc8a91cea03)" style="fill: none; stroke: #a9a9a9"/>
    <path d="M 109.844784 224.723084 
L 106.736182 196.447676 
" clip-path="url(#pc8a91cea03)" style="fill: none; stroke: #a9a9a9"/>
    <path d="M 109.844784 224.723084 
L 101.154309 192.827965 
" clip-path="url(#pc8a91cea03)" style="fill: none; stroke: #a9a9a9"/>
    <path d="M 109.844784 224.723084 
L 97.098221 249.074836 
" clip-path="url(#pc8a91cea03)" style="fill: none; stroke: #a9a9a9"/>
    <path d="M 109.844784 224.723084 
L 88.897318 213.002963 
" clip-path="url(#pc8a91cea03)" style="fill: none; stroke: #a9a9a9"/>
    <path d="M 109.844784 224.723084 
L 90.274198 235.616185 
" clip-path="url(#pc8a91cea03)" style="fill: none; stroke: #a9a9a9"/>
    <path d="M 109.844784 224.723084 
L 78.400446 229.284662 
" clip-path="url(#pc8a91cea03)" style="fill: none; stroke: #a9a9a9"/>
    <path d="M 98.950649 232.357593 
L 92.585469 223.700721 
" clip-path="url(#pc8a91cea03)" style="fill: none; stroke: #a9a9a9"/>
    <path d="M 98.950649 232.357593 
L 115.275916 238.300221 
" clip-path="url(#pc8a91cea03)" style="fill: none; stroke: #a9a9a9"/>
    <path d="M 98.950649 232.357593 
L 121.109367 201.754384 
" clip-path="url(#pc8a91cea03)" style="fill: none; stroke: #a9a9a9"/>
    <path d="M 98.950649 232.357593 
L 106.736182 196.447676 
" clip-path="url(#pc8a91cea03)" style="fill: none; stroke: #a9a9a9"/>
    <path d="M 98.950649 232.357593 
L 101.154309 192.827965 
" clip-path="url(#pc8a91cea03)" style="fill: none; stroke: #a9a9a9"/>
    <path d="M 98.950649 232.357593 
L 97.098221 249.074836 
" clip-path="url(#pc8a91cea03)" style="fill: none; stroke: #a9a9a9"/>
    <path d="M 98.950649 232.357593 
L 88.897318 213.002963 
" clip-path="url(#pc8a91cea03)" style="fill: none; stroke: #a9a9a9"/>
    <path d="M 98.950649 232.357593 
L 90.274198 235.616185 
" clip-path="url(#pc8a91cea03)" style="fill: none; stroke: #a9a9a9"/>
    <path d="M 98.950649 232.357593 
L 78.400446 229.284662 
" clip-path="url(#pc8a91cea03)" style="fill: none; stroke: #a9a9a9"/>
    <path d="M 92.585469 223.700721 
L 115.275916 238.300221 
" clip-path="url(#pc8a91cea03)" style="fill: none; stroke: #a9a9a9"/>
    <path d="M 92.585469 223.700721 
L 121.109367 201.754384 
" clip-path="url(#pc8a91cea03)" style="fill: none; stroke: #a9a9a9"/>
    <path d="M 92.585469 223.700721 
L 106.736182 196.447676 
" clip-path="url(#pc8a91cea03)" style="fill: none; stroke: #a9a9a9"/>
    <path d="M 92.585469 223.700721 
L 101.154309 192.827965 
" clip-path="url(#pc8a91cea03)" style="fill: none; stroke: #a9a9a9"/>
    <path d="M 92.585469 223.700721 
L 97.098221 249.074836 
" clip-path="url(#pc8a91cea03)" style="fill: none; stroke: #a9a9a9"/>
    <path d="M 92.585469 223.700721 
L 88.897318 213.002963 
" clip-path="url(#pc8a91cea03)" style="fill: none; stroke: #a9a9a9"/>
    <path d="M 92.585469 223.700721 
L 90.274198 235.616185 
" clip-path="url(#pc8a91cea03)" style="fill: none; stroke: #a9a9a9"/>
    <path d="M 92.585469 223.700721 
L 78.400446 229.284662 
" clip-path="url(#pc8a91cea03)" style="fill: none; stroke: #a9a9a9"/>
    <path d="M 115.275916 238.300221 
L 121.109367 201.754384 
" clip-path="url(#pc8a91cea03)" style="fill: none; stroke: #a9a9a9"/>
    <path d="M 115.275916 238.300221 
L 106.736182 196.447676 
" clip-path="url(#pc8a91cea03)" style="fill: none; stroke: #a9a9a9"/>
    <path d="M 115.275916 238.300221 
L 101.154309 192.827965 
" clip-path="url(#pc8a91cea03)" style="fill: none; stroke: #a9a9a9"/>
    <path d="M 115.275916 238.300221 
L 97.098221 249.074836 
" clip-path="url(#pc8a91cea03)" style="fill: none; stroke: #a9a9a9"/>
    <path d="M 115.275916 238.300221 
L 88.897318 213.002963 
" clip-path="url(#pc8a91cea03)" style="fill: none; stroke: #a9a9a9"/>
    <path d="M 115.275916 238.300221 
L 90.274198 235.616185 
" clip-path="url(#pc8a91cea03)" style="fill: none; stroke: #a9a9a9"/>
    <path d="M 121.109367 201.754384 
L 106.736182 196.447676 
" clip-path="url(#pc8a91cea03)" style="fill: none; stroke: #a9a9a9"/>
    <path d="M 121.109367 201.754384 
L 97.098221 249.074836 
" clip-path="url(#pc8a91cea03)" style="fill: none; stroke: #a9a9a9"/>
    <path d="M 121.109367 201.754384 
L 88.897318 213.002963 
" clip-path="url(#pc8a91cea03)" style="fill: none; stroke: #a9a9a9"/>
    <path d="M 121.109367 201.754384 
L 90.274198 235.616185 
" clip-path="url(#pc8a91cea03)" style="fill: none; stroke: #a9a9a9"/>
    <path d="M 106.736182 196.447676 
L 101.154309 192.827965 
" clip-path="url(#pc8a91cea03)" style="fill: none; stroke: #a9a9a9"/>
    <path d="M 106.736182 196.447676 
L 97.098221 249.074836 
" clip-path="url(#pc8a91cea03)" style="fill: none; stroke: #a9a9a9"/>
    <path d="M 106.736182 196.447676 
L 88.897318 213.002963 
" clip-path="url(#pc8a91cea03)" style="fill: none; stroke: #a9a9a9"/>
    <path d="M 106.736182 196.447676 
L 90.274198 235.616185 
" clip-path="url(#pc8a91cea03)" style="fill: none; stroke: #a9a9a9"/>
    <path d="M 106.736182 196.447676 
L 78.400446 229.284662 
" clip-path="url(#pc8a91cea03)" style="fill: none; stroke: #a9a9a9"/>
    <path d="M 106.736182 196.447676 
L 137.627963 96.144449 
" clip-path="url(#pc8a91cea03)" style="fill: none; stroke: #a9a9a9"/>
    <path d="M 101.154309 192.827965 
L 88.897318 213.002963 
" clip-path="url(#pc8a91cea03)" style="fill: none; stroke: #a9a9a9"/>
    <path d="M 101.154309 192.827965 
L 90.274198 235.616185 
" clip-path="url(#pc8a91cea03)" style="fill: none; stroke: #a9a9a9"/>
    <path d="M 101.154309 192.827965 
L 78.400446 229.284662 
" clip-path="url(#pc8a91cea03)" style="fill: none; stroke: #a9a9a9"/>
    <path d="M 101.154309 192.827965 
L 146.022704 117.599556 
" clip-path="url(#pc8a91cea03)" style="fill: none; stroke: #a9a9a9"/>
    <path d="M 97.098221 249.074836 
L 90.274198 235.616185 
" clip-path="url(#pc8a91cea03)" style="fill: none; stroke: #a9a9a9"/>
    <path d="M 97.098221 249.074836 
L 78.400446 229.284662 
" clip-path="url(#pc8a91cea03)" style="fill: none; stroke: #a9a9a9"/>
    <path d="M 88.897318 213.002963 
L 90.274198 235.616185 
" clip-path="url(#pc8a91cea03)" style="fill: none; stroke: #a9a9a9"/>
    <path d="M 88.897318 213.002963 
L 78.400446 229.284662 
" clip-path="url(#pc8a91cea03)" style="fill: none; stroke: #a9a9a9"/>
    <path d="M 90.274198 235.616185 
L 78.400446 229.284662 
" clip-path="url(#pc8a91cea03)" style="fill: none; stroke: #a9a9a9"/>
    <path d="M 136.795007 72.980182 
L 146.022704 117.599556 
" clip-path="url(#pc8a91cea03)" style="fill: none; stroke: #a9a9a9"/>
    <path d="M 136.795007 72.980182 
L 144.057236 42.167069 
" clip-path="url(#pc8a91cea03)" style="fill: none; stroke: #a9a9a9"/>
    <path d="M 136.795007 72.980182 
L 152.511958 31.254545 
" clip-path="url(#pc8a91cea03)" style="fill: none; stroke: #a9a9a9"/>
    <path d="M 136.795007 72.980182 
L 137.627963 96.144449 
" clip-path="url(#pc8a91cea03)" style="fill: none; stroke: #a9a9a9"/>
    <path d="M 136.795007 72.980182 
L 155.277799 71.377792 
" clip-path="url(#pc8a91cea03)" style="fill: none; stroke: #a9a9a9"/>
    <path d="M 136.795007 72.980182 
L 150.938182 63.198242 
" clip-path="url(#pc8a91cea03)" style="fill: none; stroke: #a9a9a9"/>
    <path d="M 136.795007 72.980182 
L 143.808041 59.622693 
" clip-path="url(#pc8a91cea03)" style="fill: none; stroke: #a9a9a9"/>
    <path d="M 136.795007 72.980182 
L 128.983168 59.212764 
" clip-path="url(#pc8a91cea03)" style="fill: none; stroke: #a9a9a9"/>
    <path d="M 136.795007 72.980182 
L 156.109568 47.267813 
" clip-path="url(#pc8a91cea03)" style="fill: none; stroke: #a9a9a9"/>
    <path d="M 136.795007 72.980182 
L 166.325287 65.650306 
" clip-path="url(#pc8a91cea03)" style="fill: none; stroke: #a9a9a9"/>
    <path d="M 146.022704 117.599556 
L 137.627963 96.144449 
" clip-path="url(#pc8a91cea03)" style="fill: none; stroke: #a9a9a9"/>
    <path d="M 146.022704 117.599556 
L 155.277799 71.377792 
" clip-path="url(#pc8a91cea03)" style="fill: none; stroke: #a9a9a9"/>
    <path d="M 146.022704 117.599556 
L 150.938182 63.198242 
" clip-path="url(#pc8a91cea03)" style="fill: none; stroke: #a9a9a9"/>
    <path d="M 146.022704 117.599556 
L 143.808041 59.622693 
" clip-path="url(#pc8a91cea03)" style="fill: none; stroke: #a9a9a9"/>
    <path d="M 146.022704 117.599556 
L 128.983168 59.212764 
" clip-path="url(#pc8a91cea03)" style="fill: none; stroke: #a9a9a9"/>
    <path d="M 146.022704 117.599556 
L 166.325287 65.650306 
" clip-path="url(#pc8a91cea03)" style="fill: none; stroke: #a9a9a9"/>
    <path d="M 144.057236 42.167069 
L 152.511958 31.254545 
" clip-path="url(#pc8a91cea03)" style="fill: none; stroke: #a9a9a9"/>
    <path d="M 144.057236 42.167069 
L 137.627963 96.144449 
" clip-path="url(#pc8a91cea03)" style="fill: none; stroke: #a9a9a9"/>
    <path d="M 144.057236 42.167069 
L 155.277799 71.377792 
" clip-path="url(#pc8a91cea03)" style="fill: none; stroke: #a9a9a9"/>
    <path d="M 144.057236 42.167069 
L 150.938182 63.198242 
" clip-path="url(#pc8a91cea03)" style="fill: none; stroke: #a9a9a9"/>
    <path d="M 144.057236 42.167069 
L 143.808041 59.622693 
" clip-path="url(#pc8a91cea03)" style="fill: none; stroke: #a9a9a9"/>
    <path d="M 144.057236 42.167069 
L 128.983168 59.212764 
" clip-path="url(#pc8a91cea03)" style="fill: none; stroke: #a9a9a9"/>
    <path d="M 144.057236 42.167069 
L 156.109568 47.267813 
" clip-path="url(#pc8a91cea03)" style="fill: none; stroke: #a9a9a9"/>
    <path d="M 144.057236 42.167069 
L 166.325287 65.650306 
" clip-path="url(#pc8a91cea03)" style="fill: none; stroke: #a9a9a9"/>
    <path d="M 152.511958 31.254545 
L 155.277799 71.377792 
" clip-path="url(#pc8a91cea03)" style="fill: none; stroke: #a9a9a9"/>
    <path d="M 152.511958 31.254545 
L 150.938182 63.198242 
" clip-path="url(#pc8a91cea03)" style="fill: none; stroke: #a9a9a9"/>
    <path d="M 152.511958 31.254545 
L 143.808041 59.622693 
" clip-path="url(#pc8a91cea03)" style="fill: none; stroke: #a9a9a9"/>
    <path d="M 152.511958 31.254545 
L 128.983168 59.212764 
" clip-path="url(#pc8a91cea03)" style="fill: none; stroke: #a9a9a9"/>
    <path d="M 152.511958 31.254545 
L 166.325287 65.650306 
" clip-path="url(#pc8a91cea03)" style="fill: none; stroke: #a9a9a9"/>
    <path d="M 137.627963 96.144449 
L 155.277799 71.377792 
" clip-path="url(#pc8a91cea03)" style="fill: none; stroke: #a9a9a9"/>
    <path d="M 137.627963 96.144449 
L 150.938182 63.198242 
" clip-path="url(#pc8a91cea03)" style="fill: none; stroke: #a9a9a9"/>
    <path d="M 137.627963 96.144449 
L 143.808041 59.622693 
" clip-path="url(#pc8a91cea03)" style="fill: none; stroke: #a9a9a9"/>
    <path d="M 137.627963 96.144449 
L 128.983168 59.212764 
" clip-path="url(#pc8a91cea03)" style="fill: none; stroke: #a9a9a9"/>
    <path d="M 137.627963 96.144449 
L 156.109568 47.267813 
" clip-path="url(#pc8a91cea03)" style="fill: none; stroke: #a9a9a9"/>
    <path d="M 137.627963 96.144449 
L 166.325287 65.650306 
" clip-path="url(#pc8a91cea03)" style="fill: none; stroke: #a9a9a9"/>
    <path d="M 155.277799 71.377792 
L 150.938182 63.198242 
" clip-path="url(#pc8a91cea03)" style="fill: none; stroke: #a9a9a9"/>
    <path d="M 155.277799 71.377792 
L 143.808041 59.622693 
" clip-path="url(#pc8a91cea03)" style="fill: none; stroke: #a9a9a9"/>
    <path d="M 155.277799 71.377792 
L 128.983168 59.212764 
" clip-path="url(#pc8a91cea03)" style="fill: none; stroke: #a9a9a9"/>
    <path d="M 155.277799 71.377792 
L 156.109568 47.267813 
" clip-path="url(#pc8a91cea03)" style="fill: none; stroke: #a9a9a9"/>
    <path d="M 155.277799 71.377792 
L 166.325287 65.650306 
" clip-path="url(#pc8a91cea03)" style="fill: none; stroke: #a9a9a9"/>
    <path d="M 150.938182 63.198242 
L 143.808041 59.622693 
" clip-path="url(#pc8a91cea03)" style="fill: none; stroke: #a9a9a9"/>
    <path d="M 150.938182 63.198242 
L 128.983168 59.212764 
" clip-path="url(#pc8a91cea03)" style="fill: none; stroke: #a9a9a9"/>
    <path d="M 150.938182 63.198242 
L 156.109568 47.267813 
" clip-path="url(#pc8a91cea03)" style="fill: none; stroke: #a9a9a9"/>
    <path d="M 150.938182 63.198242 
L 166.325287 65.650306 
" clip-path="url(#pc8a91cea03)" style="fill: none; stroke: #a9a9a9"/>
    <path d="M 143.808041 59.622693 
L 128.983168 59.212764 
" clip-path="url(#pc8a91cea03)" style="fill: none; stroke: #a9a9a9"/>
    <path d="M 143.808041 59.622693 
L 156.109568 47.267813 
" clip-path="url(#pc8a91cea03)" style="fill: none; stroke: #a9a9a9"/>
    <path d="M 143.808041 59.622693 
L 166.325287 65.650306 
" clip-path="url(#pc8a91cea03)" style="fill: none; stroke: #a9a9a9"/>
    <path d="M 128.983168 59.212764 
L 156.109568 47.267813 
" clip-path="url(#pc8a91cea03)" style="fill: none; stroke: #a9a9a9"/>
    <path d="M 128.983168 59.212764 
L 166.325287 65.650306 
" clip-path="url(#pc8a91cea03)" style="fill: none; stroke: #a9a9a9"/>
    <path d="M 156.109568 47.267813 
L 166.325287 65.650306 
" clip-path="url(#pc8a91cea03)" style="fill: none; stroke: #a9a9a9"/>
   </g>
   <g id="PathCollection_1">
    <defs>
     <path id="m0543c3609b" d="M 0 5 
C 1.326016 5 2.597899 4.473168 3.535534 3.535534 
C 4.473168 2.597899 5 1.326016 5 0 
C 5 -1.326016 4.473168 -2.597899 3.535534 -3.535534 
C 2.597899 -4.473168 1.326016 -5 0 -5 
C -1.326016 -5 -2.597899 -4.473168 -3.535534 -3.535534 
C -4.473168 -2.597899 -5 -1.326016 -5 0 
C -5 1.326016 -4.473168 2.597899 -3.535534 3.535534 
C -2.597899 4.473168 -1.326016 5 0 5 
z
" style="stroke: #000000"/>
    </defs>
    <g clip-path="url(#pc8a91cea03)">
     <use xlink:href="#m0543c3609b" x="31.410744" y="64.115061" style="fill: #ffffff; stroke: #000000"/>
    </g>
   </g>
   <g id="PathCollection_2">
    <g clip-path="url(#pc8a91cea03)">
     <use xlink:href="#m0543c3609b" x="40.564995" y="54.376747" style="fill: #ffffff; stroke: #000000"/>
    </g>
   </g>
   <g id="PathCollection_3">
    <g clip-path="url(#pc8a91cea03)">
     <use xlink:href="#m0543c3609b" x="50.865338" y="58.412836" style="fill: #ffffff; stroke: #000000"/>
    </g>
   </g>
   <g id="PathCollection_4">
    <g clip-path="url(#pc8a91cea03)">
     <use xlink:href="#m0543c3609b" x="70.884015" y="67.710908" style="fill: #ffffff; stroke: #000000"/>
    </g>
   </g>
   <g id="PathCollection_5">
    <g clip-path="url(#pc8a91cea03)">
     <use xlink:href="#m0543c3609b" x="38.065914" y="76.143467" style="fill: #ffffff; stroke: #000000"/>
    </g>
   </g>
   <g id="PathCollection_6">
    <g clip-path="url(#pc8a91cea03)">
     <use xlink:href="#m0543c3609b" x="51.131476" y="73.328093" style="fill: #ffffff; stroke: #000000"/>
    </g>
   </g>
   <g id="PathCollection_7">
    <g clip-path="url(#pc8a91cea03)">
     <use xlink:href="#m0543c3609b" x="44.097104" y="86.060561" style="fill: #ffffff; stroke: #000000"/>
    </g>
   </g>
   <g id="PathCollection_8">
    <g clip-path="url(#pc8a91cea03)">
     <use xlink:href="#m0543c3609b" x="48.516681" y="45.630254" style="fill: #ffffff; stroke: #000000"/>
    </g>
   </g>
   <g id="PathCollection_9">
    <g clip-path="url(#pc8a91cea03)">
     <use xlink:href="#m0543c3609b" x="71.578461" y="101.053467" style="fill: #ffffff; stroke: #000000"/>
    </g>
   </g>
   <g id="PathCollection_10">
    <g clip-path="url(#pc8a91cea03)">
     <use xlink:href="#m0543c3609b" x="64.930918" y="58.198179" style="fill: #ffffff; stroke: #000000"/>
    </g>
   </g>
   <g id="PathCollection_11">
    <g clip-path="url(#pc8a91cea03)">
     <use xlink:href="#m0543c3609b" x="42.979108" y="67.18057" style="fill: #ffffff; stroke: #000000"/>
    </g>
   </g>
   <g id="PathCollection_12">
    <g clip-path="url(#pc8a91cea03)">
     <use xlink:href="#m0543c3609b" x="196.264181" y="232.881766" style="fill: #ffffff; stroke: #000000"/>
    </g>
   </g>
   <g id="PathCollection_13">
    <g clip-path="url(#pc8a91cea03)">
     <use xlink:href="#m0543c3609b" x="190.871164" y="252.439753" style="fill: #ffffff; stroke: #000000"/>
    </g>
   </g>
   <g id="PathCollection_14">
    <g clip-path="url(#pc8a91cea03)">
     <use xlink:href="#m0543c3609b" x="166.150849" y="259.946058" style="fill: #ffffff; stroke: #000000"/>
    </g>
   </g>
   <g id="PathCollection_15">
    <g clip-path="url(#pc8a91cea03)">
     <use xlink:href="#m0543c3609b" x="194.770062" y="223.403505" style="fill: #ffffff; stroke: #000000"/>
    </g>
   </g>
   <g id="PathCollection_16">
    <g clip-path="url(#pc8a91cea03)">
     <use xlink:href="#m0543c3609b" x="181.821145" y="240.274815" style="fill: #ffffff; stroke: #000000"/>
    </g>
   </g>
   <g id="PathCollection_17">
    <g clip-path="url(#pc8a91cea03)">
     <use xlink:href="#m0543c3609b" x="184.234951" y="229.755622" style="fill: #ffffff; stroke: #000000"/>
    </g>
   </g>
   <g id="PathCollection_18">
    <g clip-path="url(#pc8a91cea03)">
     <use xlink:href="#m0543c3609b" x="181.872187" y="208.019389" style="fill: #ffffff; stroke: #000000"/>
    </g>
   </g>
   <g id="PathCollection_19">
    <g clip-path="url(#pc8a91cea03)">
     <use xlink:href="#m0543c3609b" x="183.761159" y="260.345455" style="fill: #ffffff; stroke: #000000"/>
    </g>
   </g>
   <g id="PathCollection_20">
    <g clip-path="url(#pc8a91cea03)">
     <use xlink:href="#m0543c3609b" x="179.621325" y="250.435059" style="fill: #ffffff; stroke: #000000"/>
    </g>
   </g>
   <g id="PathCollection_21">
    <g clip-path="url(#pc8a91cea03)">
     <use xlink:href="#m0543c3609b" x="172.466516" y="237.186757" style="fill: #ffffff; stroke: #000000"/>
    </g>
   </g>
   <g id="PathCollection_22">
    <g clip-path="url(#pc8a91cea03)">
     <use xlink:href="#m0543c3609b" x="191.165044" y="241.917059" style="fill: #ffffff; stroke: #000000"/>
    </g>
   </g>
   <g id="PathCollection_23">
    <g clip-path="url(#pc8a91cea03)">
     <use xlink:href="#m0543c3609b" x="202.117973" y="245.171183" style="fill: #ffffff; stroke: #000000"/>
    </g>
   </g>
   <g id="PathCollection_24">
    <g clip-path="url(#pc8a91cea03)">
     <use xlink:href="#m0543c3609b" x="157.136801" y="210.721928" style="fill: #ffffff; stroke: #000000"/>
    </g>
   </g>
   <g id="PathCollection_25">
    <g clip-path="url(#pc8a91cea03)">
     <use xlink:href="#m0543c3609b" x="256.74605" y="53.466256" style="fill: #ffffff; stroke: #000000"/>
    </g>
   </g>
   <g id="PathCollection_26">
    <g clip-path="url(#pc8a91cea03)">
     <use xlink:href="#m0543c3609b" x="220.453813" y="72.355054" style="fill: #ffffff; stroke: #000000"/>
    </g>
   </g>
   <g id="PathCollection_27">
    <g clip-path="url(#pc8a91cea03)">
     <use xlink:href="#m0543c3609b" x="235.334524" y="86.730425" style="fill: #ffffff; stroke: #000000"/>
    </g>
   </g>
   <g id="PathCollection_28">
    <g clip-path="url(#pc8a91cea03)">
     <use xlink:href="#m0543c3609b" x="179.846872" y="119.121681" style="fill: #ffffff; stroke: #000000"/>
    </g>
   </g>
   <g id="PathCollection_29">
    <g clip-path="url(#pc8a91cea03)">
     <use xlink:href="#m0543c3609b" x="261.989256" y="70.994367" style="fill: #ffffff; stroke: #000000"/>
    </g>
   </g>
   <g id="PathCollection_30">
    <g clip-path="url(#pc8a91cea03)">
     <use xlink:href="#m0543c3609b" x="109.844784" y="224.723084" style="fill: #ffffff; stroke: #000000"/>
    </g>
   </g>
   <g id="PathCollection_31">
    <g clip-path="url(#pc8a91cea03)">
     <use xlink:href="#m0543c3609b" x="98.950649" y="232.357593" style="fill: #ffffff; stroke: #000000"/>
    </g>
   </g>
   <g id="PathCollection_32">
    <g clip-path="url(#pc8a91cea03)">
     <use xlink:href="#m0543c3609b" x="92.585469" y="223.700721" style="fill: #ffffff; stroke: #000000"/>
    </g>
   </g>
   <g id="PathCollection_33">
    <g clip-path="url(#pc8a91cea03)">
     <use xlink:href="#m0543c3609b" x="115.275916" y="238.300221" style="fill: #ffffff; stroke: #000000"/>
    </g>
   </g>
   <g id="PathCollection_34">
    <g clip-path="url(#pc8a91cea03)">
     <use xlink:href="#m0543c3609b" x="121.109367" y="201.754384" style="fill: #ffffff; stroke: #000000"/>
    </g>
   </g>
   <g id="PathCollection_35">
    <g clip-path="url(#pc8a91cea03)">
     <use xlink:href="#m0543c3609b" x="106.736182" y="196.447676" style="fill: #ffffff; stroke: #000000"/>
    </g>
   </g>
   <g id="PathCollection_36">
    <g clip-path="url(#pc8a91cea03)">
     <use xlink:href="#m0543c3609b" x="101.154309" y="192.827965" style="fill: #ffffff; stroke: #000000"/>
    </g>
   </g>
   <g id="PathCollection_37">
    <g clip-path="url(#pc8a91cea03)">
     <use xlink:href="#m0543c3609b" x="97.098221" y="249.074836" style="fill: #ffffff; stroke: #000000"/>
    </g>
   </g>
   <g id="PathCollection_38">
    <g clip-path="url(#pc8a91cea03)">
     <use xlink:href="#m0543c3609b" x="88.897318" y="213.002963" style="fill: #ffffff; stroke: #000000"/>
    </g>
   </g>
   <g id="PathCollection_39">
    <g clip-path="url(#pc8a91cea03)">
     <use xlink:href="#m0543c3609b" x="90.274198" y="235.616185" style="fill: #ffffff; stroke: #000000"/>
    </g>
   </g>
   <g id="PathCollection_40">
    <g clip-path="url(#pc8a91cea03)">
     <use xlink:href="#m0543c3609b" x="78.400446" y="229.284662" style="fill: #ffffff; stroke: #000000"/>
    </g>
   </g>
   <g id="PathCollection_41">
    <g clip-path="url(#pc8a91cea03)">
     <use xlink:href="#m0543c3609b" x="136.795007" y="72.980182" style="fill: #ffffff; stroke: #000000"/>
    </g>
   </g>
   <g id="PathCollection_42">
    <g clip-path="url(#pc8a91cea03)">
     <use xlink:href="#m0543c3609b" x="146.022704" y="117.599556" style="fill: #ffffff; stroke: #000000"/>
    </g>
   </g>
   <g id="PathCollection_43">
    <g clip-path="url(#pc8a91cea03)">
     <use xlink:href="#m0543c3609b" x="144.057236" y="42.167069" style="fill: #ffffff; stroke: #000000"/>
    </g>
   </g>
   <g id="PathCollection_44">
    <g clip-path="url(#pc8a91cea03)">
     <use xlink:href="#m0543c3609b" x="152.511958" y="31.254545" style="fill: #ffffff; stroke: #000000"/>
    </g>
   </g>
   <g id="PathCollection_45">
    <g clip-path="url(#pc8a91cea03)">
     <use xlink:href="#m0543c3609b" x="137.627963" y="96.144449" style="fill: #ffffff; stroke: #000000"/>
    </g>
   </g>
   <g id="PathCollection_46">
    <g clip-path="url(#pc8a91cea03)">
     <use xlink:href="#m0543c3609b" x="155.277799" y="71.377792" style="fill: #ffffff; stroke: #000000"/>
    </g>
   </g>
   <g id="PathCollection_47">
    <g clip-path="url(#pc8a91cea03)">
     <use xlink:href="#m0543c3609b" x="150.938182" y="63.198242" style="fill: #ffffff; stroke: #000000"/>
    </g>
   </g>
   <g id="PathCollection_48">
    <g clip-path="url(#pc8a91cea03)">
     <use xlink:href="#m0543c3609b" x="143.808041" y="59.622693" style="fill: #ffffff; stroke: #000000"/>
    </g>
   </g>
   <g id="PathCollection_49">
    <g clip-path="url(#pc8a91cea03)">
     <use xlink:href="#m0543c3609b" x="128.983168" y="59.212764" style="fill: #ffffff; stroke: #000000"/>
    </g>
   </g>
   <g id="PathCollection_50">
    <g clip-path="url(#pc8a91cea03)">
     <use xlink:href="#m0543c3609b" x="156.109568" y="47.267813" style="fill: #ffffff; stroke: #000000"/>
    </g>
   </g>
   <g id="PathCollection_51">
    <g clip-path="url(#pc8a91cea03)">
     <use xlink:href="#m0543c3609b" x="166.325287" y="65.650306" style="fill: #ffffff; stroke: #000000"/>
    </g>
   </g>
   <g id="matplotlib.axis_1">
    <g id="xtick_1"/>
    <g id="xtick_2"/>
    <g id="xtick_3"/>
    <g id="xtick_4"/>
    <g id="xtick_5"/>
    <g id="xtick_6"/>
    <g id="xtick_7"/>
    <g id="xtick_8"/>
   </g>
   <g id="matplotlib.axis_2">
    <g id="ytick_1"/>
    <g id="ytick_2"/>
    <g id="ytick_3"/>
    <g id="ytick_4"/>
    <g id="ytick_5"/>
    <g id="ytick_6"/>
    <g id="ytick_7"/>
   </g>
   <g id="patch_3">
    <path d="M 7.2 284.4 
L 7.2 7.2 
" style="fill: none; stroke: #000000; stroke-width: 0.8; stroke-linejoin: miter; stroke-linecap: square"/>
   </g>
   <g id="patch_4">
    <path d="M 286.2 284.4 
L 286.2 7.2 
" style="fill: none; stroke: #000000; stroke-width: 0.8; stroke-linejoin: miter; stroke-linecap: square"/>
   </g>
   <g id="patch_5">
    <path d="M 7.2 284.4 
L 286.2 284.4 
" style="fill: none; stroke: #000000; stroke-width: 0.8; stroke-linejoin: miter; stroke-linecap: square"/>
   </g>
   <g id="patch_6">
    <path d="M 7.2 7.2 
L 286.2 7.2 
" style="fill: none; stroke: #000000; stroke-width: 0.8; stroke-linejoin: miter; stroke-linecap: square"/>
   </g>
  </g>
 </g>
 <defs>
  <clipPath id="pc8a91cea03">
   <rect x="7.2" y="7.2" width="279" height="277.2"/>
  </clipPath>
 </defs>
</svg>
